gortondigitalRegular.ufo
<glyph name="exclam" format="2">
  <advance width="1050"/>
  <unicode hex="0021"/>
  <outline>
    <contour>
      <point x="105" y="210" type="curve" smooth="yes"/>
      <point x="105" y="345"/>
      <point x="215" y="455"/>
      <point x="350" y="455" type="curve" smooth="yes"/>
      <point x="485" y="455"/>
      <point x="595" y="345"/>
      <point x="595" y="210" type="curve" smooth="yes"/>
      <point x="595" y="75"/>
      <point x="485" y="-35"/>
      <point x="350" y="-35" type="curve" smooth="yes"/>
      <point x="215" y="-35"/>
      <point x="105" y="75"/>
    </contour>
    <contour>
      <point x="140" y="1680" type="curve" smooth="yes"/>
      <point x="140" y="2450" type="line" smooth="yes"/>
      <point x="140" y="2566"/>
      <point x="233" y="2660"/>
      <point x="350" y="2660" type="curve" smooth="yes"/>
      <point x="467" y="2660"/>
      <point x="560" y="2566"/>
      <point x="560" y="2450" type="curve" smooth="yes"/>
      <point x="560" y="1680" type="line" smooth="yes"/>
      <point x="560" y="1676"/>
      <point x="560" y="1672"/>
      <point x="560" y="1668" type="curve" smooth="yes"/>
      <point x="490" y="828" type="line" smooth="yes"/>
      <point x="484" y="754"/>
      <point x="421" y="700"/>
      <point x="350" y="700" type="curve" smooth="yes"/>
      <point x="276" y="700"/>
      <point x="216" y="757"/>
      <point x="210" y="828" type="curve" smooth="yes"/>
      <point x="140" y="1668" type="line" smooth="yes"/>
      <point x="140" y="1672"/>
      <point x="140" y="1676"/>
    </contour>
    <contour>
      <point x="315" y="210" type="line"/>
      <point x="350" y="175" type="line"/>
      <point x="385" y="210" type="line"/>
      <point x="350" y="245" type="line"/>
    </contour>
  </outline>
</glyph>
<glyph name="numbersign" format="2">
  <advance width="2622"/>
  <unicode hex="0023"/>
  <outline>
    <contour>
      <point x="180" y="756" type="curve" smooth="yes"/>
      <point x="180" y="833"/>
      <point x="243" y="896"/>
      <point x="320" y="896" type="curve" smooth="yes"/>
      <point x="577" y="896" type="line"/>
      <point x="615" y="1624" type="line"/>
      <point x="372" y="1624" type="line" smooth="yes"/>
      <point x="295" y="1624"/>
      <point x="232" y="1687"/>
      <point x="232" y="1764" type="curve" smooth="yes"/>
      <point x="232" y="1841"/>
      <point x="295" y="1904"/>
      <point x="372" y="1904" type="curve" smooth="yes"/>
      <point x="629" y="1905" type="line"/>
      <point x="662" y="2527" type="line" smooth="yes"/>
      <point x="666" y="2601"/>
      <point x="727" y="2660"/>
      <point x="802" y="2660" type="curve" smooth="yes"/>
      <point x="879" y="2660"/>
      <point x="942" y="2597"/>
      <point x="942" y="2520" type="curve" smooth="yes"/>
      <point x="942" y="2514"/>
      <point x="911" y="1928"/>
      <point x="910" y="1904" type="curve"/>
      <point x="1470" y="1904" type="line"/>
      <point x="1502" y="2527" type="line" smooth="yes"/>
      <point x="1506" y="2601"/>
      <point x="1567" y="2660"/>
      <point x="1642" y="2660" type="curve" smooth="yes"/>
      <point x="1719" y="2660"/>
      <point x="1782" y="2597"/>
      <point x="1782" y="2520" type="curve" smooth="yes"/>
      <point x="1782" y="2516"/>
      <point x="1782" y="2517"/>
      <point x="1751" y="1905" type="curve"/>
      <point x="1992" y="1904" type="line" smooth="yes"/>
      <point x="2069" y="1904"/>
      <point x="2132" y="1841"/>
      <point x="2132" y="1764" type="curve" smooth="yes"/>
      <point x="2132" y="1687"/>
      <point x="2069" y="1624"/>
      <point x="1992" y="1624" type="curve" smooth="yes"/>
      <point x="1735" y="1624" type="line"/>
      <point x="1697" y="896" type="line"/>
      <point x="1940" y="896" type="line" smooth="yes"/>
      <point x="2017" y="896"/>
      <point x="2080" y="833"/>
      <point x="2080" y="756" type="curve" smooth="yes"/>
      <point x="2080" y="679"/>
      <point x="2017" y="616"/>
      <point x="1940" y="616" type="curve" smooth="yes"/>
      <point x="1683" y="615" type="line"/>
      <point x="1650" y="-8" type="line" smooth="yes"/>
      <point x="1646" y="-82"/>
      <point x="1585" y="-140"/>
      <point x="1510" y="-140" type="curve" smooth="yes"/>
      <point x="1433" y="-140"/>
      <point x="1370" y="-77"/>
      <point x="1370" y="-0" type="curve" smooth="yes"/>
      <point x="1370" y="6"/>
      <point x="1401" y="594"/>
      <point x="1402" y="616" type="curve"/>
      <point x="842" y="616" type="line"/>
      <point x="810" y="-7" type="line" smooth="yes"/>
      <point x="806" y="-81"/>
      <point x="745" y="-140"/>
      <point x="670" y="-140" type="curve" smooth="yes"/>
      <point x="593" y="-140"/>
      <point x="530" y="-77"/>
      <point x="530" y="-0" type="curve" smooth="yes"/>
      <point x="530" y="4"/>
      <point x="530" y="3"/>
      <point x="561" y="615" type="curve"/>
      <point x="320" y="616" type="line" smooth="yes"/>
      <point x="243" y="616"/>
      <point x="180" y="679"/>
    </contour>
    <contour>
      <point x="857" y="896" type="line"/>
      <point x="1417" y="896" type="line"/>
      <point x="1455" y="1624" type="line"/>
      <point x="895" y="1624" type="line"/>
    </contour>
  </outline>
</glyph>
<glyph name="dollar" format="2">
  <advance width="2631"/>
  <unicode hex="0024"/>
  <outline>
    <contour>
      <point x="140" y="750" type="curve" smooth="yes"/>
      <point x="140" y="827"/>
      <point x="203" y="890"/>
      <point x="280" y="890" type="curve" smooth="yes"/>
      <point x="345" y="890"/>
      <point x="401" y="846"/>
      <point x="416" y="785" type="curve" smooth="yes"/>
      <point x="495" y="475"/>
      <point x="498" y="461"/>
      <point x="585" y="368" type="curve" smooth="yes"/>
      <point x="641" y="308"/>
      <point x="759" y="208"/>
      <point x="958" y="162" type="curve"/>
      <point x="982" y="1212" type="line"/>
      <point x="543" y="1255"/>
      <point x="204" y="1561"/>
      <point x="204" y="1933" type="curve" smooth="yes"/>
      <point x="204" y="2302"/>
      <point x="544" y="2627"/>
      <point x="1015" y="2658" type="curve"/>
      <point x="1019" y="2803" type="line" smooth="yes"/>
      <point x="1021" y="2879"/>
      <point x="1083" y="2940"/>
      <point x="1159" y="2940" type="curve" smooth="yes"/>
      <point x="1236" y="2940"/>
      <point x="1299" y="2877"/>
      <point x="1299" y="2800" type="curve" smooth="yes"/>
      <point x="1299" y="2798"/>
      <point x="1299" y="2798"/>
      <point x="1295" y="2640" type="curve"/>
      <point x="1408" y="2618"/>
      <point x="1725" y="2531"/>
      <point x="1890" y="2240" type="curve" smooth="yes"/>
      <point x="1924" y="2180"/>
      <point x="1972" y="1987"/>
      <point x="1972" y="1933" type="curve" smooth="yes"/>
      <point x="1972" y="1856"/>
      <point x="1909" y="1793"/>
      <point x="1832" y="1793" type="curve" smooth="yes"/>
      <point x="1762" y="1793"/>
      <point x="1704" y="1845"/>
      <point x="1694" y="1913" type="curve" smooth="yes"/>
      <point x="1690" y="1938"/>
      <point x="1675" y="2029"/>
      <point x="1642" y="2109" type="curve"/>
      <point x="1578" y="2218"/>
      <point x="1453" y="2310"/>
      <point x="1288" y="2354" type="curve"/>
      <point x="1268" y="1482" type="line"/>
      <point x="1760" y="1437"/>
      <point x="2141" y="1092"/>
      <point x="2141" y="673" type="curve" smooth="yes"/>
      <point x="2141" y="258"/>
      <point x="1757" y="-106"/>
      <point x="1231" y="-138" type="curve"/>
      <point x="1228" y="-283" type="line" smooth="yes"/>
      <point x="1226" y="-359"/>
      <point x="1164" y="-420"/>
      <point x="1088" y="-420" type="curve" smooth="yes"/>
      <point x="1011" y="-420"/>
      <point x="948" y="-357"/>
      <point x="948" y="-280" type="curve" smooth="yes"/>
      <point x="948" y="-278"/>
      <point x="948" y="-278"/>
      <point x="952" y="-122" type="curve"/>
      <point x="813" y="-97"/>
      <point x="321" y="24"/>
      <point x="193" y="525" type="curve" smooth="yes"/>
      <point x="144" y="716" type="line" smooth="yes"/>
      <point x="141" y="727"/>
      <point x="140" y="738"/>
    </contour>
    <contour>
      <point x="484" y="1933" type="curve" smooth="yes"/>
      <point x="484" y="1723"/>
      <point x="693" y="1530"/>
      <point x="989" y="1493" type="curve"/>
      <point x="1009" y="2376" type="line"/>
      <point x="714" y="2347"/>
      <point x="484" y="2157"/>
    </contour>
    <contour>
      <point x="1238" y="143" type="line"/>
      <point x="1587" y="173"/>
      <point x="1861" y="401"/>
      <point x="1861" y="673" type="curve" smooth="yes"/>
      <point x="1861" y="938"/>
      <point x="1599" y="1162"/>
      <point x="1262" y="1201" type="curve"/>
    </contour>
  </outline>
</glyph>
<glyph name="percent" format="2">
  <advance width="3430"/>
  <unicode hex="0025"/>
  <outline>
    <contour>
      <point x="140" y="1851" type="curve" smooth="yes"/>
      <point x="140" y="2301"/>
      <point x="417" y="2660"/>
      <point x="761" y="2660" type="curve" smooth="yes"/>
      <point x="1105" y="2660"/>
      <point x="1382" y="2301"/>
      <point x="1382" y="1851" type="curve" smooth="yes"/>
      <point x="1382" y="1401"/>
      <point x="1105" y="1042"/>
      <point x="761" y="1042" type="curve" smooth="yes"/>
      <point x="417" y="1042"/>
      <point x="140" y="1401"/>
    </contour>
    <contour>
      <point x="140" y="0" type="curve" smooth="yes"/>
      <point x="140" y="39"/>
      <point x="156" y="74"/>
      <point x="181" y="99" type="curve" smooth="yes"/>
      <point x="2701" y="2619" type="line" smooth="yes"/>
      <point x="2726" y="2644"/>
      <point x="2761" y="2660"/>
      <point x="2800" y="2660" type="curve" smooth="yes"/>
      <point x="2877" y="2660"/>
      <point x="2940" y="2597"/>
      <point x="2940" y="2520" type="curve" smooth="yes"/>
      <point x="2940" y="2481"/>
      <point x="2924" y="2446"/>
      <point x="2899" y="2421" type="curve" smooth="yes"/>
      <point x="379" y="-99" type="line" smooth="yes"/>
      <point x="354" y="-124"/>
      <point x="319" y="-140"/>
      <point x="280" y="-140" type="curve" smooth="yes"/>
      <point x="203" y="-140"/>
      <point x="140" y="-77"/>
    </contour>
    <contour>
      <point x="420" y="1851" type="curve" smooth="yes"/>
      <point x="420" y="1559"/>
      <point x="581" y="1322"/>
      <point x="761" y="1322" type="curve" smooth="yes"/>
      <point x="941" y="1322"/>
      <point x="1102" y="1559"/>
      <point x="1102" y="1851" type="curve" smooth="yes"/>
      <point x="1102" y="2143"/>
      <point x="941" y="2380"/>
      <point x="761" y="2380" type="curve" smooth="yes"/>
      <point x="581" y="2380"/>
      <point x="420" y="2143"/>
    </contour>
    <contour>
      <point x="1698" y="669" type="curve" smooth="yes"/>
      <point x="1698" y="1119"/>
      <point x="1975" y="1478"/>
      <point x="2319" y="1478" type="curve" smooth="yes"/>
      <point x="2663" y="1478"/>
      <point x="2940" y="1119"/>
      <point x="2940" y="669" type="curve" smooth="yes"/>
      <point x="2940" y="219"/>
      <point x="2663" y="-140"/>
      <point x="2319" y="-140" type="curve" smooth="yes"/>
      <point x="1975" y="-140"/>
      <point x="1698" y="219"/>
    </contour>
    <contour>
      <point x="1978" y="669" type="curve" smooth="yes"/>
      <point x="1978" y="377"/>
      <point x="2139" y="140"/>
      <point x="2319" y="140" type="curve" smooth="yes"/>
      <point x="2499" y="140"/>
      <point x="2660" y="377"/>
      <point x="2660" y="669" type="curve" smooth="yes"/>
      <point x="2660" y="961"/>
      <point x="2499" y="1198"/>
      <point x="2319" y="1198" type="curve" smooth="yes"/>
      <point x="2139" y="1198"/>
      <point x="1978" y="961"/>
    </contour>
  </outline>
</glyph>
<glyph name="ampersand" format="2">
  <advance width="2878"/>
  <unicode hex="0026"/>
  <outline>
    <contour>
      <point x="1710" y="265" type="curve"/>
      <point x="1597" y="32"/>
      <point x="1433" y="-140"/>
      <point x="1044" y="-140" type="curve" smooth="yes"/>
      <point x="582" y="-140"/>
      <point x="140" y="207"/>
      <point x="140" y="668" type="curve" smooth="yes"/>
      <point x="140" y="1086"/>
      <point x="484" y="1343"/>
      <point x="750" y="1510" type="curve"/>
      <point x="690" y="1651"/>
      <point x="610" y="1874"/>
      <point x="610" y="2072" type="curve" smooth="yes"/>
      <point x="610" y="2406"/>
      <point x="810" y="2660"/>
      <point x="1080" y="2660" type="curve" smooth="yes"/>
      <point x="1390" y="2660"/>
      <point x="1634" y="2427"/>
      <point x="1634" y="2132" type="curve" smooth="yes"/>
      <point x="1634" y="1834"/>
      <point x="1363" y="1570"/>
      <point x="1111" y="1403" type="curve"/>
      <point x="1195" y="1253"/>
      <point x="1348" y="1027"/>
      <point x="1610" y="752" type="curve"/>
      <point x="1670" y="888"/>
      <point x="1729" y="997"/>
      <point x="1795" y="1097" type="curve" smooth="yes"/>
      <point x="1820" y="1135"/>
      <point x="1863" y="1160"/>
      <point x="1912" y="1160" type="curve" smooth="yes"/>
      <point x="1989" y="1160"/>
      <point x="2052" y="1097"/>
      <point x="2052" y="1020" type="curve" smooth="yes"/>
      <point x="2052" y="927"/>
      <point x="1991" y="950"/>
      <point x="1825" y="540" type="curve"/>
      <point x="1968" y="406"/>
      <point x="2136" y="261"/>
      <point x="2333" y="111" type="curve" smooth="yes"/>
      <point x="2333" y="110"/>
      <point x="2388" y="75"/>
      <point x="2388" y="-0" type="curve" smooth="yes"/>
      <point x="2388" y="-77"/>
      <point x="2325" y="-140"/>
      <point x="2248" y="-140" type="curve" smooth="yes"/>
      <point x="2216" y="-140"/>
      <point x="2187" y="-129"/>
      <point x="2163" y="-111" type="curve" smooth="yes"/>
      <point x="1993" y="19"/>
      <point x="1842" y="145"/>
    </contour>
    <contour>
      <point x="420" y="668" type="curve" smooth="yes"/>
      <point x="420" y="364"/>
      <point x="738" y="140"/>
      <point x="1044" y="140" type="curve" smooth="yes"/>
      <point x="1330" y="140"/>
      <point x="1400" y="247"/>
      <point x="1494" y="470" type="curve"/>
      <point x="1401" y="563"/>
      <point x="1081" y="888"/>
      <point x="872" y="1256" type="curve"/>
      <point x="598" y="1081"/>
      <point x="420" y="904"/>
    </contour>
    <contour>
      <point x="991" y="1660" type="curve"/>
      <point x="1069" y="1715"/>
      <point x="1354" y="1927"/>
      <point x="1354" y="2132" type="curve" smooth="yes"/>
      <point x="1354" y="2275"/>
      <point x="1232" y="2380"/>
      <point x="1080" y="2380" type="curve" smooth="yes"/>
      <point x="965" y="2380"/>
      <point x="890" y="2234"/>
      <point x="890" y="2072" type="curve" smooth="yes"/>
      <point x="890" y="2009"/>
      <point x="904" y="1876"/>
    </contour>
  </outline>
</glyph>
<glyph name="quotesingle" format="2">
  <advance width="1050"/>
  <unicode hex="0027"/>
  <outline>
    <contour>
      <point x="140" y="2380" type="curve" smooth="yes"/>
      <point x="140" y="2450" type="line" smooth="yes"/>
      <point x="140" y="2566"/>
      <point x="233" y="2660"/>
      <point x="350" y="2660" type="curve" smooth="yes"/>
      <point x="467" y="2660"/>
      <point x="560" y="2566"/>
      <point x="560" y="2450" type="curve" smooth="yes"/>
      <point x="560" y="2380" type="line" smooth="yes"/>
      <point x="560" y="2368"/>
      <point x="559" y="2357"/>
      <point x="556" y="2346" type="curve" smooth="yes"/>
      <point x="486" y="2066" type="line" smooth="yes"/>
      <point x="471" y="2005"/>
      <point x="415" y="1960"/>
      <point x="350" y="1960" type="curve" smooth="yes"/>
      <point x="285" y="1960"/>
      <point x="230" y="2004"/>
      <point x="214" y="2066" type="curve" smooth="yes"/>
      <point x="144" y="2346" type="line" smooth="yes"/>
      <point x="141" y="2357"/>
      <point x="140" y="2368"/>
    </contour>
  </outline>
</glyph>
<glyph name="parenleft" format="2">
  <advance width="1750"/>
  <unicode hex="0028"/>
  <outline>
    <contour>
      <point x="140" y="1260" type="curve" smooth="yes"/>
      <point x="140" y="2079"/>
      <point x="519" y="2777"/>
      <point x="1057" y="3048" type="curve" smooth="yes"/>
      <point x="1076" y="3057"/>
      <point x="1097" y="3063"/>
      <point x="1120" y="3063" type="curve" smooth="yes"/>
      <point x="1197" y="3063"/>
      <point x="1260" y="3000"/>
      <point x="1260" y="2923" type="curve" smooth="yes"/>
      <point x="1260" y="2870"/>
      <point x="1231" y="2822"/>
      <point x="1183" y="2798" type="curve" smooth="yes"/>
      <point x="742" y="2577"/>
      <point x="420" y="1971"/>
      <point x="420" y="1260" type="curve" smooth="yes"/>
      <point x="420" y="551"/>
      <point x="741" y="-56"/>
      <point x="1183" y="-278" type="curve" smooth="yes"/>
      <point x="1229" y="-301"/>
      <point x="1260" y="-348"/>
      <point x="1260" y="-403" type="curve" smooth="yes"/>
      <point x="1260" y="-480"/>
      <point x="1197" y="-543"/>
      <point x="1120" y="-543" type="curve" smooth="yes"/>
      <point x="1097" y="-543"/>
      <point x="1076" y="-537"/>
      <point x="1057" y="-528" type="curve" smooth="yes"/>
      <point x="518" y="-257"/>
      <point x="140" y="441"/>
    </contour>
  </outline>
</glyph>
<glyph name="parenright" format="2">
  <advance width="1750"/>
  <unicode hex="0029"/>
  <outline>
    <contour>
      <point x="140" y="-403" type="curve" smooth="yes"/>
      <point x="140" y="-350"/>
      <point x="169" y="-302"/>
      <point x="217" y="-278" type="curve" smooth="yes"/>
      <point x="658" y="-57"/>
      <point x="980" y="549"/>
      <point x="980" y="1260" type="curve" smooth="yes"/>
      <point x="980" y="1969"/>
      <point x="659" y="2576"/>
      <point x="217" y="2798" type="curve" smooth="yes"/>
      <point x="171" y="2821"/>
      <point x="140" y="2868"/>
      <point x="140" y="2923" type="curve" smooth="yes"/>
      <point x="140" y="3000"/>
      <point x="203" y="3063"/>
      <point x="280" y="3063" type="curve" smooth="yes"/>
      <point x="303" y="3063"/>
      <point x="324" y="3058"/>
      <point x="343" y="3048" type="curve" smooth="yes"/>
      <point x="882" y="2777"/>
      <point x="1260" y="2079"/>
      <point x="1260" y="1260" type="curve" smooth="yes"/>
      <point x="1260" y="441"/>
      <point x="881" y="-257"/>
      <point x="343" y="-528" type="curve" smooth="yes"/>
      <point x="324" y="-538"/>
      <point x="303" y="-543"/>
      <point x="280" y="-543" type="curve" smooth="yes"/>
      <point x="203" y="-543"/>
      <point x="140" y="-480"/>
    </contour>
  </outline>
</glyph>
<glyph name="asterisk" format="2">
  <advance width="2054"/>
  <unicode hex="002A"/>
  <outline>
    <contour>
      <point x="385" y="1517" type="curve" smooth="yes"/>
      <point x="386" y="1518"/>
      <point x="467" y="1631"/>
      <point x="624" y="1846" type="curve"/>
      <point x="237" y="1972" type="line" smooth="yes"/>
      <point x="181" y="1990"/>
      <point x="140" y="2043"/>
      <point x="140" y="2105" type="curve" smooth="yes"/>
      <point x="140" y="2182"/>
      <point x="203" y="2245"/>
      <point x="280" y="2245" type="curve" smooth="yes"/>
      <point x="295" y="2245"/>
      <point x="309" y="2243"/>
      <point x="323" y="2238" type="curve"/>
      <point x="710" y="2113" type="line"/>
      <point x="711" y="2520" type="line" smooth="yes"/>
      <point x="711" y="2597"/>
      <point x="774" y="2660"/>
      <point x="851" y="2660" type="curve" smooth="yes"/>
      <point x="928" y="2660"/>
      <point x="991" y="2597"/>
      <point x="991" y="2520" type="curve" smooth="yes"/>
      <point x="991" y="2112" type="line"/>
      <point x="1381" y="2238" type="line" smooth="yes"/>
      <point x="1395" y="2242"/>
      <point x="1409" y="2245"/>
      <point x="1424" y="2245" type="curve" smooth="yes"/>
      <point x="1501" y="2245"/>
      <point x="1564" y="2182"/>
      <point x="1564" y="2105" type="curve" smooth="yes"/>
      <point x="1564" y="2043"/>
      <point x="1523" y="1990"/>
      <point x="1467" y="1972" type="curve" smooth="yes"/>
      <point x="1079" y="1846" type="line"/>
      <point x="1317" y="1517" type="line" smooth="yes"/>
      <point x="1334" y="1494"/>
      <point x="1344" y="1466"/>
      <point x="1344" y="1435" type="curve" smooth="yes"/>
      <point x="1344" y="1358"/>
      <point x="1281" y="1295"/>
      <point x="1204" y="1295" type="curve" smooth="yes"/>
      <point x="1157" y="1295"/>
      <point x="1116" y="1318"/>
      <point x="1091" y="1353" type="curve" smooth="yes"/>
      <point x="851" y="1681" type="line"/>
      <point x="611" y="1352" type="line" smooth="yes"/>
      <point x="586" y="1317"/>
      <point x="544" y="1295"/>
      <point x="498" y="1295" type="curve" smooth="yes"/>
      <point x="421" y="1295"/>
      <point x="358" y="1358"/>
      <point x="358" y="1435" type="curve" smooth="yes"/>
      <point x="358" y="1466"/>
      <point x="368" y="1494"/>
    </contour>
  </outline>
</glyph>
<glyph name="comma" format="2">
  <advance width="1120"/>
  <unicode hex="002C"/>
  <outline>
    <contour>
      <point x="114" y="-210" type="curve" smooth="yes"/>
      <point x="114" y="-168"/>
      <point x="132" y="-129"/>
      <point x="165" y="-102" type="curve" smooth="yes"/>
      <point x="167" y="-100"/>
      <point x="213" y="-61"/>
      <point x="260" y="-1" type="curve"/>
      <point x="188" y="42"/>
      <point x="140" y="120"/>
      <point x="140" y="210" type="curve" smooth="yes"/>
      <point x="140" y="345"/>
      <point x="250" y="455"/>
      <point x="385" y="455" type="curve" smooth="yes"/>
      <point x="520" y="455"/>
      <point x="630" y="345"/>
      <point x="630" y="210" type="curve" smooth="yes"/>
      <point x="630" y="-31"/>
      <point x="392" y="-350"/>
      <point x="254" y="-350" type="curve" smooth="yes"/>
      <point x="177" y="-350"/>
      <point x="114" y="-287"/>
    </contour>
  </outline>
</glyph>
<glyph name="hyphen" format="2">
  <advance width="2110"/>
  <unicode hex="002D"/>
  <outline>
    <contour>
      <point x="140" y="1339" type="curve" smooth="yes"/>
      <point x="140" y="1416"/>
      <point x="203" y="1479"/>
      <point x="280" y="1479" type="curve" smooth="yes"/>
      <point x="1480" y="1479" type="line" smooth="yes"/>
      <point x="1557" y="1479"/>
      <point x="1620" y="1416"/>
      <point x="1620" y="1339" type="curve" smooth="yes"/>
      <point x="1620" y="1262"/>
      <point x="1557" y="1199"/>
      <point x="1480" y="1199" type="curve" smooth="yes"/>
      <point x="280" y="1199" type="line" smooth="yes"/>
      <point x="203" y="1199"/>
      <point x="140" y="1262"/>
    </contour>
  </outline>
</glyph>
<glyph name="slash" format="2">
  <advance width="2540"/>
  <unicode hex="002F"/>
  <outline>
    <contour>
      <point x="140" y="-140" type="curve" smooth="yes"/>
      <point x="140" y="-114"/>
      <point x="147" y="-91"/>
      <point x="159" y="-70" type="curve" smooth="yes"/>
      <point x="1789" y="2731" type="line" smooth="yes"/>
      <point x="1813" y="2773"/>
      <point x="1858" y="2800"/>
      <point x="1910" y="2800" type="curve" smooth="yes"/>
      <point x="1987" y="2800"/>
      <point x="2050" y="2737"/>
      <point x="2050" y="2660" type="curve" smooth="yes"/>
      <point x="2050" y="2634"/>
      <point x="2043" y="2611"/>
      <point x="2031" y="2590" type="curve" smooth="yes"/>
      <point x="401" y="-211" type="line" smooth="yes"/>
      <point x="377" y="-252"/>
      <point x="332" y="-280"/>
      <point x="280" y="-280" type="curve" smooth="yes"/>
      <point x="203" y="-280"/>
      <point x="140" y="-217"/>
    </contour>
  </outline>
</glyph>
<glyph name="zero" format="2">
  <advance width="2720"/>
  <unicode hex="0030"/>
  <outline>
    <contour>
      <point x="140" y="1260" type="curve" smooth="yes"/>
      <point x="140" y="2036"/>
      <point x="606" y="2660"/>
      <point x="1185" y="2660" type="curve" smooth="yes"/>
      <point x="1764" y="2660"/>
      <point x="2230" y="2036"/>
      <point x="2230" y="1260" type="curve" smooth="yes"/>
      <point x="2230" y="484"/>
      <point x="1764" y="-140"/>
      <point x="1185" y="-140" type="curve" smooth="yes"/>
      <point x="606" y="-140"/>
      <point x="140" y="484"/>
    </contour>
    <contour>
      <point x="420" y="1260" type="curve" smooth="yes"/>
      <point x="420" y="644"/>
      <point x="769" y="140"/>
      <point x="1185" y="140" type="curve" smooth="yes"/>
      <point x="1601" y="140"/>
      <point x="1950" y="644"/>
      <point x="1950" y="1260" type="curve" smooth="yes"/>
      <point x="1950" y="1876"/>
      <point x="1601" y="2380"/>
      <point x="1185" y="2380" type="curve" smooth="yes"/>
      <point x="769" y="2380"/>
      <point x="420" y="1876"/>
    </contour>
  </outline>
</glyph>
<glyph name="two" format="2">
  <advance width="2540"/>
  <unicode hex="0032"/>
  <outline>
    <contour>
      <point x="140" y="0" type="curve" smooth="yes"/>
      <point x="140" y="2"/>
      <point x="140" y="3"/>
      <point x="140" y="5" type="curve" smooth="yes"/>
      <point x="170" y="856"/>
      <point x="672" y="1145"/>
      <point x="1170" y="1432" type="curve" smooth="yes"/>
      <point x="1509" y="1627"/>
      <point x="1629" y="1699"/>
      <point x="1629" y="1965" type="curve" smooth="yes"/>
      <point x="1629" y="2194"/>
      <point x="1349" y="2381"/>
      <point x="1010" y="2381" type="curve" smooth="yes"/>
      <point x="706" y="2381"/>
      <point x="453" y="2223"/>
      <point x="437" y="2043" type="curve" smooth="yes"/>
      <point x="437" y="2043"/>
      <point x="422" y="1866"/>
      <point x="420" y="1837" type="curve" smooth="yes"/>
      <point x="416" y="1763"/>
      <point x="355" y="1704"/>
      <point x="280" y="1704" type="curve" smooth="yes"/>
      <point x="203" y="1704"/>
      <point x="140" y="1767"/>
      <point x="140" y="1844" type="curve" smooth="yes"/>
      <point x="140" y="1845" type="line" smooth="yes"/>
      <point x="140" y="1851"/>
      <point x="140" y="1851"/>
      <point x="159" y="2067" type="curve" smooth="yes"/>
      <point x="188" y="2394"/>
      <point x="546" y="2661"/>
      <point x="1010" y="2661" type="curve" smooth="yes"/>
      <point x="1511" y="2661"/>
      <point x="1909" y="2354"/>
      <point x="1909" y="1965" type="curve" smooth="yes"/>
      <point x="1909" y="1535"/>
      <point x="1663" y="1392"/>
      <point x="1310" y="1189" type="curve" smooth="yes"/>
      <point x="856" y="927"/>
      <point x="500" y="720"/>
      <point x="431" y="140" type="curve"/>
      <point x="1910" y="140" type="line" smooth="yes"/>
      <point x="1987" y="140"/>
      <point x="2050" y="77"/>
      <point x="2050" y="0" type="curve" smooth="yes"/>
      <point x="2050" y="-77"/>
      <point x="1987" y="-140"/>
      <point x="1910" y="-140" type="curve" smooth="yes"/>
      <point x="280" y="-140" type="line" smooth="yes"/>
      <point x="202" y="-140"/>
      <point x="140" y="-77"/>
    </contour>
  </outline>
</glyph>
<glyph name="three" format="2">
  <advance width="2665"/>
  <unicode hex="0033"/>
  <outline>
    <contour>
      <point x="1883" y="2520" type="curve" smooth="yes"/>
      <point x="1883" y="2511"/>
      <point x="1843" y="2119"/>
      <point x="1402" y="1703" type="curve"/>
      <point x="1810" y="1679"/>
      <point x="2175" y="1337"/>
      <point x="2175" y="836" type="curve" smooth="yes"/>
      <point x="2175" y="294"/>
      <point x="1755" y="-140"/>
      <point x="1155" y="-140" type="curve" smooth="yes"/>
      <point x="947" y="-140"/>
      <point x="468" y="-84"/>
      <point x="246" y="401" type="curve" smooth="yes"/>
      <point x="212" y="476"/>
      <point x="140" y="636"/>
      <point x="140" y="675" type="curve" smooth="yes"/>
      <point x="140" y="752"/>
      <point x="203" y="815"/>
      <point x="280" y="815" type="curve" smooth="yes"/>
      <point x="338" y="815"/>
      <point x="388" y="780"/>
      <point x="409" y="730" type="curve" smooth="yes"/>
      <point x="501" y="516" type="line"/>
      <point x="570" y="367"/>
      <point x="742" y="140"/>
      <point x="1155" y="140" type="curve" smooth="yes"/>
      <point x="1595" y="140"/>
      <point x="1895" y="442"/>
      <point x="1895" y="836" type="curve" smooth="yes"/>
      <point x="1895" y="1209"/>
      <point x="1620" y="1424"/>
      <point x="1357" y="1424" type="curve" smooth="yes"/>
      <point x="983" y="1424"/>
      <point x="1032" y="1360"/>
      <point x="935" y="1360" type="curve" smooth="yes"/>
      <point x="857" y="1360"/>
      <point x="795" y="1423"/>
      <point x="795" y="1500" type="curve" smooth="yes"/>
      <point x="795" y="1519"/>
      <point x="800" y="1573"/>
      <point x="852" y="1612" type="curve" smooth="yes"/>
      <point x="1275" y="1927"/>
      <point x="1453" y="2134"/>
      <point x="1551" y="2380" type="curve"/>
      <point x="343" y="2380" type="line" smooth="yes"/>
      <point x="266" y="2380"/>
      <point x="203" y="2443"/>
      <point x="203" y="2520" type="curve" smooth="yes"/>
      <point x="203" y="2597"/>
      <point x="266" y="2660"/>
      <point x="343" y="2660" type="curve" smooth="yes"/>
      <point x="1743" y="2660" type="line" smooth="yes"/>
      <point x="1821" y="2660"/>
      <point x="1883" y="2596"/>
    </contour>
  </outline>
</glyph>
<glyph name="four" format="2">
  <advance width="2800"/>
  <unicode hex="0034"/>
  <outline>
    <contour>
      <point x="140" y="1145" type="line" smooth="yes"/>
      <point x="140" y="1176"/>
      <point x="150" y="1206"/>
      <point x="169" y="1230" type="curve" smooth="yes"/>
      <point x="1229" y="2605" type="line" smooth="yes"/>
      <point x="1255" y="2639"/>
      <point x="1297" y="2660"/>
      <point x="1340" y="2660" type="curve" smooth="yes"/>
      <point x="1645" y="2660" type="line" smooth="yes"/>
      <point x="1722" y="2660"/>
      <point x="1785" y="2597"/>
      <point x="1785" y="2520" type="curve" smooth="yes"/>
      <point x="1785" y="1028" type="line"/>
      <point x="2170" y="1028" type="line" smooth="yes"/>
      <point x="2247" y="1028"/>
      <point x="2310" y="965"/>
      <point x="2310" y="888" type="curve" smooth="yes"/>
      <point x="2310" y="811"/>
      <point x="2247" y="748"/>
      <point x="2170" y="748" type="curve" smooth="yes"/>
      <point x="1785" y="748" type="line"/>
      <point x="1785" y="0" type="line" smooth="yes"/>
      <point x="1785" y="-77"/>
      <point x="1722" y="-140"/>
      <point x="1645" y="-140" type="curve" smooth="yes"/>
      <point x="1568" y="-140"/>
      <point x="1505" y="-77"/>
      <point x="1505" y="0" type="curve" smooth="yes"/>
      <point x="1505" y="748" type="line"/>
      <point x="280" y="748" type="line" smooth="yes"/>
      <point x="203" y="748"/>
      <point x="140" y="811"/>
      <point x="140" y="888" type="curve" smooth="yes"/>
    </contour>
    <contour>
      <point x="420" y="1028" type="line"/>
      <point x="1505" y="1028" type="line"/>
      <point x="1505" y="2380" type="line"/>
      <point x="1409" y="2380" type="line"/>
      <point x="420" y="1097" type="line"/>
    </contour>
  </outline>
</glyph>
<glyph name="five" format="2">
  <advance width="2535"/>
  <unicode hex="0035"/>
  <outline>
    <contour>
      <point x="140" y="502" type="curve"/>
      <point x="140" y="503" type="line"/>
      <point x="140" y="580"/>
      <point x="203" y="643"/>
      <point x="280" y="643" type="curve" smooth="yes"/>
      <point x="352" y="643"/>
      <point x="367" y="622"/>
      <point x="452" y="500" type="curve" smooth="yes"/>
      <point x="601" y="287"/>
      <point x="813" y="140"/>
      <point x="1065" y="140" type="curve" smooth="yes"/>
      <point x="1452" y="140"/>
      <point x="1765" y="453"/>
      <point x="1765" y="840" type="curve" smooth="yes"/>
      <point x="1765" y="1227"/>
      <point x="1452" y="1540"/>
      <point x="1065" y="1540" type="curve" smooth="yes"/>
      <point x="835" y="1540"/>
      <point x="618" y="1421"/>
      <point x="492" y="1242" type="curve" smooth="yes"/>
      <point x="482" y="1228"/>
      <point x="444" y="1182"/>
      <point x="377" y="1182" type="curve" smooth="yes"/>
      <point x="300" y="1182"/>
      <point x="237" y="1245"/>
      <point x="237" y="1322" type="curve" smooth="yes"/>
      <point x="237" y="1329"/>
      <point x="237" y="1336"/>
      <point x="238" y="1342" type="curve" smooth="yes"/>
      <point x="406" y="2540" type="line" smooth="yes"/>
      <point x="416" y="2609"/>
      <point x="475" y="2660"/>
      <point x="545" y="2660" type="curve" smooth="yes"/>
      <point x="1665" y="2660" type="line" smooth="yes"/>
      <point x="1742" y="2660"/>
      <point x="1805" y="2597"/>
      <point x="1805" y="2520" type="curve" smooth="yes"/>
      <point x="1805" y="2443"/>
      <point x="1742" y="2380"/>
      <point x="1665" y="2380" type="curve" smooth="yes"/>
      <point x="667" y="2380" type="line"/>
      <point x="569" y="1684" type="line"/>
      <point x="716" y="1770"/>
      <point x="887" y="1820"/>
      <point x="1065" y="1820" type="curve" smooth="yes"/>
      <point x="1606" y="1820"/>
      <point x="2045" y="1381"/>
      <point x="2045" y="840" type="curve" smooth="yes"/>
      <point x="2045" y="299"/>
      <point x="1606" y="-140"/>
      <point x="1065" y="-140" type="curve" smooth="yes"/>
      <point x="695" y="-140"/>
      <point x="407" y="78"/>
      <point x="223" y="340" type="curve" smooth="yes"/>
      <point x="165" y="422" type="line" smooth="yes"/>
      <point x="149" y="445"/>
      <point x="140" y="473"/>
    </contour>
  </outline>
</glyph>
<glyph name="six" format="2">
  <advance width="2577"/>
  <unicode hex="0036"/>
  <outline>
    <contour>
      <point x="140" y="1303" type="curve" smooth="yes"/>
      <point x="140" y="1538"/>
      <point x="175" y="2022"/>
      <point x="536" y="2379" type="curve" smooth="yes"/>
      <point x="742" y="2583"/>
      <point x="931" y="2661"/>
      <point x="1239" y="2661" type="curve" smooth="yes"/>
      <point x="1300" y="2661"/>
      <point x="1700" y="2648"/>
      <point x="1933" y="2322" type="curve" smooth="yes"/>
      <point x="1937" y="2316"/>
      <point x="1937" y="2316"/>
      <point x="2035" y="2144" type="curve" smooth="yes"/>
      <point x="2047" y="2123"/>
      <point x="2053" y="2100"/>
      <point x="2053" y="2075" type="curve" smooth="yes"/>
      <point x="2053" y="1998"/>
      <point x="1990" y="1935"/>
      <point x="1913" y="1935" type="curve" smooth="yes"/>
      <point x="1861" y="1935"/>
      <point x="1815" y="1964"/>
      <point x="1791" y="2006" type="curve" smooth="yes"/>
      <point x="1701" y="2165" type="line"/>
      <point x="1639" y="2248"/>
      <point x="1476" y="2381"/>
      <point x="1239" y="2381" type="curve" smooth="yes"/>
      <point x="998" y="2381"/>
      <point x="881" y="2326"/>
      <point x="732" y="2179" type="curve" smooth="yes"/>
      <point x="646" y="2094"/>
      <point x="420" y="1846"/>
      <point x="420" y="1303" type="curve" smooth="yes"/>
      <point x="420" y="1266"/>
      <point x="421" y="1230"/>
      <point x="422" y="1195" type="curve"/>
      <point x="668" y="1540"/>
      <point x="982" y="1556"/>
      <point x="1159" y="1556" type="curve" smooth="yes"/>
      <point x="1664" y="1556"/>
      <point x="2087" y="1237"/>
      <point x="2087" y="687" type="curve" smooth="yes"/>
      <point x="2087" y="211"/>
      <point x="1707" y="-140"/>
      <point x="1186" y="-140" type="curve" smooth="yes"/>
      <point x="545" y="-140"/>
      <point x="140" y="389"/>
    </contour>
    <contour>
      <point x="496" y="721" type="curve"/>
      <point x="588" y="417"/>
      <point x="783" y="140"/>
      <point x="1186" y="140" type="curve" smooth="yes"/>
      <point x="1541" y="140"/>
      <point x="1807" y="357"/>
      <point x="1807" y="687" type="curve" smooth="yes"/>
      <point x="1807" y="1110"/>
      <point x="1471" y="1276"/>
      <point x="1159" y="1276" type="curve" smooth="yes"/>
      <point x="951" y="1276"/>
      <point x="682" y="1249"/>
    </contour>
  </outline>
</glyph>
<glyph name="seven" format="2">
  <advance width="2540"/>
  <unicode hex="0037"/>
  <outline>
    <contour>
      <point x="140" y="2520" type="curve" smooth="yes"/>
      <point x="140" y="2597"/>
      <point x="203" y="2660"/>
      <point x="280" y="2660" type="curve" smooth="yes"/>
      <point x="1910" y="2660" type="line" smooth="yes"/>
      <point x="1987" y="2660"/>
      <point x="2050" y="2597"/>
      <point x="2050" y="2520" type="curve" smooth="yes"/>
      <point x="2050" y="2310" type="line" smooth="yes"/>
      <point x="2050" y="2273"/>
      <point x="2035" y="2237"/>
      <point x="2009" y="2211" type="curve" smooth="yes"/>
      <point x="1624" y="1826"/>
      <point x="1050" y="1216"/>
      <point x="1050" y="0" type="curve" smooth="yes"/>
      <point x="1050" y="-77"/>
      <point x="987" y="-140"/>
      <point x="910" y="-140" type="curve" smooth="yes"/>
      <point x="833" y="-140"/>
      <point x="770" y="-77"/>
      <point x="770" y="0" type="curve" smooth="yes"/>
      <point x="770" y="1291"/>
      <point x="1375" y="1969"/>
      <point x="1770" y="2368" type="curve"/>
      <point x="1770" y="2380" type="line"/>
      <point x="280" y="2380" type="line" smooth="yes"/>
      <point x="203" y="2380"/>
      <point x="140" y="2443"/>
    </contour>
  </outline>
</glyph>
<glyph name="eight" format="2">
  <advance width="2590"/>
  <unicode hex="0038"/>
  <outline>
    <contour>
      <point x="1154" y="-141" type="curve" smooth="yes"/>
      <point x="616" y="-141"/>
      <point x="140" y="224"/>
      <point x="140" y="696" type="curve" smooth="yes"/>
      <point x="140" y="772"/>
      <point x="160" y="1166"/>
      <point x="560" y="1405" type="curve"/>
      <point x="450" y="1473"/>
      <point x="240" y="1643"/>
      <point x="240" y="1952" type="curve" smooth="yes"/>
      <point x="240" y="2345"/>
      <point x="615" y="2661"/>
      <point x="1088" y="2661" type="curve" smooth="yes"/>
      <point x="1568" y="2661"/>
      <point x="2000" y="2364"/>
      <point x="2000" y="1964" type="curve" smooth="yes"/>
      <point x="2000" y="1844"/>
      <point x="1965" y="1576"/>
      <point x="1679" y="1401" type="curve"/>
      <point x="1737" y="1366"/>
      <point x="2100" y="1127"/>
      <point x="2100" y="702" type="curve" smooth="yes"/>
      <point x="2100" y="256"/>
      <point x="1699" y="-141"/>
    </contour>
    <contour>
      <point x="1154" y="139" type="curve" smooth="yes"/>
      <point x="1545" y="139"/>
      <point x="1820" y="412"/>
      <point x="1820" y="702" type="curve" smooth="yes"/>
      <point x="1820" y="925"/>
      <point x="1616" y="1224"/>
      <point x="1234" y="1260" type="curve"/>
      <point x="1006" y="1260" type="line"/>
      <point x="605" y="1222"/>
      <point x="420" y="924"/>
      <point x="420" y="696" type="curve" smooth="yes"/>
      <point x="420" y="384"/>
      <point x="772" y="139"/>
    </contour>
    <contour>
      <point x="1088" y="2381" type="curve" smooth="yes"/>
      <point x="774" y="2381"/>
      <point x="520" y="2188"/>
      <point x="520" y="1952" type="curve" smooth="yes"/>
      <point x="520" y="1694.22"/>
      <point x="792.162" y="1537.63"/>
      <point x="1123.03" y="1537.63" type="curve" smooth="yes"/>
      <point x="1146.42" y="1537.63"/>
      <point x="1170.1" y="1538.42"/>
      <point x="1194" y="1540" type="curve" smooth="yes"/>
      <point x="1274" y="1545"/>
      <point x="1720" y="1592"/>
      <point x="1720" y="1964" type="curve" smooth="yes"/>
      <point x="1720" y="2195"/>
      <point x="1413" y="2381"/>
    </contour>
  </outline>
</glyph>
<glyph name="nine" format="2">
  <advance width="2577"/>
  <unicode hex="0039"/>
  <outline>
    <contour>
      <point x="140" y="1834" type="curve" smooth="yes"/>
      <point x="140" y="2310"/>
      <point x="520" y="2661"/>
      <point x="1041" y="2661" type="curve" smooth="yes"/>
      <point x="1682" y="2661"/>
      <point x="2087" y="2132"/>
      <point x="2087" y="1218" type="curve" smooth="yes"/>
      <point x="2087" y="983"/>
      <point x="2052" y="499"/>
      <point x="1691" y="142" type="curve" smooth="yes"/>
      <point x="1485" y="-62"/>
      <point x="1296" y="-140"/>
      <point x="988" y="-140" type="curve" smooth="yes"/>
      <point x="927" y="-140"/>
      <point x="527" y="-127"/>
      <point x="294" y="199" type="curve" smooth="yes"/>
      <point x="290" y="205"/>
      <point x="290" y="205"/>
      <point x="192" y="377" type="curve" smooth="yes"/>
      <point x="180" y="398"/>
      <point x="174" y="421"/>
      <point x="174" y="446" type="curve" smooth="yes"/>
      <point x="174" y="523"/>
      <point x="237" y="586"/>
      <point x="314" y="586" type="curve" smooth="yes"/>
      <point x="366" y="586"/>
      <point x="412" y="557"/>
      <point x="436" y="515" type="curve" smooth="yes"/>
      <point x="526" y="356" type="line"/>
      <point x="588" y="273"/>
      <point x="751" y="140"/>
      <point x="988" y="140" type="curve" smooth="yes"/>
      <point x="1229" y="140"/>
      <point x="1346" y="195"/>
      <point x="1495" y="342" type="curve" smooth="yes"/>
      <point x="1581" y="427"/>
      <point x="1807" y="675"/>
      <point x="1807" y="1218" type="curve" smooth="yes"/>
      <point x="1807" y="1255"/>
      <point x="1806" y="1291"/>
      <point x="1805" y="1326" type="curve"/>
      <point x="1559" y="981"/>
      <point x="1245" y="965"/>
      <point x="1068" y="965" type="curve" smooth="yes"/>
      <point x="563" y="965"/>
      <point x="140" y="1284"/>
    </contour>
    <contour>
      <point x="420" y="1834" type="curve" smooth="yes"/>
      <point x="420" y="1411"/>
      <point x="756" y="1245"/>
      <point x="1068" y="1245" type="curve" smooth="yes"/>
      <point x="1276" y="1245"/>
      <point x="1545" y="1272"/>
      <point x="1731" y="1800" type="curve"/>
      <point x="1639" y="2104"/>
      <point x="1444" y="2381"/>
      <point x="1041" y="2381" type="curve" smooth="yes"/>
      <point x="686" y="2381"/>
      <point x="420" y="2164"/>
    </contour>
  </outline>
</glyph>
<glyph name="colon" format="2">
  <advance width="1120"/>
  <unicode hex="003A"/>
  <outline>
    <contour>
      <point x="140" y="210" type="curve" smooth="yes"/>
      <point x="140" y="345"/>
      <point x="250" y="455"/>
      <point x="385" y="455" type="curve" smooth="yes"/>
      <point x="520" y="455"/>
      <point x="630" y="345"/>
      <point x="630" y="210" type="curve" smooth="yes"/>
      <point x="630" y="75"/>
      <point x="520" y="-35"/>
      <point x="385" y="-35" type="curve" smooth="yes"/>
      <point x="250" y="-35"/>
      <point x="140" y="75"/>
    </contour>
    <contour>
      <point x="140" y="1338" type="curve" smooth="yes"/>
      <point x="140" y="1473"/>
      <point x="250" y="1583"/>
      <point x="385" y="1583" type="curve" smooth="yes"/>
      <point x="520" y="1583"/>
      <point x="630" y="1473"/>
      <point x="630" y="1338" type="curve" smooth="yes"/>
      <point x="630" y="1203"/>
      <point x="520" y="1093"/>
      <point x="385" y="1093" type="curve" smooth="yes"/>
      <point x="250" y="1093"/>
      <point x="140" y="1203"/>
    </contour>
    <contour>
      <point x="350" y="210" type="line"/>
      <point x="385" y="175" type="line"/>
      <point x="420" y="210" type="line"/>
      <point x="385" y="245" type="line"/>
    </contour>
    <contour>
      <point x="350" y="1338" type="line"/>
      <point x="385" y="1303" type="line"/>
      <point x="420" y="1338" type="line"/>
      <point x="385" y="1373" type="line"/>
    </contour>
  </outline>
</glyph>
<glyph name="semicolon" format="2">
  <advance width="1120"/>
  <unicode hex="003B"/>
  <outline>
    <contour>
      <point x="140" y="204" type="curve" smooth="yes"/>
      <point x="140" y="362"/>
      <point x="263" y="455"/>
      <point x="385" y="455" type="curve" smooth="yes"/>
      <point x="520" y="455"/>
      <point x="630" y="345"/>
      <point x="630" y="210" type="curve" smooth="yes"/>
      <point x="630" y="-31"/>
      <point x="392" y="-350"/>
      <point x="254" y="-350" type="curve" smooth="yes"/>
      <point x="177" y="-350"/>
      <point x="114" y="-287"/>
      <point x="114" y="-210" type="curve" smooth="yes"/>
      <point x="114" y="-168"/>
      <point x="132" y="-129"/>
      <point x="165" y="-102" type="curve" smooth="yes"/>
      <point x="167" y="-100"/>
      <point x="214" y="-61"/>
      <point x="260" y="-1" type="curve"/>
      <point x="186" y="42"/>
      <point x="140" y="119"/>
    </contour>
    <contour>
      <point x="140" y="1338" type="curve" smooth="yes"/>
      <point x="140" y="1473"/>
      <point x="250" y="1583"/>
      <point x="385" y="1583" type="curve" smooth="yes"/>
      <point x="520" y="1583"/>
      <point x="630" y="1473"/>
      <point x="630" y="1338" type="curve" smooth="yes"/>
      <point x="630" y="1203"/>
      <point x="520" y="1093"/>
      <point x="385" y="1093" type="curve" smooth="yes"/>
      <point x="250" y="1093"/>
      <point x="140" y="1203"/>
    </contour>
    <contour>
      <point x="350" y="1338" type="line"/>
      <point x="385" y="1303" type="line"/>
      <point x="420" y="1338" type="line"/>
      <point x="385" y="1373" type="line"/>
    </contour>
  </outline>
</glyph>
<glyph name="less" format="2">
  <advance width="2110"/>
  <unicode hex="003C"/>
  <outline>
    <contour>
      <point x="140" y="1338" type="curve" smooth="yes"/>
      <point x="140" y="1396"/>
      <point x="176" y="1446"/>
      <point x="227" y="1467" type="curve" smooth="yes"/>
      <point x="1427" y="1964" type="line" smooth="yes"/>
      <point x="1444" y="1971"/>
      <point x="1461" y="1975"/>
      <point x="1480" y="1975" type="curve" smooth="yes"/>
      <point x="1557" y="1975"/>
      <point x="1620" y="1912"/>
      <point x="1620" y="1835" type="curve" smooth="yes"/>
      <point x="1620" y="1777"/>
      <point x="1585" y="1727"/>
      <point x="1534" y="1706" type="curve" smooth="yes"/>
      <point x="646" y="1338" type="line"/>
      <point x="1534" y="970" type="line" smooth="yes"/>
      <point x="1585" y="949"/>
      <point x="1620" y="899"/>
      <point x="1620" y="841" type="curve" smooth="yes"/>
      <point x="1620" y="764"/>
      <point x="1557" y="701"/>
      <point x="1480" y="701" type="curve" smooth="yes"/>
      <point x="1461" y="701"/>
      <point x="1444" y="705"/>
      <point x="1427" y="712" type="curve" smooth="yes"/>
      <point x="227" y="1208" type="line" smooth="yes"/>
      <point x="176" y="1229"/>
      <point x="140" y="1280"/>
    </contour>
  </outline>
</glyph>
<glyph name="equal" format="2">
  <advance width="2110"/>
  <unicode hex="003D"/>
  <outline>
    <contour>
      <point x="140" y="918" type="curve" smooth="yes"/>
      <point x="140" y="995"/>
      <point x="203" y="1058"/>
      <point x="280" y="1058" type="curve" smooth="yes"/>
      <point x="1480" y="1058" type="line" smooth="yes"/>
      <point x="1557" y="1058"/>
      <point x="1620" y="995"/>
      <point x="1620" y="918" type="curve" smooth="yes"/>
      <point x="1620" y="841"/>
      <point x="1557" y="778"/>
      <point x="1480" y="778" type="curve" smooth="yes"/>
      <point x="280" y="778" type="line" smooth="yes"/>
      <point x="203" y="778"/>
      <point x="140" y="841"/>
    </contour>
    <contour>
      <point x="140" y="1758" type="curve" smooth="yes"/>
      <point x="140" y="1835"/>
      <point x="203" y="1898"/>
      <point x="280" y="1898" type="curve" smooth="yes"/>
      <point x="1480" y="1898" type="line" smooth="yes"/>
      <point x="1557" y="1898"/>
      <point x="1620" y="1835"/>
      <point x="1620" y="1758" type="curve" smooth="yes"/>
      <point x="1620" y="1681"/>
      <point x="1557" y="1618"/>
      <point x="1480" y="1618" type="curve" smooth="yes"/>
      <point x="280" y="1618" type="line" smooth="yes"/>
      <point x="203" y="1618"/>
      <point x="140" y="1681"/>
    </contour>
  </outline>
</glyph>
<glyph name="greater" format="2">
  <advance width="2110"/>
  <unicode hex="003E"/>
  <outline>
    <contour>
      <point x="140" y="1835" type="curve" smooth="yes"/>
      <point x="140" y="1912"/>
      <point x="203" y="1975"/>
      <point x="280" y="1975" type="curve" smooth="yes"/>
      <point x="299" y="1975"/>
      <point x="317" y="1971"/>
      <point x="333" y="1964" type="curve" smooth="yes"/>
      <point x="1533" y="1467" type="line" smooth="yes"/>
      <point x="1542" y="1463"/>
      <point x="1620" y="1429"/>
      <point x="1620" y="1338" type="curve" smooth="yes"/>
      <point x="1620" y="1281"/>
      <point x="1586" y="1231"/>
      <point x="1533" y="1209" type="curve" smooth="yes"/>
      <point x="333" y="712" type="line" smooth="yes"/>
      <point x="317" y="705"/>
      <point x="299" y="701"/>
      <point x="280" y="701" type="curve" smooth="yes"/>
      <point x="203" y="701"/>
      <point x="140" y="764"/>
      <point x="140" y="841" type="curve" smooth="yes"/>
      <point x="140" y="899"/>
      <point x="175" y="949"/>
      <point x="226" y="970" type="curve" smooth="yes"/>
      <point x="1114" y="1338" type="line"/>
      <point x="226" y="1706" type="line" smooth="yes"/>
      <point x="175" y="1727"/>
      <point x="140" y="1777"/>
    </contour>
  </outline>
</glyph>
<glyph name="question" format="2">
  <advance width="2152"/>
  <unicode hex="003F"/>
  <outline>
    <contour>
      <point x="420" y="2018" type="curve" smooth="yes"/>
      <point x="420" y="1839"/>
      <point x="491" y="1836"/>
      <point x="491" y="1746" type="curve" smooth="yes"/>
      <point x="491" y="1669"/>
      <point x="427" y="1606"/>
      <point x="350" y="1606" type="curve" smooth="yes"/>
      <point x="298" y="1606"/>
      <point x="250" y="1634"/>
      <point x="226" y="1681" type="curve" smooth="yes"/>
      <point x="149" y="1828"/>
      <point x="140" y="1919"/>
      <point x="140" y="2018" type="curve" smooth="yes"/>
      <point x="140" y="2030"/>
      <point x="140" y="2042"/>
      <point x="140" y="2054" type="curve" smooth="yes"/>
      <point x="140" y="2389"/>
      <point x="478" y="2660"/>
      <point x="901" y="2660" type="curve" smooth="yes"/>
      <point x="1324" y="2660"/>
      <point x="1663" y="2389"/>
      <point x="1663" y="2054" type="curve" smooth="yes"/>
      <point x="1663" y="1519"/>
      <point x="1041" y="1290"/>
      <point x="1041" y="840" type="curve" smooth="yes"/>
      <point x="1041" y="763"/>
      <point x="978" y="700"/>
      <point x="901" y="700" type="curve" smooth="yes"/>
      <point x="824" y="700"/>
      <point x="761" y="763"/>
      <point x="761" y="840" type="curve" smooth="yes"/>
      <point x="761" y="1419"/>
      <point x="1383" y="1664"/>
      <point x="1383" y="2054" type="curve" smooth="yes"/>
      <point x="1383" y="2228"/>
      <point x="1165" y="2380"/>
      <point x="901" y="2380" type="curve" smooth="yes"/>
      <point x="636" y="2380"/>
      <point x="420" y="2228"/>
      <point x="420" y="2054" type="curve" smooth="yes"/>
      <point x="420" y="2041"/>
      <point x="420" y="2029"/>
    </contour>
    <contour>
      <point x="656" y="210" type="curve" smooth="yes"/>
      <point x="656" y="345"/>
      <point x="766" y="455"/>
      <point x="901" y="455" type="curve" smooth="yes"/>
      <point x="1036" y="455"/>
      <point x="1146" y="345"/>
      <point x="1146" y="210" type="curve" smooth="yes"/>
      <point x="1146" y="75"/>
      <point x="1036" y="-35"/>
      <point x="901" y="-35" type="curve" smooth="yes"/>
      <point x="766" y="-35"/>
      <point x="656" y="75"/>
    </contour>
    <contour>
      <point x="866" y="210" type="line"/>
      <point x="901" y="175" type="line"/>
      <point x="936" y="210" type="line"/>
      <point x="901" y="245" type="line"/>
    </contour>
  </outline>
</glyph>
<glyph name="at" format="2">
  <advance width="3639"/>
  <unicode hex="0040"/>
  <outline>
    <contour>
      <point x="1645" y="-70" type="curve" smooth="yes"/>
      <point x="2023" y="-70"/>
      <point x="2204" y="89"/>
      <point x="2285" y="89" type="curve" smooth="yes"/>
      <point x="2362" y="89"/>
      <point x="2425" y="26"/>
      <point x="2425" y="-51" type="curve" smooth="yes"/>
      <point x="2425" y="-102"/>
      <point x="2397" y="-149"/>
      <point x="2351" y="-174" type="curve" smooth="yes"/>
      <point x="2140" y="-286"/>
      <point x="1900" y="-350"/>
      <point x="1645" y="-350" type="curve" smooth="yes"/>
      <point x="816" y="-350"/>
      <point x="140" y="370"/>
      <point x="140" y="1260" type="curve" smooth="yes"/>
      <point x="140" y="2150"/>
      <point x="816" y="2870"/>
      <point x="1645" y="2870" type="curve" smooth="yes"/>
      <point x="2474" y="2870"/>
      <point x="3150" y="2150"/>
      <point x="3150" y="1260" type="curve" smooth="yes"/>
      <point x="3150" y="1019"/>
      <point x="3103" y="795"/>
      <point x="2992" y="612" type="curve" smooth="yes"/>
      <point x="2916" y="487"/>
      <point x="2719" y="234"/>
      <point x="2285" y="234" type="curve" smooth="yes"/>
      <point x="2208" y="234"/>
      <point x="2125" y="269"/>
      <point x="2065" y="334" type="curve"/>
      <point x="1983" y="283"/>
      <point x="1863" y="244"/>
      <point x="1675" y="244" type="curve" smooth="yes"/>
      <point x="1533" y="244"/>
      <point x="1045" y="274"/>
      <point x="1045" y="684" type="curve" smooth="yes"/>
      <point x="1045" y="1029"/>
      <point x="1284" y="1308"/>
      <point x="1975" y="1391" type="curve"/>
      <point x="1975" y="1484" type="line" smooth="yes"/>
      <point x="1975" y="1632"/>
      <point x="1871" y="1790"/>
      <point x="1665" y="1790" type="curve" smooth="yes"/>
      <point x="1434" y="1790"/>
      <point x="1354" y="1686"/>
      <point x="1322" y="1542" type="curve" smooth="yes"/>
      <point x="1308" y="1479"/>
      <point x="1252" y="1432"/>
      <point x="1185" y="1432" type="curve" smooth="yes"/>
      <point x="1108" y="1432"/>
      <point x="1045" y="1495"/>
      <point x="1045" y="1572" type="curve" smooth="yes"/>
      <point x="1045" y="1580"/>
      <point x="1090" y="2070"/>
      <point x="1665" y="2070" type="curve" smooth="yes"/>
      <point x="2020" y="2070"/>
      <point x="2255" y="1794"/>
      <point x="2255" y="1484" type="curve" smooth="yes"/>
      <point x="2255" y="1269" type="line" smooth="yes"/>
      <point x="2255" y="1267"/>
      <point x="2255" y="1266"/>
      <point x="2255" y="1264" type="curve" smooth="yes"/>
      <point x="2255" y="584" type="line" smooth="yes"/>
      <point x="2255" y="556"/>
      <point x="2261" y="521"/>
      <point x="2287" y="514" type="curve"/>
      <point x="2492" y="514"/>
      <point x="2870" y="604"/>
      <point x="2870" y="1260" type="curve" smooth="yes"/>
      <point x="2870" y="1992"/>
      <point x="2322" y="2590"/>
      <point x="1645" y="2590" type="curve" smooth="yes"/>
      <point x="968" y="2590"/>
      <point x="420" y="1992"/>
      <point x="420" y="1260" type="curve" smooth="yes"/>
      <point x="420" y="528"/>
      <point x="968" y="-70"/>
    </contour>
    <contour>
      <point x="1325" y="684" type="curve" smooth="yes"/>
      <point x="1325" y="540"/>
      <point x="1567" y="524"/>
      <point x="1675" y="524" type="curve" smooth="yes"/>
      <point x="1752" y="524"/>
      <point x="1914" y="533"/>
      <point x="1959" y="611" type="curve" smooth="yes"/>
      <point x="1968" y="626"/>
      <point x="1975" y="647"/>
      <point x="1975" y="684" type="curve" smooth="yes"/>
      <point x="1975" y="1109" type="line"/>
      <point x="1858" y="1093"/>
      <point x="1481" y="1037"/>
      <point x="1366" y="846" type="curve" smooth="yes"/>
      <point x="1341" y="804"/>
      <point x="1325" y="754"/>
    </contour>
  </outline>
</glyph>
<glyph name="A" format="2">
  <advance width="2701"/>
  <unicode hex="0041"/>
  <outline>
    <contour>
      <point x="140" y="-0" type="curve" smooth="yes"/>
      <point x="140" y="16"/>
      <point x="142" y="30"/>
      <point x="147" y="44" type="curve" smooth="yes"/>
      <point x="990" y="2564" type="line" smooth="yes"/>
      <point x="1009" y="2621"/>
      <point x="1063" y="2660"/>
      <point x="1123" y="2660" type="curve" smooth="yes"/>
      <point x="1228" y="2660" type="line" smooth="yes"/>
      <point x="1288" y="2660"/>
      <point x="1342" y="2622"/>
      <point x="1361" y="2565" type="curve" smooth="yes"/>
      <point x="2204" y="44" type="line" smooth="yes"/>
      <point x="2209" y="30"/>
      <point x="2211" y="16"/>
      <point x="2211" y="0" type="curve" smooth="yes"/>
      <point x="2211" y="-77"/>
      <point x="2148" y="-140"/>
      <point x="2071" y="-140" type="curve" smooth="yes"/>
      <point x="2009" y="-140"/>
      <point x="1957" y="-100"/>
      <point x="1938" y="-45" type="curve" smooth="yes"/>
      <point x="1938" y="-44" type="line" smooth="yes"/>
      <point x="1688" y="700" type="line"/>
      <point x="663" y="700" type="line"/>
      <point x="413" y="-45" type="line" smooth="yes"/>
      <point x="394" y="-100"/>
      <point x="342" y="-140"/>
      <point x="280" y="-140" type="curve" smooth="yes"/>
      <point x="203" y="-140"/>
      <point x="140" y="-77"/>
    </contour>
    <contour>
      <point x="755" y="980" type="line"/>
      <point x="1596" y="980" type="line"/>
      <point x="1176" y="2236" type="line"/>
    </contour>
    <contour>
      <point x="1938" y="-44" type="line"/>
      <point x="1938" y="-45" type="line"/>
    </contour>
  </outline>
</glyph>
<glyph name="B" format="2">
  <advance width="2527"/>
  <unicode hex="0042"/>
  <outline>
    <contour>
      <point x="140" y="0" type="curve" smooth="yes"/>
      <point x="140" y="2520" type="line" smooth="yes"/>
      <point x="140" y="2597"/>
      <point x="203" y="2660"/>
      <point x="280" y="2660" type="curve" smooth="yes"/>
      <point x="1228" y="2660" type="line" smooth="yes"/>
      <point x="1631" y="2660"/>
      <point x="1959" y="2332"/>
      <point x="1959" y="1929" type="curve" smooth="yes"/>
      <point x="1959" y="1692"/>
      <point x="1846" y="1481"/>
      <point x="1670" y="1347" type="curve"/>
      <point x="1891" y="1202"/>
      <point x="2037" y="952"/>
      <point x="2037" y="669" type="curve" smooth="yes"/>
      <point x="2037" y="223"/>
      <point x="1674" y="-140"/>
      <point x="1228" y="-140" type="curve" smooth="yes"/>
      <point x="280" y="-140" type="line" smooth="yes"/>
      <point x="203" y="-140"/>
      <point x="140" y="-77"/>
    </contour>
    <contour>
      <point x="420" y="140" type="line"/>
      <point x="1228" y="140" type="line" smooth="yes"/>
      <point x="1520" y="140"/>
      <point x="1757" y="377"/>
      <point x="1757" y="669" type="curve" smooth="yes"/>
      <point x="1757" y="961"/>
      <point x="1520" y="1198"/>
      <point x="1228" y="1198" type="curve" smooth="yes"/>
      <point x="420" y="1198" type="line"/>
    </contour>
    <contour>
      <point x="420" y="1478" type="line"/>
      <point x="1228" y="1478" type="line" smooth="yes"/>
      <point x="1477" y="1478"/>
      <point x="1679" y="1680"/>
      <point x="1679" y="1929" type="curve" smooth="yes"/>
      <point x="1679" y="2178"/>
      <point x="1477" y="2380"/>
      <point x="1228" y="2380" type="curve" smooth="yes"/>
      <point x="420" y="2380" type="line"/>
    </contour>
  </outline>
</glyph>
<glyph name="C" format="2">
  <advance width="2613"/>
  <unicode hex="0043"/>
  <outline>
    <contour>
      <point x="2123" y="760" type="curve" smooth="yes"/>
      <point x="2123" y="463"/>
      <point x="1838" y="-140"/>
      <point x="1185" y="-140" type="curve" smooth="yes"/>
      <point x="606" y="-140"/>
      <point x="140" y="484"/>
      <point x="140" y="1260" type="curve" smooth="yes"/>
      <point x="140" y="2036"/>
      <point x="606" y="2660"/>
      <point x="1185" y="2660" type="curve" smooth="yes"/>
      <point x="1876" y="2660"/>
      <point x="2090" y="1949"/>
      <point x="2090" y="1800" type="curve" smooth="yes"/>
      <point x="2090" y="1723"/>
      <point x="2027" y="1660"/>
      <point x="1950" y="1660" type="curve" smooth="yes"/>
      <point x="1881" y="1660"/>
      <point x="1824" y="1710"/>
      <point x="1812" y="1776" type="curve" smooth="yes"/>
      <point x="1758" y="2085"/>
      <point x="1549" y="2380"/>
      <point x="1185" y="2380" type="curve" smooth="yes"/>
      <point x="769" y="2380"/>
      <point x="420" y="1876"/>
      <point x="420" y="1260" type="curve" smooth="yes"/>
      <point x="420" y="644"/>
      <point x="769" y="140"/>
      <point x="1185" y="140" type="curve" smooth="yes"/>
      <point x="1554" y="140"/>
      <point x="1814" y="429"/>
      <point x="1844" y="772" type="curve" smooth="yes"/>
      <point x="1850" y="844"/>
      <point x="1910" y="900"/>
      <point x="1983" y="900" type="curve" smooth="yes"/>
      <point x="2060" y="900"/>
      <point x="2123" y="837"/>
    </contour>
  </outline>
</glyph>
<glyph name="D" format="2">
  <advance width="2513"/>
  <unicode hex="0044"/>
  <outline>
    <contour>
      <point x="140" y="0" type="curve" smooth="yes"/>
      <point x="140" y="2521" type="line" smooth="yes"/>
      <point x="140" y="2598"/>
      <point x="203" y="2661"/>
      <point x="280" y="2661" type="curve" smooth="yes"/>
      <point x="281" y="2661" type="line" smooth="yes"/>
      <point x="281" y="2661"/>
      <point x="479" y="2660"/>
      <point x="978" y="2660" type="curve" smooth="yes"/>
      <point x="1557" y="2660"/>
      <point x="2023" y="2036"/>
      <point x="2023" y="1260" type="curve" smooth="yes"/>
      <point x="2023" y="484"/>
      <point x="1557" y="-140"/>
      <point x="978" y="-140" type="curve" smooth="yes"/>
      <point x="280" y="-140" type="line" smooth="yes"/>
      <point x="203" y="-140"/>
      <point x="140" y="-77"/>
    </contour>
    <contour>
      <point x="420" y="140" type="line"/>
      <point x="978" y="140" type="line" smooth="yes"/>
      <point x="1394" y="140"/>
      <point x="1743" y="644"/>
      <point x="1743" y="1260" type="curve" smooth="yes"/>
      <point x="1743" y="1876"/>
      <point x="1394" y="2380"/>
      <point x="978" y="2380" type="curve" smooth="yes"/>
      <point x="712" y="2380"/>
      <point x="531" y="2381"/>
      <point x="420" y="2381" type="curve"/>
    </contour>
  </outline>
</glyph>
<glyph name="E" format="2">
  <advance width="2540"/>
  <unicode hex="0045"/>
  <outline>
    <contour>
      <point x="1389" y="1479" type="line" smooth="yes"/>
      <point x="1448" y="1479"/>
      <point x="1526" y="1438"/>
      <point x="1529" y="1338" type="curve"/>
      <point x="1529" y="1260"/>
      <point x="1466" y="1198"/>
      <point x="1389" y="1198" type="curve" smooth="yes"/>
      <point x="421" y="1198" type="line"/>
      <point x="421" y="141" type="line"/>
      <point x="1910" y="141" type="line" smooth="yes"/>
      <point x="1987" y="141"/>
      <point x="2050" y="78"/>
      <point x="2050" y="1" type="curve"/>
      <point x="2050" y="0" type="line"/>
      <point x="2050" y="-77"/>
      <point x="1987" y="-140"/>
      <point x="1910" y="-140" type="curve" smooth="yes"/>
      <point x="280" y="-140" type="line" smooth="yes"/>
      <point x="203" y="-140"/>
      <point x="140" y="-77"/>
      <point x="140" y="0" type="curve" smooth="yes"/>
      <point x="140" y="2520" type="line" smooth="yes"/>
      <point x="140" y="2597"/>
      <point x="203" y="2660"/>
      <point x="280" y="2660" type="curve" smooth="yes"/>
      <point x="1842" y="2660" type="line" smooth="yes"/>
      <point x="1919" y="2660"/>
      <point x="1982" y="2597"/>
      <point x="1982" y="2520" type="curve" smooth="yes"/>
      <point x="1982" y="2519" type="line" smooth="yes"/>
      <point x="1982" y="2442"/>
      <point x="1919" y="2379"/>
      <point x="1842" y="2379" type="curve" smooth="yes"/>
      <point x="421" y="2379" type="line"/>
      <point x="421" y="1479" type="line"/>
    </contour>
  </outline>
</glyph>
<glyph name="G" format="2">
  <advance width="2501"/>
  <unicode hex="0047"/>
  <outline>
    <contour>
      <point x="140" y="1260" type="curve" smooth="yes"/>
      <point x="140" y="2036"/>
      <point x="606" y="2660"/>
      <point x="1185" y="2660" type="curve" smooth="yes"/>
      <point x="1404" y="2660"/>
      <point x="1605" y="2570"/>
      <point x="1767" y="2425" type="curve" smooth="yes"/>
      <point x="1937" y="2274"/>
      <point x="2011" y="1927"/>
      <point x="2011" y="1905" type="curve" smooth="yes"/>
      <point x="2011" y="1828"/>
      <point x="1948" y="1765"/>
      <point x="1871" y="1765" type="curve" smooth="yes"/>
      <point x="1806" y="1765"/>
      <point x="1752" y="1809"/>
      <point x="1736" y="1869" type="curve" smooth="yes"/>
      <point x="1712" y="1959"/>
      <point x="1654" y="2151"/>
      <point x="1581" y="2216" type="curve" smooth="yes"/>
      <point x="1460" y="2323"/>
      <point x="1325" y="2380"/>
      <point x="1185" y="2380" type="curve" smooth="yes"/>
      <point x="769" y="2380"/>
      <point x="420" y="1876"/>
      <point x="420" y="1260" type="curve" smooth="yes"/>
      <point x="420" y="644"/>
      <point x="769" y="140"/>
      <point x="1185" y="140" type="curve" smooth="yes"/>
      <point x="1388" y="140"/>
      <point x="1584" y="260"/>
      <point x="1731" y="480" type="curve"/>
      <point x="1732" y="923" type="line"/>
      <point x="1270" y="923" type="line" smooth="yes"/>
      <point x="1193" y="923"/>
      <point x="1130" y="986"/>
      <point x="1130" y="1063" type="curve" smooth="yes"/>
      <point x="1130" y="1140"/>
      <point x="1193" y="1203"/>
      <point x="1270" y="1203" type="curve" smooth="yes"/>
      <point x="1872" y="1203" type="line" smooth="yes"/>
      <point x="1949" y="1203"/>
      <point x="2012" y="1140"/>
      <point x="2012" y="1063" type="curve" smooth="yes"/>
      <point x="2011" y="439" type="line" smooth="yes"/>
      <point x="2011" y="413"/>
      <point x="2004" y="387"/>
      <point x="1990" y="365" type="curve" smooth="yes"/>
      <point x="1806" y="68"/>
      <point x="1521" y="-140"/>
      <point x="1185" y="-140" type="curve" smooth="yes"/>
      <point x="606" y="-140"/>
      <point x="140" y="484"/>
    </contour>
  </outline>
</glyph>
<glyph name="H" format="2">
  <advance width="2540"/>
  <unicode hex="0048"/>
  <outline>
    <contour>
      <point x="140" y="0" type="curve" smooth="yes"/>
      <point x="140" y="2520" type="line" smooth="yes"/>
      <point x="140" y="2597"/>
      <point x="203" y="2660"/>
      <point x="280" y="2660" type="curve" smooth="yes"/>
      <point x="281" y="2660" type="line" smooth="yes"/>
      <point x="359" y="2660"/>
      <point x="421" y="2596"/>
      <point x="421" y="2520" type="curve" smooth="yes"/>
      <point x="421" y="1479" type="line"/>
      <point x="1769" y="1479" type="line"/>
      <point x="1769" y="2520" type="line" smooth="yes"/>
      <point x="1769" y="2597"/>
      <point x="1832" y="2660"/>
      <point x="1909" y="2660" type="curve" smooth="yes"/>
      <point x="1910" y="2660" type="line" smooth="yes"/>
      <point x="1987" y="2660"/>
      <point x="2050" y="2597"/>
      <point x="2050" y="2520" type="curve" smooth="yes"/>
      <point x="2050" y="0" type="line" smooth="yes"/>
      <point x="2050" y="-77"/>
      <point x="1987" y="-140"/>
      <point x="1910" y="-140" type="curve"/>
      <point x="1909" y="-140" type="line"/>
      <point x="1832" y="-140"/>
      <point x="1769" y="-77"/>
      <point x="1769" y="-0" type="curve" smooth="yes"/>
      <point x="1769" y="1198" type="line"/>
      <point x="421" y="1198" type="line"/>
      <point x="421" y="0" type="line" smooth="yes"/>
      <point x="421" y="-76"/>
      <point x="359" y="-140"/>
      <point x="281" y="-140" type="curve"/>
      <point x="280" y="-140" type="line"/>
      <point x="203" y="-140"/>
      <point x="140" y="-77"/>
    </contour>
  </outline>
</glyph>
<glyph name="I" format="2">
  <advance width="910"/>
  <unicode hex="0049"/>
  <outline>
    <contour>
      <point x="140" y="0" type="curve" smooth="yes"/>
      <point x="140" y="2520" type="line" smooth="yes"/>
      <point x="140" y="2597"/>
      <point x="203" y="2660"/>
      <point x="280" y="2660" type="curve" smooth="yes"/>
      <point x="281" y="2660" type="line" smooth="yes"/>
      <point x="359" y="2660"/>
      <point x="421" y="2596"/>
      <point x="421" y="2520" type="curve" smooth="yes"/>
      <point x="421" y="0" type="line" smooth="yes"/>
      <point x="421" y="-76"/>
      <point x="359" y="-140"/>
      <point x="281" y="-140" type="curve"/>
      <point x="280" y="-140" type="line"/>
      <point x="203" y="-140"/>
      <point x="140" y="-78"/>
    </contour>
  </outline>
</glyph>
<glyph name="J" format="2">
  <advance width="2124"/>
  <unicode hex="004A"/>
  <outline>
    <contour>
      <point x="1634" y="529" type="line" smooth="yes"/>
      <point x="1634" y="266"/>
      <point x="1346" y="-140"/>
      <point x="908" y="-140" type="curve" smooth="yes"/>
      <point x="523" y="-140"/>
      <point x="198" y="144"/>
      <point x="164" y="516" type="curve" smooth="yes"/>
      <point x="141" y="767" type="line" smooth="yes"/>
      <point x="141" y="769"/>
      <point x="140" y="774"/>
      <point x="140" y="780" type="curve" smooth="yes"/>
      <point x="140" y="857"/>
      <point x="203" y="920"/>
      <point x="280" y="920" type="curve" smooth="yes"/>
      <point x="353" y="920"/>
      <point x="412" y="864"/>
      <point x="419" y="793" type="curve" smooth="yes"/>
      <point x="443" y="542" type="line" smooth="yes"/>
      <point x="463" y="322"/>
      <point x="659" y="140"/>
      <point x="908" y="140" type="curve" smooth="yes"/>
      <point x="1114" y="140"/>
      <point x="1330" y="315"/>
      <point x="1354" y="536" type="curve"/>
      <point x="1354" y="2520" type="line" smooth="yes"/>
      <point x="1354" y="2597"/>
      <point x="1417" y="2660"/>
      <point x="1494" y="2660" type="curve" smooth="yes"/>
      <point x="1571" y="2660"/>
      <point x="1634" y="2597"/>
      <point x="1634" y="2520" type="curve" smooth="yes"/>
    </contour>
  </outline>
</glyph>
<glyph name="K" format="2">
  <advance width="2472"/>
  <unicode hex="004B"/>
  <outline>
    <contour>
      <point x="140" y="0" type="curve" smooth="yes"/>
      <point x="140" y="2520" type="line" smooth="yes"/>
      <point x="140" y="2597"/>
      <point x="203" y="2660"/>
      <point x="280" y="2660" type="curve" smooth="yes"/>
      <point x="281" y="2660" type="line" smooth="yes"/>
      <point x="359" y="2660"/>
      <point x="421" y="2596"/>
      <point x="421" y="2520" type="curve" smooth="yes"/>
      <point x="421" y="1296" type="line"/>
      <point x="862" y="1737"/>
      <point x="1302" y="2178"/>
      <point x="1743" y="2619" type="curve" smooth="yes"/>
      <point x="1768" y="2644"/>
      <point x="1803" y="2660"/>
      <point x="1842" y="2660" type="curve" smooth="yes"/>
      <point x="1919" y="2660"/>
      <point x="1982" y="2597"/>
      <point x="1982" y="2520" type="curve" smooth="yes"/>
      <point x="1982" y="2481"/>
      <point x="1966" y="2446"/>
      <point x="1941" y="2421" type="curve" smooth="yes"/>
      <point x="1027" y="1506" type="line"/>
      <point x="2025" y="80" type="line" smooth="yes"/>
      <point x="2041" y="57"/>
      <point x="2050" y="30"/>
      <point x="2050" y="0" type="curve" smooth="yes"/>
      <point x="2050" y="-77"/>
      <point x="1987" y="-140"/>
      <point x="1910" y="-140" type="curve" smooth="yes"/>
      <point x="1863" y="-140"/>
      <point x="1820" y="-116"/>
      <point x="1795" y="-80" type="curve" smooth="yes"/>
      <point x="826" y="1305" type="line"/>
      <point x="420" y="899" type="line"/>
      <point x="420" y="0" type="line" smooth="yes"/>
      <point x="420" y="-77"/>
      <point x="357" y="-140"/>
      <point x="280" y="-140" type="curve" smooth="yes"/>
      <point x="203" y="-140"/>
      <point x="140" y="-77"/>
    </contour>
  </outline>
</glyph>
<glyph name="L" format="2">
  <advance width="2540"/>
  <unicode hex="004C"/>
  <outline>
    <contour>
      <point x="140" y="0" type="curve" smooth="yes"/>
      <point x="140" y="2520" type="line" smooth="yes"/>
      <point x="140" y="2597"/>
      <point x="203" y="2660"/>
      <point x="280" y="2660" type="curve" smooth="yes"/>
      <point x="281" y="2660" type="line" smooth="yes"/>
      <point x="359" y="2660"/>
      <point x="421" y="2596"/>
      <point x="421" y="2520" type="curve" smooth="yes"/>
      <point x="421" y="141" type="line"/>
      <point x="1910" y="141" type="line" smooth="yes"/>
      <point x="1987" y="141"/>
      <point x="2050" y="78"/>
      <point x="2050" y="1" type="curve"/>
      <point x="2050" y="0" type="line"/>
      <point x="2050" y="-77"/>
      <point x="1987" y="-140"/>
      <point x="1910" y="-140" type="curve" smooth="yes"/>
      <point x="280" y="-140" type="line" smooth="yes"/>
      <point x="203" y="-140"/>
      <point x="140" y="-77"/>
    </contour>
  </outline>
</glyph>
<glyph name="M" format="2">
  <advance width="2871"/>
  <unicode hex="004D"/>
  <outline>
    <contour>
      <point x="140" y="0" type="curve" smooth="yes"/>
      <point x="140" y="2520" type="line" smooth="yes"/>
      <point x="140" y="2597"/>
      <point x="203" y="2660"/>
      <point x="280" y="2660" type="curve" smooth="yes"/>
      <point x="385" y="2660" type="line" smooth="yes"/>
      <point x="444" y="2660"/>
      <point x="498" y="2622"/>
      <point x="517" y="2566" type="curve" smooth="yes"/>
      <point x="1261" y="406" type="line"/>
      <point x="2004" y="2566" type="line" smooth="yes"/>
      <point x="2023" y="2622"/>
      <point x="2078" y="2660"/>
      <point x="2137" y="2660" type="curve" smooth="yes"/>
      <point x="2241" y="2660" type="line" smooth="yes"/>
      <point x="2318" y="2660"/>
      <point x="2381" y="2597"/>
      <point x="2381" y="2520" type="curve" smooth="yes"/>
      <point x="2382" y="0" type="line" smooth="yes"/>
      <point x="2382" y="-77"/>
      <point x="2319" y="-140"/>
      <point x="2242" y="-140" type="curve" smooth="yes"/>
      <point x="2165" y="-140"/>
      <point x="2102" y="-77"/>
      <point x="2102" y="-0" type="curve" smooth="yes"/>
      <point x="2101" y="1986" type="line"/>
      <point x="1420" y="7" type="line" smooth="yes"/>
      <point x="1401" y="-49"/>
      <point x="1346" y="-87"/>
      <point x="1287" y="-87" type="curve" smooth="yes"/>
      <point x="1234" y="-87" type="line" smooth="yes"/>
      <point x="1175" y="-87"/>
      <point x="1121" y="-49"/>
      <point x="1102" y="7" type="curve" smooth="yes"/>
      <point x="420" y="1988" type="line"/>
      <point x="420" y="0" type="line" smooth="yes"/>
      <point x="420" y="-77"/>
      <point x="357" y="-140"/>
      <point x="280" y="-140" type="curve" smooth="yes"/>
      <point x="203" y="-140"/>
      <point x="140" y="-77"/>
    </contour>
  </outline>
</glyph>
<glyph name="N" format="2">
  <advance width="2540"/>
  <unicode hex="004E"/>
  <outline>
    <contour>
      <point x="140" y="0" type="curve" smooth="yes"/>
      <point x="140" y="2520" type="line" smooth="yes"/>
      <point x="140" y="2597"/>
      <point x="203" y="2660"/>
      <point x="280" y="2660" type="curve" smooth="yes"/>
      <point x="385" y="2660" type="line" smooth="yes"/>
      <point x="435" y="2660"/>
      <point x="482" y="2633"/>
      <point x="507" y="2589" type="curve" smooth="yes"/>
      <point x="1770" y="347" type="line"/>
      <point x="1770" y="2520" type="line" smooth="yes"/>
      <point x="1770" y="2597"/>
      <point x="1833" y="2660"/>
      <point x="1910" y="2660" type="curve" smooth="yes"/>
      <point x="1987" y="2660"/>
      <point x="2050" y="2597"/>
      <point x="2050" y="2520" type="curve" smooth="yes"/>
      <point x="2050" y="-0" type="line" smooth="yes"/>
      <point x="2050" y="-77"/>
      <point x="1987" y="-140"/>
      <point x="1910" y="-140" type="curve" smooth="yes"/>
      <point x="1805" y="-140" type="line" smooth="yes"/>
      <point x="1755" y="-140"/>
      <point x="1708" y="-113"/>
      <point x="1683" y="-69" type="curve" smooth="yes"/>
      <point x="420" y="2173" type="line"/>
      <point x="420" y="0" type="line" smooth="yes"/>
      <point x="420" y="-77"/>
      <point x="357" y="-140"/>
      <point x="280" y="-140" type="curve" smooth="yes"/>
      <point x="203" y="-140"/>
      <point x="140" y="-77"/>
    </contour>
  </outline>
</glyph>
<glyph name="O" format="2">
  <advance width="2723"/>
  <unicode hex="004F"/>
  <outline>
    <contour>
      <point x="140" y="1260" type="curve" smooth="yes"/>
      <point x="140" y="2036"/>
      <point x="606" y="2660"/>
      <point x="1185" y="2660" type="curve" smooth="yes"/>
      <point x="1764" y="2660"/>
      <point x="2233" y="2035"/>
      <point x="2233" y="1260" type="curve" smooth="yes"/>
      <point x="2233" y="484"/>
      <point x="1767" y="-140"/>
      <point x="1188" y="-140" type="curve" smooth="yes"/>
      <point x="609" y="-140"/>
      <point x="140" y="485"/>
    </contour>
    <contour>
      <point x="420" y="1260" type="curve" smooth="yes"/>
      <point x="420" y="644"/>
      <point x="772" y="140"/>
      <point x="1188" y="140" type="curve" smooth="yes"/>
      <point x="1604" y="140"/>
      <point x="1953" y="644"/>
      <point x="1953" y="1260" type="curve" smooth="yes"/>
      <point x="1953" y="1876"/>
      <point x="1601" y="2380"/>
      <point x="1185" y="2380" type="curve" smooth="yes"/>
      <point x="769" y="2380"/>
      <point x="420" y="1876"/>
    </contour>
  </outline>
</glyph>
<glyph name="P" format="2">
  <advance width="2465"/>
  <unicode hex="0050"/>
  <outline>
    <contour>
      <point x="140" y="0" type="curve" smooth="yes"/>
      <point x="140" y="2520" type="line" smooth="yes"/>
      <point x="140" y="2597"/>
      <point x="203" y="2660"/>
      <point x="280" y="2660" type="curve" smooth="yes"/>
      <point x="1230" y="2660" type="line" smooth="yes"/>
      <point x="1639" y="2660"/>
      <point x="1975" y="2300"/>
      <point x="1975" y="1851" type="curve" smooth="yes"/>
      <point x="1975" y="1402"/>
      <point x="1639" y="1042"/>
      <point x="1230" y="1042" type="curve" smooth="yes"/>
      <point x="420" y="1042" type="line"/>
      <point x="420" y="0" type="line" smooth="yes"/>
      <point x="420" y="-77"/>
      <point x="357" y="-140"/>
      <point x="280" y="-140" type="curve" smooth="yes"/>
      <point x="203" y="-140"/>
      <point x="140" y="-77"/>
    </contour>
    <contour>
      <point x="420" y="1322" type="line"/>
      <point x="1230" y="1322" type="line" smooth="yes"/>
      <point x="1487" y="1322"/>
      <point x="1695" y="1562"/>
      <point x="1695" y="1851" type="curve" smooth="yes"/>
      <point x="1695" y="2140"/>
      <point x="1487" y="2380"/>
      <point x="1230" y="2380" type="curve" smooth="yes"/>
      <point x="420" y="2380" type="line"/>
    </contour>
  </outline>
</glyph>
<glyph name="Q" format="2">
  <advance width="2723"/>
  <unicode hex="0051"/>
  <outline>
    <contour>
      <point x="2377" y="-80" type="line"/>
      <point x="2377" y="-218"/>
      <point x="2134" y="-317"/>
      <point x="2007" y="-317" type="curve" smooth="yes"/>
      <point x="1921" y="-317"/>
      <point x="1746" y="-283"/>
      <point x="1559" y="-50" type="curve"/>
      <point x="1445" y="-108"/>
      <point x="1320" y="-140"/>
      <point x="1188" y="-140" type="curve" smooth="yes"/>
      <point x="609" y="-140"/>
      <point x="140" y="485"/>
      <point x="140" y="1260" type="curve" smooth="yes"/>
      <point x="140" y="2036"/>
      <point x="606" y="2660"/>
      <point x="1185" y="2660" type="curve" smooth="yes"/>
      <point x="1764" y="2660"/>
      <point x="2233" y="2035"/>
      <point x="2233" y="1260" type="curve" smooth="yes"/>
      <point x="2233" y="1073"/>
      <point x="2197" y="496"/>
      <point x="1788" y="112" type="curve"/>
      <point x="1819" y="75"/>
      <point x="1920" y="-36"/>
      <point x="2007" y="-36" type="curve" smooth="yes"/>
      <point x="2098" y="-36"/>
      <point x="2148" y="61"/>
      <point x="2237" y="61" type="curve" smooth="yes"/>
      <point x="2314" y="61"/>
      <point x="2377" y="-2"/>
      <point x="2377" y="-79" type="curve"/>
    </contour>
    <contour>
      <point x="420" y="1260" type="curve" smooth="yes"/>
      <point x="420" y="644"/>
      <point x="772" y="140"/>
      <point x="1188" y="140" type="curve" smooth="yes"/>
      <point x="1264" y="140"/>
      <point x="1339" y="157"/>
      <point x="1410" y="189" type="curve"/>
      <point x="1390" y="231"/>
      <point x="1365" y="286"/>
      <point x="1342" y="346" type="curve"/>
      <point x="1294" y="364" type="line"/>
      <point x="1110" y="364" type="line" smooth="yes"/>
      <point x="1033" y="364"/>
      <point x="970" y="427"/>
      <point x="970" y="504" type="curve" smooth="yes"/>
      <point x="970" y="581"/>
      <point x="1033" y="644"/>
      <point x="1110" y="644" type="curve" smooth="yes"/>
      <point x="1319" y="644" type="line" smooth="yes"/>
      <point x="1335" y="644"/>
      <point x="1352" y="642"/>
      <point x="1367" y="636" type="curve" smooth="yes"/>
      <point x="1499" y="588" type="line" smooth="yes"/>
      <point x="1538" y="574"/>
      <point x="1569" y="542"/>
      <point x="1583" y="502" type="curve" smooth="yes"/>
      <point x="1584" y="501"/>
      <point x="1607" y="435"/>
      <point x="1640" y="360" type="curve"/>
      <point x="1833" y="569"/>
      <point x="1953" y="899"/>
      <point x="1953" y="1260" type="curve" smooth="yes"/>
      <point x="1953" y="1876"/>
      <point x="1601" y="2380"/>
      <point x="1185" y="2380" type="curve" smooth="yes"/>
      <point x="769" y="2380"/>
      <point x="420" y="1876"/>
    </contour>
  </outline>
</glyph>
<glyph name="R" format="2">
  <advance width="2587"/>
  <unicode hex="0052"/>
  <outline>
    <contour>
      <point x="140" y="0" type="curve" smooth="yes"/>
      <point x="140" y="2520" type="line" smooth="yes"/>
      <point x="140" y="2597"/>
      <point x="203" y="2660"/>
      <point x="280" y="2660" type="curve" smooth="yes"/>
      <point x="1288" y="2660" type="line" smooth="yes"/>
      <point x="1738" y="2660"/>
      <point x="2097" y="2330"/>
      <point x="2097" y="1929" type="curve" smooth="yes"/>
      <point x="2097" y="1595"/>
      <point x="1848" y="1309"/>
      <point x="1501" y="1224" type="curve"/>
      <point x="2082" y="63" type="line" smooth="yes"/>
      <point x="2091" y="44"/>
      <point x="2097" y="22"/>
      <point x="2097" y="-0" type="curve" smooth="yes"/>
      <point x="2097" y="-77"/>
      <point x="2034" y="-140"/>
      <point x="1957" y="-140" type="curve" smooth="yes"/>
      <point x="1902" y="-140"/>
      <point x="1855" y="-109"/>
      <point x="1832" y="-63" type="curve" smooth="yes"/>
      <point x="1201" y="1197" type="line"/>
      <point x="420" y="1197" type="line"/>
      <point x="420" y="0" type="line" smooth="yes"/>
      <point x="420" y="-77"/>
      <point x="357" y="-140"/>
      <point x="280" y="-140" type="curve" smooth="yes"/>
      <point x="203" y="-140"/>
      <point x="140" y="-77"/>
    </contour>
    <contour>
      <point x="420" y="1478" type="line"/>
      <point x="1288" y="1478" type="line" smooth="yes"/>
      <point x="1577" y="1478"/>
      <point x="1817" y="1679"/>
      <point x="1817" y="1929" type="curve" smooth="yes"/>
      <point x="1817" y="2179"/>
      <point x="1577" y="2380"/>
      <point x="1288" y="2380" type="curve" smooth="yes"/>
      <point x="420" y="2380" type="line"/>
    </contour>
  </outline>
</glyph>
<glyph name="S" format="2">
  <advance width="2631"/>
  <unicode hex="0053"/>
  <outline>
    <contour>
      <point x="140" y="750" type="curve" smooth="yes"/>
      <point x="140" y="827"/>
      <point x="203" y="890"/>
      <point x="280" y="890" type="curve" smooth="yes"/>
      <point x="345" y="890"/>
      <point x="401" y="846"/>
      <point x="416" y="785" type="curve" smooth="yes"/>
      <point x="495" y="475"/>
      <point x="498" y="461"/>
      <point x="585" y="368" type="curve" smooth="yes"/>
      <point x="713" y="231"/>
      <point x="923" y="140"/>
      <point x="1159" y="140" type="curve" smooth="yes"/>
      <point x="1544" y="140"/>
      <point x="1861" y="381"/>
      <point x="1861" y="673" type="curve" smooth="yes"/>
      <point x="1861" y="965"/>
      <point x="1544" y="1207"/>
      <point x="1159" y="1207" type="curve" smooth="yes"/>
      <point x="1088" y="1207" type="line" smooth="yes"/>
      <point x="598" y="1207"/>
      <point x="204" y="1532"/>
      <point x="204" y="1933" type="curve" smooth="yes"/>
      <point x="204" y="2334"/>
      <point x="598" y="2660"/>
      <point x="1088" y="2660" type="curve" smooth="yes"/>
      <point x="1171" y="2660"/>
      <point x="1663" y="2642"/>
      <point x="1890" y="2240" type="curve" smooth="yes"/>
      <point x="1924" y="2180"/>
      <point x="1972" y="1987"/>
      <point x="1972" y="1933" type="curve" smooth="yes"/>
      <point x="1972" y="1856"/>
      <point x="1909" y="1793"/>
      <point x="1832" y="1793" type="curve" smooth="yes"/>
      <point x="1762" y="1793"/>
      <point x="1704" y="1845"/>
      <point x="1694" y="1913" type="curve" smooth="yes"/>
      <point x="1690" y="1938"/>
      <point x="1675" y="2029"/>
      <point x="1642" y="2109" type="curve"/>
      <point x="1549" y="2267"/>
      <point x="1335" y="2380"/>
      <point x="1088" y="2380" type="curve" smooth="yes"/>
      <point x="757" y="2380"/>
      <point x="484" y="2177"/>
      <point x="484" y="1933" type="curve" smooth="yes"/>
      <point x="484" y="1689"/>
      <point x="757" y="1487"/>
      <point x="1088" y="1487" type="curve" smooth="yes"/>
      <point x="1159" y="1487" type="line" smooth="yes"/>
      <point x="1703" y="1487"/>
      <point x="2141" y="1122"/>
      <point x="2141" y="673" type="curve" smooth="yes"/>
      <point x="2141" y="224"/>
      <point x="1703" y="-140"/>
      <point x="1159" y="-140" type="curve" smooth="yes"/>
      <point x="677" y="-140"/>
      <point x="277" y="146"/>
      <point x="193" y="525" type="curve"/>
      <point x="144" y="716" type="line" smooth="yes"/>
      <point x="141" y="727"/>
      <point x="140" y="738"/>
    </contour>
  </outline>
</glyph>
<glyph name="T" format="2">
  <advance width="2800"/>
  <unicode hex="0054"/>
  <outline>
    <contour>
      <point x="140" y="2519" type="curve"/>
      <point x="140" y="2520" type="line"/>
      <point x="140" y="2597"/>
      <point x="203" y="2660"/>
      <point x="280" y="2660" type="curve" smooth="yes"/>
      <point x="2170" y="2660" type="line" smooth="yes"/>
      <point x="2247" y="2660"/>
      <point x="2310" y="2597"/>
      <point x="2310" y="2520" type="curve" smooth="yes"/>
      <point x="2310" y="2519" type="line" smooth="yes"/>
      <point x="2310" y="2441"/>
      <point x="2247" y="2379"/>
      <point x="2170" y="2379" type="curve" smooth="yes"/>
      <point x="1366" y="2379" type="line"/>
      <point x="1366" y="0" type="line" smooth="yes"/>
      <point x="1366" y="-77"/>
      <point x="1303" y="-140"/>
      <point x="1226" y="-140" type="curve" smooth="yes"/>
      <point x="1149" y="-140"/>
      <point x="1086" y="-77"/>
      <point x="1086" y="-0" type="curve" smooth="yes"/>
      <point x="1085" y="2379" type="line"/>
      <point x="280" y="2379" type="line" smooth="yes"/>
      <point x="202" y="2379"/>
      <point x="140" y="2443"/>
    </contour>
  </outline>
</glyph>
<glyph name="U" format="2">
  <advance width="2540"/>
  <unicode hex="0055"/>
  <outline>
    <contour>
      <point x="140" y="675" type="curve" smooth="yes"/>
      <point x="140" y="2520" type="line" smooth="yes"/>
      <point x="140" y="2597"/>
      <point x="203" y="2660"/>
      <point x="280" y="2660" type="curve" smooth="yes"/>
      <point x="357" y="2660"/>
      <point x="420" y="2597"/>
      <point x="420" y="2520" type="curve" smooth="yes"/>
      <point x="420" y="675" type="line" smooth="yes"/>
      <point x="420" y="380"/>
      <point x="724" y="140"/>
      <point x="1095" y="140" type="curve" smooth="yes"/>
      <point x="1466" y="140"/>
      <point x="1770" y="380"/>
      <point x="1770" y="675" type="curve" smooth="yes"/>
      <point x="1770" y="2520" type="line" smooth="yes"/>
      <point x="1770" y="2597"/>
      <point x="1833" y="2660"/>
      <point x="1910" y="2660" type="curve" smooth="yes"/>
      <point x="1987" y="2660"/>
      <point x="2050" y="2597"/>
      <point x="2050" y="2520" type="curve" smooth="yes"/>
      <point x="2050" y="675" type="line" smooth="yes"/>
      <point x="2050" y="225"/>
      <point x="1625" y="-140"/>
      <point x="1095" y="-140" type="curve" smooth="yes"/>
      <point x="565" y="-140"/>
      <point x="140" y="225"/>
    </contour>
  </outline>
</glyph>
<glyph name="V" format="2">
  <advance width="2701"/>
  <unicode hex="0056"/>
  <outline>
    <contour>
      <point x="140" y="2520" type="curve" smooth="yes"/>
      <point x="140" y="2597"/>
      <point x="203" y="2660"/>
      <point x="280" y="2660" type="curve" smooth="yes"/>
      <point x="342" y="2660"/>
      <point x="394" y="2620"/>
      <point x="413" y="2564" type="curve" smooth="yes"/>
      <point x="1176" y="284" type="line"/>
      <point x="1938" y="2564" type="line" smooth="yes"/>
      <point x="1957" y="2620"/>
      <point x="2009" y="2660"/>
      <point x="2071" y="2660" type="curve" smooth="yes"/>
      <point x="2148" y="2660"/>
      <point x="2211" y="2597"/>
      <point x="2211" y="2520" type="curve" smooth="yes"/>
      <point x="2211" y="2504"/>
      <point x="2209" y="2490"/>
      <point x="2204" y="2476" type="curve" smooth="yes"/>
      <point x="1361" y="-45" type="line" smooth="yes"/>
      <point x="1342" y="-102"/>
      <point x="1288" y="-140"/>
      <point x="1228" y="-140" type="curve" smooth="yes"/>
      <point x="1123" y="-140" type="line" smooth="yes"/>
      <point x="1063" y="-140"/>
      <point x="1009" y="-101"/>
      <point x="990" y="-44" type="curve" smooth="yes"/>
      <point x="147" y="2476" type="line" smooth="yes"/>
      <point x="142" y="2490"/>
      <point x="140" y="2504"/>
    </contour>
  </outline>
</glyph>
<glyph name="W" format="2">
  <advance width="3346"/>
  <unicode hex="0057"/>
  <outline>
    <contour>
      <point x="140" y="2520" type="curve" smooth="yes"/>
      <point x="140" y="2597"/>
      <point x="203" y="2660"/>
      <point x="280" y="2660" type="curve" smooth="yes"/>
      <point x="347" y="2660"/>
      <point x="404" y="2612"/>
      <point x="417" y="2549" type="curve" smooth="yes"/>
      <point x="869" y="426" type="line"/>
      <point x="1309" y="2496" type="line" smooth="yes"/>
      <point x="1323" y="2560"/>
      <point x="1380" y="2607"/>
      <point x="1446" y="2607" type="curve" smooth="yes"/>
      <point x="1551" y="2607" type="line" smooth="yes"/>
      <point x="1617" y="2607"/>
      <point x="1674" y="2560"/>
      <point x="1688" y="2496" type="curve" smooth="yes"/>
      <point x="2128" y="426" type="line"/>
      <point x="2579" y="2546" type="line" smooth="yes"/>
      <point x="2592" y="2609"/>
      <point x="2649" y="2657"/>
      <point x="2716" y="2657" type="curve" smooth="yes"/>
      <point x="2793" y="2657"/>
      <point x="2856" y="2594"/>
      <point x="2856" y="2517" type="curve" smooth="yes"/>
      <point x="2856" y="2507"/>
      <point x="2855" y="2497"/>
      <point x="2853" y="2488" type="curve" smooth="yes"/>
      <point x="2317" y="-29" type="line" smooth="yes"/>
      <point x="2303" y="-93"/>
      <point x="2246" y="-140"/>
      <point x="2180" y="-140" type="curve" smooth="yes"/>
      <point x="2075" y="-140" type="line" smooth="yes"/>
      <point x="2009" y="-140"/>
      <point x="1952" y="-93"/>
      <point x="1938" y="-29" type="curve" smooth="yes"/>
      <point x="1498" y="2041" type="line"/>
      <point x="1058" y="-29" type="line" smooth="yes"/>
      <point x="1044" y="-93"/>
      <point x="987" y="-140"/>
      <point x="921" y="-140" type="curve" smooth="yes"/>
      <point x="816" y="-140" type="line" smooth="yes"/>
      <point x="750" y="-140"/>
      <point x="693" y="-93"/>
      <point x="679" y="-29" type="curve" smooth="yes"/>
      <point x="143" y="2491" type="line" smooth="yes"/>
      <point x="141" y="2500"/>
      <point x="140" y="2510"/>
    </contour>
  </outline>
</glyph>
<glyph name="X" format="2">
  <advance width="2690"/>
  <unicode hex="0058"/>
  <outline>
    <contour>
      <point x="140" y="0" type="curve" smooth="yes"/>
      <point x="140" y="29"/>
      <point x="149" y="56"/>
      <point x="164" y="78" type="curve" smooth="yes"/>
      <point x="1001" y="1320" type="line"/>
      <point x="245" y="2442" type="line" smooth="yes"/>
      <point x="235" y="2457"/>
      <point x="221" y="2484"/>
      <point x="221" y="2520" type="curve" smooth="yes"/>
      <point x="221" y="2597"/>
      <point x="283" y="2660"/>
      <point x="361" y="2660" type="curve"/>
      <point x="362" y="2660" type="line" smooth="yes"/>
      <point x="408" y="2660"/>
      <point x="452" y="2637"/>
      <point x="478" y="2598" type="curve" smooth="yes"/>
      <point x="1170" y="1571" type="line"/>
      <point x="1862" y="2598" type="line" smooth="yes"/>
      <point x="1888" y="2637"/>
      <point x="1932" y="2660"/>
      <point x="1978" y="2660" type="curve"/>
      <point x="1979" y="2660" type="line"/>
      <point x="2057" y="2660"/>
      <point x="2119" y="2597"/>
      <point x="2119" y="2520" type="curve" smooth="yes"/>
      <point x="2119" y="2502"/>
      <point x="2115" y="2472"/>
      <point x="2095" y="2442" type="curve" smooth="yes"/>
      <point x="1339" y="1320" type="line"/>
      <point x="2176" y="78" type="line" smooth="yes"/>
      <point x="2191" y="56"/>
      <point x="2200" y="29"/>
      <point x="2200" y="0" type="curve" smooth="yes"/>
      <point x="2200" y="-77"/>
      <point x="2137" y="-140"/>
      <point x="2060" y="-140" type="curve" smooth="yes"/>
      <point x="2012" y="-140"/>
      <point x="1969" y="-115"/>
      <point x="1944" y="-78" type="curve" smooth="yes"/>
      <point x="1170" y="1070" type="line"/>
      <point x="396" y="-78" type="line" smooth="yes"/>
      <point x="371" y="-115"/>
      <point x="328" y="-140"/>
      <point x="280" y="-140" type="curve" smooth="yes"/>
      <point x="203" y="-140"/>
      <point x="140" y="-77"/>
    </contour>
  </outline>
</glyph>
<glyph name="Y" format="2">
  <advance width="2564"/>
  <unicode hex="0059"/>
  <outline>
    <contour>
      <point x="140" y="2520" type="curve" smooth="yes"/>
      <point x="140" y="2597"/>
      <point x="203" y="2660"/>
      <point x="280" y="2660" type="curve" smooth="yes"/>
      <point x="327" y="2660"/>
      <point x="370" y="2636"/>
      <point x="395" y="2600" type="curve" smooth="yes"/>
      <point x="1107" y="1583" type="line"/>
      <point x="1819" y="2600" type="line" smooth="yes"/>
      <point x="1844" y="2636"/>
      <point x="1887" y="2660"/>
      <point x="1934" y="2660" type="curve" smooth="yes"/>
      <point x="2011" y="2660"/>
      <point x="2074" y="2597"/>
      <point x="2074" y="2520" type="curve" smooth="yes"/>
      <point x="2074" y="2490"/>
      <point x="2065" y="2463"/>
      <point x="2049" y="2440" type="curve" smooth="yes"/>
      <point x="1248" y="1295" type="line"/>
      <point x="1248" y="0" type="line" smooth="yes"/>
      <point x="1248" y="-78"/>
      <point x="1184" y="-140"/>
      <point x="1108" y="-140" type="curve"/>
      <point x="1107" y="-140" type="line"/>
      <point x="1030" y="-140"/>
      <point x="967" y="-77"/>
      <point x="967" y="0" type="curve" smooth="yes"/>
      <point x="967" y="1295" type="line"/>
      <point x="165" y="2440" type="line" smooth="yes"/>
      <point x="149" y="2463"/>
      <point x="140" y="2490"/>
    </contour>
  </outline>
</glyph>
<glyph name="Z" format="2">
  <advance width="2649"/>
  <unicode hex="005A"/>
  <outline>
    <contour>
      <point x="140" y="0" type="curve" smooth="yes"/>
      <point x="140" y="105" type="line" smooth="yes"/>
      <point x="140" y="134"/>
      <point x="149" y="161"/>
      <point x="165" y="185" type="curve" smooth="yes"/>
      <point x="1702" y="2380" type="line"/>
      <point x="402" y="2380" type="line" smooth="yes"/>
      <point x="325" y="2380"/>
      <point x="262" y="2443"/>
      <point x="262" y="2520" type="curve" smooth="yes"/>
      <point x="262" y="2597"/>
      <point x="325" y="2660"/>
      <point x="402" y="2660" type="curve" smooth="yes"/>
      <point x="1897" y="2660" type="line" smooth="yes"/>
      <point x="1974" y="2660"/>
      <point x="2037" y="2597"/>
      <point x="2037" y="2520" type="curve" smooth="yes"/>
      <point x="2037" y="2415" type="line" smooth="yes"/>
      <point x="2037" y="2386"/>
      <point x="2028" y="2359"/>
      <point x="2012" y="2335" type="curve" smooth="yes"/>
      <point x="475" y="140" type="line"/>
      <point x="2019" y="140" type="line" smooth="yes"/>
      <point x="2096" y="140"/>
      <point x="2159" y="77"/>
      <point x="2159" y="0" type="curve" smooth="yes"/>
      <point x="2159" y="-77"/>
      <point x="2096" y="-140"/>
      <point x="2019" y="-140" type="curve" smooth="yes"/>
      <point x="280" y="-140" type="line" smooth="yes"/>
      <point x="203" y="-140"/>
      <point x="140" y="-78"/>
    </contour>
  </outline>
</glyph>
<glyph name="bracketleft" format="2">
  <advance width="1710"/>
  <unicode hex="005B"/>
  <outline>
    <contour>
      <point x="140" y="-280" type="curve" smooth="yes"/>
      <point x="140" y="2730" type="line" smooth="yes"/>
      <point x="140" y="2807"/>
      <point x="203" y="2870"/>
      <point x="280" y="2870" type="curve" smooth="yes"/>
      <point x="1080" y="2870" type="line" smooth="yes"/>
      <point x="1157" y="2870"/>
      <point x="1220" y="2807"/>
      <point x="1220" y="2730" type="curve" smooth="yes"/>
      <point x="1220" y="2653"/>
      <point x="1157" y="2590"/>
      <point x="1080" y="2590" type="curve" smooth="yes"/>
      <point x="420" y="2590" type="line"/>
      <point x="420" y="-140" type="line"/>
      <point x="1080" y="-140" type="line" smooth="yes"/>
      <point x="1157" y="-140"/>
      <point x="1220" y="-203"/>
      <point x="1220" y="-280" type="curve" smooth="yes"/>
      <point x="1220" y="-357"/>
      <point x="1157" y="-420"/>
      <point x="1080" y="-420" type="curve" smooth="yes"/>
      <point x="280" y="-420" type="line" smooth="yes"/>
      <point x="203" y="-420"/>
      <point x="140" y="-357"/>
    </contour>
  </outline>
</glyph>
<glyph name="backslash" format="2">
  <advance width="2540"/>
  <unicode hex="005C"/>
  <outline>
    <contour>
      <point x="140" y="2660" type="curve" smooth="yes"/>
      <point x="140" y="2737"/>
      <point x="203" y="2800"/>
      <point x="280" y="2800" type="curve" smooth="yes"/>
      <point x="332" y="2800"/>
      <point x="377" y="2773"/>
      <point x="401" y="2731" type="curve" smooth="yes"/>
      <point x="2031" y="-70" type="line" smooth="yes"/>
      <point x="2043" y="-91"/>
      <point x="2050" y="-114"/>
      <point x="2050" y="-140" type="curve" smooth="yes"/>
      <point x="2050" y="-217"/>
      <point x="1987" y="-280"/>
      <point x="1910" y="-280" type="curve" smooth="yes"/>
      <point x="1858" y="-280"/>
      <point x="1813" y="-252"/>
      <point x="1789" y="-211" type="curve" smooth="yes"/>
      <point x="159" y="2590" type="line" smooth="yes"/>
      <point x="147" y="2611"/>
      <point x="140" y="2634"/>
    </contour>
  </outline>
</glyph>
<glyph name="bracketright" format="2">
  <advance width="1710"/>
  <unicode hex="005D"/>
  <outline>
    <contour>
      <point x="140" y="-280" type="curve" smooth="yes"/>
      <point x="140" y="-203"/>
      <point x="203" y="-140"/>
      <point x="280" y="-140" type="curve" smooth="yes"/>
      <point x="940" y="-140" type="line"/>
      <point x="940" y="2590" type="line"/>
      <point x="280" y="2590" type="line" smooth="yes"/>
      <point x="203" y="2590"/>
      <point x="140" y="2653"/>
      <point x="140" y="2730" type="curve" smooth="yes"/>
      <point x="140" y="2807"/>
      <point x="203" y="2870"/>
      <point x="280" y="2870" type="curve" smooth="yes"/>
      <point x="1080" y="2870" type="line" smooth="yes"/>
      <point x="1158" y="2870"/>
      <point x="1220" y="2806"/>
      <point x="1220" y="2730" type="curve" smooth="yes"/>
      <point x="1220" y="-280" type="line" smooth="yes"/>
      <point x="1220" y="-356"/>
      <point x="1158" y="-420"/>
      <point x="1080" y="-420" type="curve" smooth="yes"/>
      <point x="280" y="-420" type="line" smooth="yes"/>
      <point x="203" y="-420"/>
      <point x="140" y="-357"/>
    </contour>
  </outline>
</glyph>
<glyph name="asciicircum" format="2">
  <advance width="1802"/>
  <unicode hex="005E"/>
  <outline>
    <contour>
      <point x="140" y="1748" type="curve" smooth="yes"/>
      <point x="140" y="1773"/>
      <point x="147" y="1797"/>
      <point x="159" y="1818" type="curve" smooth="yes"/>
      <point x="605" y="2590" type="line" smooth="yes"/>
      <point x="629" y="2632"/>
      <point x="674" y="2660"/>
      <point x="726" y="2660" type="curve" smooth="yes"/>
      <point x="778" y="2660"/>
      <point x="823" y="2632"/>
      <point x="847" y="2590" type="curve" smooth="yes"/>
      <point x="1293" y="1818" type="line" smooth="yes"/>
      <point x="1305" y="1797"/>
      <point x="1312" y="1773"/>
      <point x="1312" y="1748" type="curve" smooth="yes"/>
      <point x="1312" y="1671"/>
      <point x="1249" y="1608"/>
      <point x="1172" y="1608" type="curve" smooth="yes"/>
      <point x="1120" y="1608"/>
      <point x="1075" y="1636"/>
      <point x="1051" y="1678" type="curve" smooth="yes"/>
      <point x="726" y="2240" type="line"/>
      <point x="401" y="1678" type="line" smooth="yes"/>
      <point x="377" y="1636"/>
      <point x="332" y="1608"/>
      <point x="280" y="1608" type="curve" smooth="yes"/>
      <point x="203" y="1608"/>
      <point x="140" y="1671"/>
    </contour>
  </outline>
</glyph>
<glyph name="underscore" format="2">
  <advance width="2590"/>
  <unicode hex="005F"/>
  <outline>
    <contour>
      <point x="140" y="-210" type="curve" smooth="yes"/>
      <point x="140" y="-133"/>
      <point x="203" y="-70"/>
      <point x="280" y="-70" type="curve" smooth="yes"/>
      <point x="1960" y="-70" type="line" smooth="yes"/>
      <point x="2037" y="-70"/>
      <point x="2100" y="-133"/>
      <point x="2100" y="-210" type="curve" smooth="yes"/>
      <point x="2100" y="-287"/>
      <point x="2037" y="-350"/>
      <point x="1960" y="-350" type="curve" smooth="yes"/>
      <point x="280" y="-350" type="line" smooth="yes"/>
      <point x="203" y="-350"/>
      <point x="140" y="-287"/>
    </contour>
  </outline>
</glyph>
<glyph name="grave" format="2">
  <advance width="1154"/>
  <unicode hex="0060"/>
  <outline>
    <contour>
      <point x="139" y="2450" type="curve" smooth="yes"/>
      <point x="139" y="2565"/>
      <point x="234" y="2660"/>
      <point x="350" y="2660" type="curve" smooth="yes"/>
      <point x="423" y="2660"/>
      <point x="493" y="2621"/>
      <point x="532" y="2554" type="curve" smooth="yes"/>
      <point x="567" y="2494" type="line" smooth="yes"/>
      <point x="573" y="2484"/>
      <point x="577" y="2473"/>
      <point x="580" y="2462" type="curve" smooth="yes"/>
      <point x="659" y="2185" type="line" smooth="yes"/>
      <point x="663" y="2173"/>
      <point x="665" y="2160"/>
      <point x="665" y="2147" type="curve" smooth="yes"/>
      <point x="665" y="2069"/>
      <point x="602" y="2007"/>
      <point x="525" y="2007" type="curve" smooth="yes"/>
      <point x="489" y="2007"/>
      <point x="452" y="2020"/>
      <point x="424" y="2049" type="curve" smooth="yes"/>
      <point x="223" y="2257" type="line" smooth="yes"/>
      <point x="215" y="2265"/>
      <point x="209" y="2274"/>
      <point x="203" y="2284" type="curve" smooth="yes"/>
      <point x="168" y="2345" type="line" smooth="yes"/>
      <point x="149" y="2378"/>
      <point x="139" y="2414"/>
    </contour>
  </outline>
</glyph>
<glyph name="a" format="2">
  <advance width="2065"/>
  <unicode hex="0061"/>
  <outline>
    <contour>
      <point x="770" y="-160" type="curve" smooth="yes"/>
      <point x="444" y="-160"/>
      <point x="140" y="6"/>
      <point x="140" y="315" type="curve" smooth="yes"/>
      <point x="140" y="867"/>
      <point x="782" y="978"/>
      <point x="1085" y="1000" type="curve"/>
      <point x="1085" y="1061"/>
      <point x="1085" y="1100"/>
      <point x="1085" y="1100" type="curve" smooth="yes"/>
      <point x="1085" y="1250"/>
      <point x="965" y="1400"/>
      <point x="760" y="1400" type="curve" smooth="yes"/>
      <point x="523" y="1400"/>
      <point x="448" y="1297"/>
      <point x="417" y="1158" type="curve" smooth="yes"/>
      <point x="403" y="1095"/>
      <point x="347" y="1048"/>
      <point x="280" y="1048" type="curve" smooth="yes"/>
      <point x="203" y="1048"/>
      <point x="140" y="1111"/>
      <point x="140" y="1188" type="curve" smooth="yes"/>
      <point x="140" y="1196"/>
      <point x="181" y="1680"/>
      <point x="760" y="1680" type="curve" smooth="yes"/>
      <point x="1115" y="1680"/>
      <point x="1365" y="1410"/>
      <point x="1365" y="1100" type="curve" smooth="yes"/>
      <point x="1365" y="875" type="line" smooth="yes"/>
      <point x="1365" y="872"/>
      <point x="1365" y="869"/>
      <point x="1365" y="866" type="curve" smooth="yes"/>
      <point x="1365" y="280" type="line" smooth="yes"/>
      <point x="1365" y="270"/>
      <point x="1366" y="149"/>
      <point x="1401" y="116" type="curve"/>
      <point x="1454" y="117"/>
      <point x="1519" y="126"/>
      <point x="1519" y="126" type="curve" smooth="yes"/>
      <point x="1524" y="127"/>
      <point x="1531" y="128"/>
      <point x="1540" y="128" type="curve" smooth="yes"/>
      <point x="1617" y="128"/>
      <point x="1680" y="65"/>
      <point x="1680" y="-12" type="curve" smooth="yes"/>
      <point x="1680" y="-146"/>
      <point x="1545" y="-164"/>
      <point x="1395" y="-164" type="curve" smooth="yes"/>
      <point x="1354" y="-164"/>
      <point x="1251" y="-152"/>
      <point x="1171" y="-45" type="curve"/>
      <point x="1124" y="-77"/>
      <point x="983" y="-160"/>
    </contour>
    <contour>
      <point x="420" y="315" type="curve" smooth="yes"/>
      <point x="420" y="159"/>
      <point x="659" y="120"/>
      <point x="770" y="120" type="curve" smooth="yes"/>
      <point x="815" y="120"/>
      <point x="1084" y="136"/>
      <point x="1084" y="315" type="curve" smooth="yes"/>
      <point x="1084" y="315"/>
      <point x="1085" y="519"/>
      <point x="1085" y="719" type="curve"/>
      <point x="1010" y="713"/>
      <point x="916" y="702"/>
      <point x="838" y="681" type="curve" smooth="yes"/>
      <point x="509" y="593"/>
      <point x="420" y="481"/>
    </contour>
  </outline>
</glyph>
<glyph name="b" format="2">
  <advance width="1855"/>
  <unicode hex="0062"/>
  <outline>
    <contour>
      <point x="140" y="-1" type="curve" smooth="yes"/>
      <point x="140" y="2520" type="line" smooth="yes"/>
      <point x="140" y="2597"/>
      <point x="203" y="2660"/>
      <point x="280" y="2660" type="curve" smooth="yes"/>
      <point x="357" y="2660"/>
      <point x="420" y="2597"/>
      <point x="420" y="2520" type="curve" smooth="yes"/>
      <point x="420" y="1596" type="line"/>
      <point x="502" y="1649"/>
      <point x="596" y="1680"/>
      <point x="700" y="1680" type="curve" smooth="yes"/>
      <point x="1071" y="1680"/>
      <point x="1365" y="1271"/>
      <point x="1365" y="758" type="curve" smooth="yes"/>
      <point x="1365" y="245"/>
      <point x="1071" y="-164"/>
      <point x="700" y="-164" type="curve" smooth="yes"/>
      <point x="631" y="-164"/>
      <point x="519" y="-150"/>
      <point x="401" y="-71" type="curve"/>
      <point x="377" y="-113"/>
      <point x="332" y="-141"/>
      <point x="280" y="-141" type="curve" smooth="yes"/>
      <point x="203" y="-141"/>
      <point x="140" y="-78"/>
    </contour>
    <contour>
      <point x="420" y="320" type="line"/>
      <point x="480" y="212"/>
      <point x="575" y="116"/>
      <point x="700" y="116" type="curve" smooth="yes"/>
      <point x="902" y="116"/>
      <point x="1085" y="402"/>
      <point x="1085" y="758" type="curve" smooth="yes"/>
      <point x="1085" y="1113"/>
      <point x="902" y="1400"/>
      <point x="700" y="1400" type="curve" smooth="yes"/>
      <point x="605" y="1400"/>
      <point x="500" y="1334"/>
      <point x="420" y="1188" type="curve"/>
    </contour>
  </outline>
</glyph>
<glyph name="c" format="2">
  <advance width="1918"/>
  <unicode hex="0063"/>
  <outline>
    <contour>
      <point x="1428" y="448" type="curve" smooth="yes"/>
      <point x="1428" y="234"/>
      <point x="1235" y="-164"/>
      <point x="816" y="-164" type="curve" smooth="yes"/>
      <point x="440" y="-164"/>
      <point x="140" y="245"/>
      <point x="140" y="758" type="curve" smooth="yes"/>
      <point x="140" y="1271"/>
      <point x="440" y="1680"/>
      <point x="816" y="1680" type="curve" smooth="yes"/>
      <point x="1252" y="1680"/>
      <point x="1389" y="1236"/>
      <point x="1389" y="1093" type="curve" smooth="yes"/>
      <point x="1389" y="1016"/>
      <point x="1326" y="953"/>
      <point x="1249" y="953" type="curve" smooth="yes"/>
      <point x="1178" y="953"/>
      <point x="1119" y="1007"/>
      <point x="1110" y="1076" type="curve" smooth="yes"/>
      <point x="1103" y="1133"/>
      <point x="1057" y="1400"/>
      <point x="816" y="1400" type="curve" smooth="yes"/>
      <point x="608" y="1400"/>
      <point x="420" y="1113"/>
      <point x="420" y="758" type="curve" smooth="yes"/>
      <point x="420" y="403"/>
      <point x="608" y="116"/>
      <point x="816" y="116" type="curve" smooth="yes"/>
      <point x="1001" y="116"/>
      <point x="1133" y="270"/>
      <point x="1149" y="459" type="curve" smooth="yes"/>
      <point x="1155" y="531"/>
      <point x="1215" y="588"/>
      <point x="1288" y="588" type="curve" smooth="yes"/>
      <point x="1365" y="588"/>
      <point x="1428" y="525"/>
    </contour>
  </outline>
</glyph>
<glyph name="d" format="2">
  <advance width="1855"/>
  <unicode hex="0064"/>
  <outline>
    <contour>
      <point x="140" y="758" type="curve" smooth="yes"/>
      <point x="140" y="1271"/>
      <point x="434" y="1680"/>
      <point x="805" y="1680" type="curve" smooth="yes"/>
      <point x="909" y="1680"/>
      <point x="1003" y="1649"/>
      <point x="1085" y="1596" type="curve"/>
      <point x="1085" y="2520" type="line" smooth="yes"/>
      <point x="1085" y="2597"/>
      <point x="1148" y="2660"/>
      <point x="1225" y="2660" type="curve" smooth="yes"/>
      <point x="1302" y="2660"/>
      <point x="1365" y="2597"/>
      <point x="1365" y="2520" type="curve" smooth="yes"/>
      <point x="1365" y="-1" type="line" smooth="yes"/>
      <point x="1365" y="-78"/>
      <point x="1302" y="-141"/>
      <point x="1225" y="-141" type="curve" smooth="yes"/>
      <point x="1173" y="-141"/>
      <point x="1128" y="-113"/>
      <point x="1104" y="-71" type="curve"/>
      <point x="1059" y="-101"/>
      <point x="954" y="-164"/>
      <point x="805" y="-164" type="curve" smooth="yes"/>
      <point x="434" y="-164"/>
      <point x="140" y="245"/>
    </contour>
    <contour>
      <point x="420" y="758" type="curve" smooth="yes"/>
      <point x="420" y="403"/>
      <point x="603" y="116"/>
      <point x="805" y="116" type="curve" smooth="yes"/>
      <point x="930" y="116"/>
      <point x="1025" y="212"/>
      <point x="1085" y="320" type="curve"/>
      <point x="1085" y="1188" type="line"/>
      <point x="1005" y="1334"/>
      <point x="900" y="1400"/>
      <point x="805" y="1400" type="curve" smooth="yes"/>
      <point x="603" y="1400"/>
      <point x="420" y="1114"/>
    </contour>
  </outline>
</glyph>
<glyph name="e" format="2">
  <advance width="1924"/>
  <unicode hex="0065"/>
  <outline>
    <contour>
      <point x="1434" y="433" type="curve" smooth="yes"/>
      <point x="1434" y="337"/>
      <point x="1250" y="-164"/>
      <point x="805" y="-164" type="curve" smooth="yes"/>
      <point x="436" y="-164"/>
      <point x="140" y="241"/>
      <point x="140" y="748" type="curve" smooth="yes"/>
      <point x="140" y="1264"/>
      <point x="430" y="1680"/>
      <point x="805" y="1680" type="curve" smooth="yes"/>
      <point x="1217" y="1680"/>
      <point x="1434" y="1186"/>
      <point x="1434" y="948" type="curve" smooth="yes"/>
      <point x="1434" y="770"/>
      <point x="1314" y="736"/>
      <point x="1260" y="736" type="curve" smooth="yes"/>
      <point x="420" y="736" type="line"/>
      <point x="424" y="390"/>
      <point x="608" y="116"/>
      <point x="805" y="116" type="curve" smooth="yes"/>
      <point x="962" y="116"/>
      <point x="1099" y="255"/>
      <point x="1159" y="471" type="curve" smooth="yes"/>
      <point x="1175" y="530"/>
      <point x="1230" y="573"/>
      <point x="1294" y="573" type="curve" smooth="yes"/>
      <point x="1371" y="573"/>
      <point x="1434" y="510"/>
    </contour>
    <contour>
      <point x="455" y="1016" type="curve"/>
      <point x="1145" y="1016" type="line"/>
      <point x="1117" y="1138"/>
      <point x="999" y="1400"/>
      <point x="805" y="1400" type="curve" smooth="yes"/>
      <point x="651" y="1400"/>
      <point x="515" y="1234"/>
    </contour>
  </outline>
</glyph>
<glyph name="f" format="2">
  <advance width="1959"/>
  <unicode hex="0066"/>
  <outline>
    <contour>
      <point x="34" y="1590" type="curve" smooth="yes"/>
      <point x="34" y="1667"/>
      <point x="97" y="1730"/>
      <point x="174" y="1730" type="curve" smooth="yes"/>
      <point x="454" y="1731" type="line"/>
      <point x="455" y="2101" type="line" smooth="yes"/>
      <point x="455" y="2410"/>
      <point x="704" y="2661"/>
      <point x="1014" y="2661" type="curve" smooth="yes"/>
      <point x="1323" y="2661"/>
      <point x="1574" y="2410"/>
      <point x="1574" y="2101" type="curve" smooth="yes"/>
      <point x="1574" y="2046" type="line" smooth="yes"/>
      <point x="1574" y="1969"/>
      <point x="1511" y="1906"/>
      <point x="1434" y="1906" type="curve" smooth="yes"/>
      <point x="1357" y="1906"/>
      <point x="1294" y="1969"/>
      <point x="1294" y="2046" type="curve" smooth="yes"/>
      <point x="1294" y="2101" type="line" smooth="yes"/>
      <point x="1294" y="2256"/>
      <point x="1169" y="2381"/>
      <point x="1014" y="2381" type="curve" smooth="yes"/>
      <point x="860" y="2381"/>
      <point x="735" y="2256"/>
      <point x="735" y="2101" type="curve" smooth="yes"/>
      <point x="734" y="1731" type="line"/>
      <point x="1154" y="1730" type="line" smooth="yes"/>
      <point x="1231" y="1730"/>
      <point x="1294" y="1667"/>
      <point x="1294" y="1590" type="curve" smooth="yes"/>
      <point x="1294" y="1513"/>
      <point x="1231" y="1450"/>
      <point x="1154" y="1450" type="curve" smooth="yes"/>
      <point x="734" y="1450" type="line"/>
      <point x="734" y="1" type="line" smooth="yes"/>
      <point x="734" y="-76"/>
      <point x="671" y="-139"/>
      <point x="594" y="-139" type="curve" smooth="yes"/>
      <point x="517" y="-139"/>
      <point x="454" y="-76"/>
      <point x="454" y="1" type="curve" smooth="yes"/>
      <point x="454" y="1450" type="line"/>
      <point x="174" y="1450" type="line" smooth="yes"/>
      <point x="97" y="1450"/>
      <point x="34" y="1513"/>
    </contour>
  </outline>
</glyph>
<glyph name="g" format="2">
  <advance width="1869"/>
  <unicode hex="0067"/>
  <outline>
    <contour>
      <point x="858" y="-563" type="curve" smooth="yes"/>
      <point x="460" y="-563"/>
      <point x="87" y="-376"/>
      <point x="87" y="-104" type="curve" smooth="yes"/>
      <point x="87" y="-50"/>
      <point x="103" y="51"/>
      <point x="210" y="139" type="curve"/>
      <point x="165" y="211"/>
      <point x="140" y="295"/>
      <point x="140" y="386" type="curve" smooth="yes"/>
      <point x="140" y="522"/>
      <point x="198" y="645"/>
      <point x="291" y="731" type="curve"/>
      <point x="248" y="792"/>
      <point x="183" y="914"/>
      <point x="183" y="1080" type="curve" smooth="yes"/>
      <point x="183" y="1360"/>
      <point x="372" y="1588"/>
      <point x="623" y="1616" type="curve"/>
      <point x="670" y="1753"/>
      <point x="801" y="1852"/>
      <point x="954" y="1852" type="curve" smooth="yes"/>
      <point x="1001" y="1852"/>
      <point x="1148" y="1841"/>
      <point x="1148" y="1705" type="curve" smooth="yes"/>
      <point x="1148" y="1628"/>
      <point x="1085" y="1565"/>
      <point x="1008" y="1565" type="curve" smooth="yes"/>
      <point x="980" y="1565"/>
      <point x="972" y="1572"/>
      <point x="954" y="1572" type="curve" smooth="yes"/>
      <point x="938" y="1572"/>
      <point x="922" y="1566"/>
      <point x="910" y="1557" type="curve"/>
      <point x="955" y="1532"/>
      <point x="1201" y="1378"/>
      <point x="1201" y="1041" type="curve" smooth="yes"/>
      <point x="1201" y="739"/>
      <point x="983" y="502"/>
      <point x="709" y="502" type="curve" smooth="yes"/>
      <point x="638" y="502"/>
      <point x="571" y="519"/>
      <point x="509" y="547" type="curve"/>
      <point x="456" y="513"/>
      <point x="420" y="453"/>
      <point x="420" y="386" type="curve" smooth="yes"/>
      <point x="420" y="336"/>
      <point x="440" y="291"/>
      <point x="471" y="257" type="curve"/>
      <point x="546" y="274"/>
      <point x="626" y="283"/>
      <point x="712" y="283" type="curve" smooth="yes"/>
      <point x="1110" y="283"/>
      <point x="1483" y="96"/>
      <point x="1483" y="-176" type="curve" smooth="yes"/>
      <point x="1483" y="-400"/>
      <point x="1229" y="-563"/>
    </contour>
    <contour>
      <point x="1203" y="-176" type="curve"/>
      <point x="1198" y="-125"/>
      <point x="1009" y="3"/>
      <point x="712" y="3" type="curve" smooth="yes"/>
      <point x="478" y="3"/>
      <point x="367" y="-82"/>
      <point x="367" y="-104" type="curve" smooth="yes"/>
      <point x="372" y="-155"/>
      <point x="561" y="-283"/>
      <point x="858" y="-283" type="curve" smooth="yes"/>
      <point x="1092" y="-283"/>
      <point x="1203" y="-198"/>
    </contour>
    <contour>
      <point x="463" y="1080" type="curve" smooth="yes"/>
      <point x="463" y="917"/>
      <point x="581" y="782"/>
      <point x="709" y="782" type="curve" smooth="yes"/>
      <point x="834" y="782"/>
      <point x="921" y="904"/>
      <point x="921" y="1041" type="curve" smooth="yes"/>
      <point x="921" y="1204"/>
      <point x="803" y="1339"/>
      <point x="675" y="1339" type="curve" smooth="yes"/>
      <point x="550" y="1339"/>
      <point x="463" y="1217"/>
    </contour>
  </outline>
</glyph>
<glyph name="h" format="2">
  <advance width="1854"/>
  <unicode hex="0068"/>
  <outline>
    <contour>
      <point x="140" y="-0" type="curve" smooth="yes"/>
      <point x="140" y="2520" type="line" smooth="yes"/>
      <point x="140" y="2597"/>
      <point x="203" y="2660"/>
      <point x="280" y="2660" type="curve" smooth="yes"/>
      <point x="357" y="2660"/>
      <point x="420" y="2597"/>
      <point x="420" y="2520" type="curve" smooth="yes"/>
      <point x="420" y="1582" type="line"/>
      <point x="515" y="1644"/>
      <point x="629" y="1680"/>
      <point x="752" y="1680" type="curve" smooth="yes"/>
      <point x="1090" y="1680"/>
      <point x="1364" y="1406"/>
      <point x="1364" y="1068" type="curve" smooth="yes"/>
      <point x="1364" y="0" type="line" smooth="yes"/>
      <point x="1364" y="-77"/>
      <point x="1301" y="-140"/>
      <point x="1224" y="-140" type="curve" smooth="yes"/>
      <point x="1147" y="-140"/>
      <point x="1084" y="-77"/>
      <point x="1084" y="0" type="curve" smooth="yes"/>
      <point x="1084" y="1068" type="line" smooth="yes"/>
      <point x="1084" y="1252"/>
      <point x="936" y="1400"/>
      <point x="752" y="1400" type="curve" smooth="yes"/>
      <point x="568" y="1400"/>
      <point x="421" y="1252"/>
      <point x="421" y="1068" type="curve" smooth="yes"/>
      <point x="420" y="-0" type="line" smooth="yes"/>
      <point x="420" y="-77"/>
      <point x="357" y="-140"/>
      <point x="280" y="-140" type="curve" smooth="yes"/>
      <point x="203" y="-140"/>
      <point x="140" y="-77"/>
    </contour>
  </outline>
</glyph>
<glyph name="i" format="2">
  <advance width="910"/>
  <unicode hex="0069"/>
  <outline>
    <contour>
      <point x="88" y="2345" type="curve" smooth="yes"/>
      <point x="88" y="2452"/>
      <point x="174" y="2538"/>
      <point x="280" y="2538" type="curve" smooth="yes"/>
      <point x="387" y="2538"/>
      <point x="473" y="2451"/>
      <point x="473" y="2345" type="curve" smooth="yes"/>
      <point x="473" y="2239"/>
      <point x="387" y="2152"/>
      <point x="280" y="2152" type="curve" smooth="yes"/>
      <point x="174" y="2152"/>
      <point x="88" y="2238"/>
    </contour>
    <contour>
      <point x="140" y="0" type="curve" smooth="yes"/>
      <point x="140" y="1540" type="line" smooth="yes"/>
      <point x="140" y="1617"/>
      <point x="203" y="1680"/>
      <point x="280" y="1680" type="curve" smooth="yes"/>
      <point x="357" y="1680"/>
      <point x="420" y="1617"/>
      <point x="420" y="1540" type="curve" smooth="yes"/>
      <point x="420" y="0" type="line" smooth="yes"/>
      <point x="420" y="-77"/>
      <point x="357" y="-140"/>
      <point x="280" y="-140" type="curve" smooth="yes"/>
      <point x="203" y="-140"/>
      <point x="140" y="-77"/>
    </contour>
    <contour>
      <point x="193" y="2345" type="line"/>
      <point x="280" y="2258" type="line"/>
      <point x="368" y="2345" type="line"/>
      <point x="280" y="2432" type="line"/>
    </contour>
  </outline>
</glyph>
<glyph name="j" format="2">
  <advance width="1363"/>
  <unicode hex="006A"/>
  <outline>
    <contour>
      <point x="33" y="0" type="line" smooth="yes"/>
      <point x="33" y="77"/>
      <point x="96" y="140"/>
      <point x="173" y="140" type="curve" smooth="yes"/>
      <point x="250" y="140"/>
      <point x="313" y="77"/>
      <point x="313" y="0" type="curve" smooth="yes"/>
      <point x="313" y="-55" type="line" smooth="yes"/>
      <point x="313" y="-133"/>
      <point x="375" y="-195"/>
      <point x="453" y="-195" type="curve" smooth="yes"/>
      <point x="531" y="-195"/>
      <point x="593" y="-133"/>
      <point x="593" y="-55" type="curve" smooth="yes"/>
      <point x="593" y="1540" type="line" smooth="yes"/>
      <point x="593" y="1617"/>
      <point x="656" y="1680"/>
      <point x="733" y="1680" type="curve" smooth="yes"/>
      <point x="810" y="1680"/>
      <point x="873" y="1617"/>
      <point x="873" y="1540" type="curve" smooth="yes"/>
      <point x="873" y="-55" type="line" smooth="yes"/>
      <point x="873" y="-287"/>
      <point x="685" y="-475"/>
      <point x="453" y="-475" type="curve" smooth="yes"/>
      <point x="221" y="-475"/>
      <point x="33" y="-287"/>
      <point x="33" y="-55" type="curve" smooth="yes"/>
    </contour>
    <contour>
      <point x="541" y="2345" type="curve" smooth="yes"/>
      <point x="541" y="2452"/>
      <point x="628" y="2538"/>
      <point x="734" y="2538" type="curve" smooth="yes"/>
      <point x="840" y="2538"/>
      <point x="926" y="2452"/>
      <point x="926" y="2345" type="curve" smooth="yes"/>
      <point x="926" y="2238"/>
      <point x="840" y="2152"/>
      <point x="734" y="2152" type="curve" smooth="yes"/>
      <point x="628" y="2152"/>
      <point x="541" y="2238"/>
    </contour>
    <contour>
      <point x="646" y="2345" type="line"/>
      <point x="734" y="2258" type="line"/>
      <point x="821" y="2345" type="line"/>
      <point x="734" y="2432" type="line"/>
    </contour>
  </outline>
</glyph>
<glyph name="k" format="2">
  <advance width="1914"/>
  <unicode hex="006B"/>
  <outline>
    <contour>
      <point x="140" y="-0" type="curve" smooth="yes"/>
      <point x="140" y="0"/>
      <point x="140" y="280"/>
      <point x="140" y="653" type="curve" smooth="yes"/>
      <point x="140" y="1400"/>
      <point x="140" y="2520"/>
      <point x="140" y="2520" type="curve" smooth="yes"/>
      <point x="140" y="2597"/>
      <point x="203" y="2660"/>
      <point x="280" y="2660" type="curve" smooth="yes"/>
      <point x="357" y="2660"/>
      <point x="420" y="2597"/>
      <point x="420" y="2520" type="curve" smooth="yes"/>
      <point x="420" y="768" type="line"/>
      <point x="1185" y="1534" type="line" smooth="yes"/>
      <point x="1210" y="1559"/>
      <point x="1245" y="1575"/>
      <point x="1284" y="1575" type="curve" smooth="yes"/>
      <point x="1361" y="1575"/>
      <point x="1424" y="1512"/>
      <point x="1424" y="1435" type="curve" smooth="yes"/>
      <point x="1424" y="1396"/>
      <point x="1408" y="1361"/>
      <point x="1383" y="1336" type="curve" smooth="yes"/>
      <point x="1000" y="952" type="line"/>
      <point x="1509" y="70" type="line" smooth="yes"/>
      <point x="1521" y="49"/>
      <point x="1528" y="25"/>
      <point x="1528" y="-0" type="curve" smooth="yes"/>
      <point x="1528" y="-77"/>
      <point x="1465" y="-140"/>
      <point x="1388" y="-140" type="curve" smooth="yes"/>
      <point x="1336" y="-140"/>
      <point x="1291" y="-112"/>
      <point x="1267" y="-70" type="curve" smooth="yes"/>
      <point x="795" y="747" type="line"/>
      <point x="421" y="373" type="line"/>
      <point x="420" y="-1" type="line" smooth="yes"/>
      <point x="420" y="-78"/>
      <point x="357" y="-140"/>
      <point x="280" y="-140" type="curve" smooth="yes"/>
      <point x="203" y="-140"/>
      <point x="140" y="-77"/>
    </contour>
  </outline>
</glyph>
<glyph name="m" format="2">
  <advance width="2514"/>
  <unicode hex="006D"/>
  <outline>
    <contour>
      <point x="1083" y="1479" type="curve"/>
      <point x="1136" y="1545"/>
      <point x="1270" y="1680"/>
      <point x="1485" y="1680" type="curve" smooth="yes"/>
      <point x="1783" y="1680"/>
      <point x="2025" y="1409"/>
      <point x="2025" y="1068" type="curve" smooth="yes"/>
      <point x="2024" y="-0" type="line" smooth="yes"/>
      <point x="2024" y="-77"/>
      <point x="1961" y="-140"/>
      <point x="1884" y="-140" type="curve" smooth="yes"/>
      <point x="1807" y="-140"/>
      <point x="1744" y="-77"/>
      <point x="1744" y="0" type="curve" smooth="yes"/>
      <point x="1745" y="1068" type="line" smooth="yes"/>
      <point x="1745" y="1250"/>
      <point x="1629" y="1400"/>
      <point x="1485" y="1400" type="curve" smooth="yes"/>
      <point x="1341" y="1400"/>
      <point x="1223" y="1250"/>
      <point x="1223" y="1068" type="curve" smooth="yes"/>
      <point x="1222" y="-0" type="line" smooth="yes"/>
      <point x="1222" y="-77"/>
      <point x="1159" y="-140"/>
      <point x="1082" y="-140" type="curve" smooth="yes"/>
      <point x="1005" y="-140"/>
      <point x="942" y="-77"/>
      <point x="942" y="-0" type="curve" smooth="yes"/>
      <point x="942" y="1068" type="line" smooth="yes"/>
      <point x="942" y="1250"/>
      <point x="825" y="1400"/>
      <point x="681" y="1400" type="curve" smooth="yes"/>
      <point x="537" y="1400"/>
      <point x="421" y="1250"/>
      <point x="421" y="1068" type="curve" smooth="yes"/>
      <point x="420" y="-0" type="line" smooth="yes"/>
      <point x="420" y="-77"/>
      <point x="357" y="-140"/>
      <point x="280" y="-140" type="curve" smooth="yes"/>
      <point x="203" y="-140"/>
      <point x="140" y="-77"/>
      <point x="140" y="-0" type="curve" smooth="yes"/>
      <point x="140" y="1516" type="line" smooth="yes"/>
      <point x="140" y="1593"/>
      <point x="203" y="1656"/>
      <point x="280" y="1656" type="curve" smooth="yes"/>
      <point x="330" y="1656"/>
      <point x="374" y="1629"/>
      <point x="399" y="1590" type="curve"/>
      <point x="458" y="1631"/>
      <point x="555" y="1680"/>
      <point x="681" y="1680" type="curve" smooth="yes"/>
      <point x="760" y="1680"/>
      <point x="940" y="1658"/>
    </contour>
  </outline>
</glyph>
<glyph name="n" format="2">
  <advance width="1854"/>
  <unicode hex="006E"/>
  <outline>
    <contour>
      <point x="140" y="-0" type="curve" smooth="yes"/>
      <point x="140" y="1516" type="line" smooth="yes"/>
      <point x="140" y="1593"/>
      <point x="203" y="1656"/>
      <point x="280" y="1656" type="curve" smooth="yes"/>
      <point x="337" y="1656"/>
      <point x="386" y="1622"/>
      <point x="408" y="1574" type="curve"/>
      <point x="506" y="1641"/>
      <point x="624" y="1680"/>
      <point x="752" y="1680" type="curve" smooth="yes"/>
      <point x="1090" y="1680"/>
      <point x="1364" y="1406"/>
      <point x="1364" y="1068" type="curve" smooth="yes"/>
      <point x="1364" y="0" type="line" smooth="yes"/>
      <point x="1364" y="-77"/>
      <point x="1301" y="-140"/>
      <point x="1224" y="-140" type="curve" smooth="yes"/>
      <point x="1147" y="-140"/>
      <point x="1084" y="-77"/>
      <point x="1084" y="0" type="curve" smooth="yes"/>
      <point x="1084" y="1068" type="line" smooth="yes"/>
      <point x="1084" y="1252"/>
      <point x="936" y="1400"/>
      <point x="752" y="1400" type="curve" smooth="yes"/>
      <point x="568" y="1400"/>
      <point x="421" y="1252"/>
      <point x="421" y="1068" type="curve" smooth="yes"/>
      <point x="420" y="-0" type="line" smooth="yes"/>
      <point x="420" y="-77"/>
      <point x="357" y="-140"/>
      <point x="280" y="-140" type="curve" smooth="yes"/>
      <point x="203" y="-140"/>
      <point x="140" y="-77"/>
    </contour>
  </outline>
</glyph>
<glyph name="o" format="2">
  <advance width="1965"/>
  <unicode hex="006F"/>
  <outline>
    <contour>
      <point x="140" y="748" type="curve" smooth="yes"/>
      <point x="140" y="1264"/>
      <point x="430" y="1680"/>
      <point x="805" y="1680" type="curve" smooth="yes"/>
      <point x="1176" y="1680"/>
      <point x="1470" y="1271"/>
      <point x="1470" y="758" type="curve" smooth="yes"/>
      <point x="1470" y="245"/>
      <point x="1176" y="-164"/>
      <point x="805" y="-164" type="curve" smooth="yes"/>
      <point x="436" y="-164"/>
      <point x="140" y="241"/>
    </contour>
    <contour>
      <point x="420" y="748" type="curve" smooth="yes"/>
      <point x="420" y="397"/>
      <point x="605" y="116"/>
      <point x="805" y="116" type="curve" smooth="yes"/>
      <point x="1007" y="116"/>
      <point x="1190" y="402"/>
      <point x="1190" y="758" type="curve" smooth="yes"/>
      <point x="1190" y="1113"/>
      <point x="1007" y="1400"/>
      <point x="805" y="1400" type="curve" smooth="yes"/>
      <point x="601" y="1400"/>
      <point x="420" y="1106"/>
    </contour>
  </outline>
</glyph>
<glyph name="p" format="2">
  <advance width="1855"/>
  <unicode hex="0070"/>
  <outline>
    <contour>
      <point x="140" y="-1004" type="curve" smooth="yes"/>
      <point x="140" y="1516" type="line" smooth="yes"/>
      <point x="140" y="1593"/>
      <point x="203" y="1656"/>
      <point x="280" y="1656" type="curve" smooth="yes"/>
      <point x="331" y="1656"/>
      <point x="377" y="1628"/>
      <point x="401" y="1587" type="curve"/>
      <point x="446" y="1617"/>
      <point x="551" y="1680"/>
      <point x="700" y="1680" type="curve" smooth="yes"/>
      <point x="1071" y="1680"/>
      <point x="1365" y="1271"/>
      <point x="1365" y="758" type="curve" smooth="yes"/>
      <point x="1365" y="245"/>
      <point x="1071" y="-164"/>
      <point x="700" y="-164" type="curve" smooth="yes"/>
      <point x="596" y="-164"/>
      <point x="502" y="-133"/>
      <point x="420" y="-80" type="curve"/>
      <point x="420" y="-1004" type="line" smooth="yes"/>
      <point x="420" y="-1081"/>
      <point x="357" y="-1144"/>
      <point x="280" y="-1144" type="curve" smooth="yes"/>
      <point x="203" y="-1144"/>
      <point x="140" y="-1081"/>
    </contour>
    <contour>
      <point x="420" y="328" type="line"/>
      <point x="500" y="182"/>
      <point x="605" y="116"/>
      <point x="700" y="116" type="curve" smooth="yes"/>
      <point x="902" y="116"/>
      <point x="1085" y="402"/>
      <point x="1085" y="758" type="curve" smooth="yes"/>
      <point x="1085" y="1113"/>
      <point x="902" y="1400"/>
      <point x="700" y="1400" type="curve" smooth="yes"/>
      <point x="575" y="1400"/>
      <point x="480" y="1304"/>
      <point x="420" y="1196" type="curve"/>
    </contour>
  </outline>
</glyph>
<glyph name="q" format="2">
  <advance width="1855"/>
  <unicode hex="0071"/>
  <outline>
    <contour>
      <point x="140" y="758" type="curve" smooth="yes"/>
      <point x="140" y="1271"/>
      <point x="434" y="1680"/>
      <point x="805" y="1680" type="curve" smooth="yes"/>
      <point x="874" y="1680"/>
      <point x="986" y="1666"/>
      <point x="1104" y="1587" type="curve"/>
      <point x="1128" y="1628"/>
      <point x="1174" y="1656"/>
      <point x="1225" y="1656" type="curve" smooth="yes"/>
      <point x="1302" y="1656"/>
      <point x="1365" y="1593"/>
      <point x="1365" y="1516" type="curve" smooth="yes"/>
      <point x="1365" y="-1004" type="line" smooth="yes"/>
      <point x="1365" y="-1081"/>
      <point x="1302" y="-1144"/>
      <point x="1225" y="-1144" type="curve" smooth="yes"/>
      <point x="1148" y="-1144"/>
      <point x="1085" y="-1081"/>
      <point x="1085" y="-1004" type="curve" smooth="yes"/>
      <point x="1085" y="-80" type="line"/>
      <point x="1003" y="-133"/>
      <point x="909" y="-164"/>
      <point x="805" y="-164" type="curve" smooth="yes"/>
      <point x="434" y="-164"/>
      <point x="140" y="245"/>
    </contour>
    <contour>
      <point x="420" y="758" type="curve" smooth="yes"/>
      <point x="420" y="403"/>
      <point x="603" y="116"/>
      <point x="805" y="116" type="curve" smooth="yes"/>
      <point x="900" y="116"/>
      <point x="1005" y="182"/>
      <point x="1085" y="328" type="curve"/>
      <point x="1085" y="1196" type="line"/>
      <point x="1025" y="1304"/>
      <point x="930" y="1400"/>
      <point x="805" y="1400" type="curve" smooth="yes"/>
      <point x="603" y="1400"/>
      <point x="420" y="1114"/>
    </contour>
  </outline>
</glyph>
<glyph name="r" format="2">
  <advance width="1750"/>
  <unicode hex="0072"/>
  <outline>
    <contour>
      <point x="140" y="0" type="curve" smooth="yes"/>
      <point x="140" y="1540" type="line" smooth="yes"/>
      <point x="140" y="1617"/>
      <point x="203" y="1680"/>
      <point x="280" y="1680" type="curve" smooth="yes"/>
      <point x="337" y="1680"/>
      <point x="386" y="1647"/>
      <point x="408" y="1598" type="curve"/>
      <point x="493" y="1650"/>
      <point x="593" y="1680"/>
      <point x="700" y="1680" type="curve" smooth="yes"/>
      <point x="1009" y="1680"/>
      <point x="1260" y="1429"/>
      <point x="1260" y="1120" type="curve" smooth="yes"/>
      <point x="1260" y="1065" type="line" smooth="yes"/>
      <point x="1260" y="988"/>
      <point x="1197" y="925"/>
      <point x="1120" y="925" type="curve" smooth="yes"/>
      <point x="1043" y="925"/>
      <point x="980" y="988"/>
      <point x="980" y="1065" type="curve" smooth="yes"/>
      <point x="980" y="1120" type="line" smooth="yes"/>
      <point x="980" y="1275"/>
      <point x="855" y="1400"/>
      <point x="700" y="1400" type="curve" smooth="yes"/>
      <point x="546" y="1400"/>
      <point x="421" y="1275"/>
      <point x="421" y="1120" type="curve" smooth="yes"/>
      <point x="421" y="1114"/>
      <point x="421" y="1109"/>
      <point x="420" y="1103" type="curve" smooth="yes"/>
      <point x="420" y="0" type="line" smooth="yes"/>
      <point x="420" y="-77"/>
      <point x="357" y="-140"/>
      <point x="280" y="-140" type="curve" smooth="yes"/>
      <point x="203" y="-140"/>
      <point x="140" y="-77"/>
    </contour>
  </outline>
</glyph>
<glyph name="s" format="2">
  <advance width="1883"/>
  <unicode hex="0073"/>
  <outline>
    <contour>
      <point x="753" y="-164" type="curve" smooth="yes"/>
      <point x="266" y="-164"/>
      <point x="140" y="311"/>
      <point x="140" y="389" type="curve" smooth="yes"/>
      <point x="140" y="466"/>
      <point x="203" y="529"/>
      <point x="280" y="529" type="curve" smooth="yes"/>
      <point x="347" y="529"/>
      <point x="404" y="481"/>
      <point x="417" y="418" type="curve" smooth="yes"/>
      <point x="435" y="332"/>
      <point x="506" y="116"/>
      <point x="753" y="116" type="curve" smooth="yes"/>
      <point x="784" y="116"/>
      <point x="1113" y="122"/>
      <point x="1113" y="379" type="curve" smooth="yes"/>
      <point x="1113" y="436"/>
      <point x="1075" y="572"/>
      <point x="733" y="632" type="curve" smooth="yes"/>
      <point x="669" y="643"/>
      <point x="182" y="743"/>
      <point x="182" y="1149" type="curve" smooth="yes"/>
      <point x="182" y="1439"/>
      <point x="451" y="1680"/>
      <point x="753" y="1680" type="curve" smooth="yes"/>
      <point x="1174" y="1680"/>
      <point x="1336" y="1255"/>
      <point x="1336" y="1149" type="curve" smooth="yes"/>
      <point x="1336" y="1072"/>
      <point x="1273" y="1009"/>
      <point x="1196" y="1009" type="curve" smooth="yes"/>
      <point x="1129" y="1009"/>
      <point x="1072" y="1057"/>
      <point x="1059" y="1120" type="curve" smooth="yes"/>
      <point x="1058" y="1124"/>
      <point x="998" y="1400"/>
      <point x="753" y="1400" type="curve" smooth="yes"/>
      <point x="605" y="1400"/>
      <point x="462" y="1281"/>
      <point x="462" y="1149" type="curve" smooth="yes"/>
      <point x="462" y="1005"/>
      <point x="655" y="930"/>
      <point x="781" y="908" type="curve" smooth="yes"/>
      <point x="970" y="875"/>
      <point x="1393" y="758"/>
      <point x="1393" y="379" type="curve" smooth="yes"/>
      <point x="1393" y="106"/>
      <point x="1173" y="-164"/>
    </contour>
  </outline>
</glyph>
<glyph name="t" format="2">
  <advance width="1785"/>
  <unicode hex="0074"/>
  <outline>
    <contour>
      <point x="35" y="1540" type="curve" smooth="yes"/>
      <point x="35" y="1617"/>
      <point x="98" y="1680"/>
      <point x="175" y="1680" type="curve" smooth="yes"/>
      <point x="455" y="1680" type="line"/>
      <point x="455" y="1773"/>
      <point x="455" y="1867"/>
      <point x="455" y="1960" type="curve" smooth="yes"/>
      <point x="455" y="2037"/>
      <point x="518" y="2100"/>
      <point x="595" y="2100" type="curve" smooth="yes"/>
      <point x="672" y="2100"/>
      <point x="735" y="2037"/>
      <point x="735" y="1960" type="curve" smooth="yes"/>
      <point x="735" y="1681" type="line"/>
      <point x="1155" y="1680" type="line" smooth="yes"/>
      <point x="1232" y="1680"/>
      <point x="1295" y="1617"/>
      <point x="1295" y="1540" type="curve" smooth="yes"/>
      <point x="1295" y="1463"/>
      <point x="1232" y="1400"/>
      <point x="1155" y="1400" type="curve" smooth="yes"/>
      <point x="735" y="1400" type="line"/>
      <point x="735" y="280" type="line" smooth="yes"/>
      <point x="735" y="202"/>
      <point x="797" y="140"/>
      <point x="875" y="140" type="curve" smooth="yes"/>
      <point x="953" y="140"/>
      <point x="1015" y="202"/>
      <point x="1015" y="280" type="curve" smooth="yes"/>
      <point x="1015" y="335" type="line" smooth="yes"/>
      <point x="1015" y="412"/>
      <point x="1078" y="475"/>
      <point x="1155" y="475" type="curve" smooth="yes"/>
      <point x="1232" y="475"/>
      <point x="1295" y="412"/>
      <point x="1295" y="335" type="curve" smooth="yes"/>
      <point x="1295" y="280" type="line" smooth="yes"/>
      <point x="1295" y="48"/>
      <point x="1107" y="-140"/>
      <point x="875" y="-140" type="curve" smooth="yes"/>
      <point x="643" y="-140"/>
      <point x="455" y="48"/>
      <point x="455" y="280" type="curve" smooth="yes"/>
      <point x="455" y="1399" type="line"/>
      <point x="175" y="1400" type="line" smooth="yes"/>
      <point x="98" y="1400"/>
      <point x="35" y="1463"/>
    </contour>
  </outline>
</glyph>
<glyph name="u" format="2">
  <advance width="1854"/>
  <unicode hex="0075"/>
  <outline>
    <contour>
      <point x="140" y="448" type="curve" smooth="yes"/>
      <point x="140" y="1435" type="line" smooth="yes"/>
      <point x="140" y="1512"/>
      <point x="203" y="1575"/>
      <point x="280" y="1575" type="curve" smooth="yes"/>
      <point x="357" y="1575"/>
      <point x="420" y="1512"/>
      <point x="420" y="1435" type="curve" smooth="yes"/>
      <point x="420" y="448" type="line" smooth="yes"/>
      <point x="420" y="264"/>
      <point x="568" y="116"/>
      <point x="752" y="116" type="curve" smooth="yes"/>
      <point x="936" y="116"/>
      <point x="1083" y="264"/>
      <point x="1083" y="448" type="curve" smooth="yes"/>
      <point x="1084" y="1435" type="line" smooth="yes"/>
      <point x="1084" y="1512"/>
      <point x="1147" y="1575"/>
      <point x="1224" y="1575" type="curve" smooth="yes"/>
      <point x="1301" y="1575"/>
      <point x="1364" y="1512"/>
      <point x="1364" y="1435" type="curve" smooth="yes"/>
      <point x="1364" y="0" type="line" smooth="yes"/>
      <point x="1364" y="-77"/>
      <point x="1301" y="-140"/>
      <point x="1224" y="-140" type="curve" smooth="yes"/>
      <point x="1167" y="-140"/>
      <point x="1118" y="-106"/>
      <point x="1096" y="-58" type="curve"/>
      <point x="998" y="-125"/>
      <point x="880" y="-164"/>
      <point x="752" y="-164" type="curve" smooth="yes"/>
      <point x="414" y="-164"/>
      <point x="140" y="110"/>
    </contour>
  </outline>
</glyph>
<glyph name="v" format="2">
  <advance width="2011"/>
  <unicode hex="0076"/>
  <outline>
    <contour>
      <point x="140" y="1435" type="curve" smooth="yes"/>
      <point x="140" y="1512"/>
      <point x="203" y="1575"/>
      <point x="280" y="1575" type="curve" smooth="yes"/>
      <point x="340" y="1575"/>
      <point x="392" y="1537"/>
      <point x="412" y="1483" type="curve" smooth="yes"/>
      <point x="830" y="333" type="line"/>
      <point x="1249" y="1483" type="line" smooth="yes"/>
      <point x="1268" y="1537"/>
      <point x="1321" y="1575"/>
      <point x="1381" y="1575" type="curve" smooth="yes"/>
      <point x="1458" y="1575"/>
      <point x="1521" y="1512"/>
      <point x="1521" y="1435" type="curve" smooth="yes"/>
      <point x="1521" y="1418"/>
      <point x="1518" y="1402"/>
      <point x="1513" y="1387" type="curve" smooth="yes"/>
      <point x="990" y="-48" type="line" smooth="yes"/>
      <point x="970" y="-103"/>
      <point x="917" y="-140"/>
      <point x="858" y="-140" type="curve" smooth="yes"/>
      <point x="803" y="-140" type="line" smooth="yes"/>
      <point x="744" y="-140"/>
      <point x="692" y="-103"/>
      <point x="672" y="-48" type="curve" smooth="yes"/>
      <point x="148" y="1387" type="line" smooth="yes"/>
      <point x="143" y="1402"/>
      <point x="140" y="1418"/>
    </contour>
  </outline>
</glyph>
<glyph name="w" format="2">
  <advance width="2512"/>
  <unicode hex="0077"/>
  <outline>
    <contour>
      <point x="140" y="1435" type="curve" smooth="yes"/>
      <point x="140" y="1512"/>
      <point x="203" y="1575"/>
      <point x="280" y="1575" type="curve" smooth="yes"/>
      <point x="345" y="1575"/>
      <point x="399" y="1531"/>
      <point x="415" y="1471" type="curve" smooth="yes"/>
      <point x="680" y="485" type="line"/>
      <point x="931" y="1421" type="line" smooth="yes"/>
      <point x="947" y="1482"/>
      <point x="1003" y="1525"/>
      <point x="1066" y="1525" type="curve" smooth="yes"/>
      <point x="1096" y="1525" type="line" smooth="yes"/>
      <point x="1159" y="1525"/>
      <point x="1215" y="1482"/>
      <point x="1231" y="1421" type="curve" smooth="yes"/>
      <point x="1482" y="485" type="line"/>
      <point x="1747" y="1471" type="line" smooth="yes"/>
      <point x="1763" y="1531"/>
      <point x="1817" y="1575"/>
      <point x="1882" y="1575" type="curve" smooth="yes"/>
      <point x="1959" y="1575"/>
      <point x="2022" y="1512"/>
      <point x="2022" y="1435" type="curve" smooth="yes"/>
      <point x="2022" y="1422"/>
      <point x="2020" y="1411"/>
      <point x="2017" y="1399" type="curve" smooth="yes"/>
      <point x="1632" y="-36" type="line" smooth="yes"/>
      <point x="1616" y="-97"/>
      <point x="1560" y="-140"/>
      <point x="1497" y="-140" type="curve" smooth="yes"/>
      <point x="1455" y="-140"/>
      <point x="1360" y="-139"/>
      <point x="1332" y="-36" type="curve" smooth="yes"/>
      <point x="1081" y="900" type="line"/>
      <point x="830" y="-36" type="line" smooth="yes"/>
      <point x="814" y="-97"/>
      <point x="758" y="-140"/>
      <point x="695" y="-140" type="curve" smooth="yes"/>
      <point x="653" y="-140"/>
      <point x="558" y="-139"/>
      <point x="530" y="-36" type="curve" smooth="yes"/>
      <point x="145" y="1399" type="line" smooth="yes"/>
      <point x="142" y="1411"/>
      <point x="140" y="1422"/>
    </contour>
  </outline>
</glyph>
<glyph name="x" format="2">
  <advance width="1944"/>
  <unicode hex="0078"/>
  <outline>
    <contour>
      <point x="140" y="0" type="curve" smooth="yes"/>
      <point x="140" y="30"/>
      <point x="149" y="57"/>
      <point x="165" y="80" type="curve" smooth="yes"/>
      <point x="626" y="739" type="line"/>
      <point x="196" y="1355" type="line" smooth="yes"/>
      <point x="180" y="1378"/>
      <point x="171" y="1405"/>
      <point x="171" y="1435" type="curve" smooth="yes"/>
      <point x="171" y="1512"/>
      <point x="234" y="1575"/>
      <point x="311" y="1575" type="curve" smooth="yes"/>
      <point x="358" y="1575"/>
      <point x="401" y="1551"/>
      <point x="426" y="1515" type="curve" smooth="yes"/>
      <point x="797" y="984" type="line"/>
      <point x="1169" y="1515" type="line" smooth="yes"/>
      <point x="1194" y="1551"/>
      <point x="1237" y="1575"/>
      <point x="1284" y="1575" type="curve" smooth="yes"/>
      <point x="1361" y="1575"/>
      <point x="1424" y="1512"/>
      <point x="1424" y="1435" type="curve" smooth="yes"/>
      <point x="1424" y="1405"/>
      <point x="1415" y="1378"/>
      <point x="1399" y="1355" type="curve" smooth="yes"/>
      <point x="969" y="739" type="line"/>
      <point x="1429" y="80" type="line" smooth="yes"/>
      <point x="1445" y="57"/>
      <point x="1454" y="30"/>
      <point x="1454" y="0" type="curve" smooth="yes"/>
      <point x="1454" y="-77"/>
      <point x="1391" y="-140"/>
      <point x="1314" y="-140" type="curve" smooth="yes"/>
      <point x="1266" y="-140"/>
      <point x="1224" y="-116"/>
      <point x="1199" y="-80" type="curve" smooth="yes"/>
      <point x="797" y="495" type="line"/>
      <point x="395" y="-80" type="line" smooth="yes"/>
      <point x="370" y="-116"/>
      <point x="327" y="-140"/>
      <point x="280" y="-140" type="curve" smooth="yes"/>
      <point x="203" y="-140"/>
      <point x="140" y="-77"/>
    </contour>
  </outline>
</glyph>
<glyph name="y" format="2">
  <advance width="2011"/>
  <unicode hex="0079"/>
  <outline>
    <contour>
      <point x="35" y="-83" type="curve" smooth="yes"/>
      <point x="35" y="-6"/>
      <point x="98" y="57"/>
      <point x="175" y="57" type="curve" smooth="yes"/>
      <point x="252" y="57"/>
      <point x="315" y="-6"/>
      <point x="315" y="-83" type="curve" smooth="yes"/>
      <point x="315" y="-161"/>
      <point x="377" y="-223"/>
      <point x="455" y="-223" type="curve" smooth="yes"/>
      <point x="511" y="-223"/>
      <point x="599" y="-203"/>
      <point x="678" y="-62" type="curve"/>
      <point x="676" y="-57"/>
      <point x="673" y="-53"/>
      <point x="671" y="-48" type="curve" smooth="yes"/>
      <point x="148" y="1387" type="line" smooth="yes"/>
      <point x="142" y="1402"/>
      <point x="140" y="1418"/>
      <point x="140" y="1435" type="curve" smooth="yes"/>
      <point x="140" y="1512"/>
      <point x="203" y="1575"/>
      <point x="280" y="1575" type="curve" smooth="yes"/>
      <point x="340" y="1575"/>
      <point x="392" y="1537"/>
      <point x="412" y="1483" type="curve" smooth="yes"/>
      <point x="830" y="333" type="line"/>
      <point x="1249" y="1483" type="line" smooth="yes"/>
      <point x="1269" y="1537"/>
      <point x="1321" y="1575"/>
      <point x="1381" y="1575" type="curve" smooth="yes"/>
      <point x="1458" y="1575"/>
      <point x="1521" y="1512"/>
      <point x="1521" y="1435" type="curve" smooth="yes"/>
      <point x="1521" y="1418"/>
      <point x="1519" y="1402"/>
      <point x="1513" y="1387" type="curve" smooth="yes"/>
      <point x="991" y="-48" type="line" smooth="yes"/>
      <point x="930" y="-217"/>
      <point x="778" y="-503"/>
      <point x="455" y="-503" type="curve" smooth="yes"/>
      <point x="223" y="-503"/>
      <point x="35" y="-315"/>
    </contour>
  </outline>
</glyph>
<glyph name="z" format="2">
  <advance width="1944"/>
  <unicode hex="007A"/>
  <outline>
    <contour>
      <point x="140" y="-0" type="curve" smooth="yes"/>
      <point x="140" y="9"/>
      <point x="140" y="44"/>
      <point x="165" y="80" type="curve" smooth="yes"/>
      <point x="1015" y="1295" type="line"/>
      <point x="310" y="1295" type="line" smooth="yes"/>
      <point x="233" y="1295"/>
      <point x="170" y="1358"/>
      <point x="170" y="1435" type="curve" smooth="yes"/>
      <point x="170" y="1512"/>
      <point x="233" y="1575"/>
      <point x="310" y="1575" type="curve" smooth="yes"/>
      <point x="1284" y="1575" type="line" smooth="yes"/>
      <point x="1362" y="1575"/>
      <point x="1424" y="1512"/>
      <point x="1424" y="1435" type="curve" smooth="yes"/>
      <point x="1424" y="1426"/>
      <point x="1424" y="1391"/>
      <point x="1399" y="1355" type="curve" smooth="yes"/>
      <point x="549" y="140" type="line"/>
      <point x="1314" y="140" type="line" smooth="yes"/>
      <point x="1391" y="140"/>
      <point x="1454" y="77"/>
      <point x="1454" y="0" type="curve" smooth="yes"/>
      <point x="1454" y="-77"/>
      <point x="1391" y="-140"/>
      <point x="1314" y="-140" type="curve" smooth="yes"/>
      <point x="280" y="-140" type="line" smooth="yes"/>
      <point x="202" y="-140"/>
      <point x="140" y="-77"/>
    </contour>
  </outline>
</glyph>
<glyph name="braceleft" format="2">
  <advance width="1750"/>
  <unicode hex="007B"/>
  <outline>
    <contour>
      <point x="840" y="1505" type="line" smooth="yes"/>
      <point x="840" y="1463"/>
      <point x="829" y="1342"/>
      <point x="721" y="1225" type="curve"/>
      <point x="755" y="1188"/>
      <point x="840" y="1083"/>
      <point x="840" y="945" type="curve" smooth="yes"/>
      <point x="840" y="140" type="line" smooth="yes"/>
      <point x="840" y="-15"/>
      <point x="965" y="-140"/>
      <point x="1120" y="-140" type="curve" smooth="yes"/>
      <point x="1197" y="-140"/>
      <point x="1260" y="-203"/>
      <point x="1260" y="-280" type="curve" smooth="yes"/>
      <point x="1260" y="-357"/>
      <point x="1197" y="-420"/>
      <point x="1120" y="-420" type="curve" smooth="yes"/>
      <point x="811" y="-420"/>
      <point x="560" y="-169"/>
      <point x="560" y="140" type="curve" smooth="yes"/>
      <point x="560" y="945" type="line" smooth="yes"/>
      <point x="560" y="991"/>
      <point x="495" y="1084"/>
      <point x="419" y="1084" type="curve"/>
      <point x="-0" y="-75565" type="line"/>
      <point x="-9802" y="-75495"/>
      <point x="-19580" y="-71707"/>
      <point x="-27025" y="-64208" type="curve" smooth="yes"/>
      <point x="-34469" y="-56710"/>
      <point x="-38187" y="-46906"/>
      <point x="-38187" y="-37104" type="curve" smooth="yes"/>
      <point x="-38187" y="-27208"/>
      <point x="-34398" y="-17315"/>
      <point x="-26827" y="-9799" type="curve" smooth="yes"/>
      <point x="-19328" y="-2354"/>
      <point x="-9523" y="1365"/>
      <point x="280" y="1365" type="curve" smooth="yes"/>
      <point x="420" y="1365" type="line" smooth="yes"/>
      <point x="493" y="1365"/>
      <point x="560" y="1459"/>
      <point x="560" y="1505" type="curve" smooth="yes"/>
      <point x="560" y="2310" type="line" smooth="yes"/>
      <point x="560" y="2619"/>
      <point x="811" y="2870"/>
      <point x="1120" y="2870" type="curve" smooth="yes"/>
      <point x="1197" y="2870"/>
      <point x="1260" y="2807"/>
      <point x="1260" y="2730" type="curve" smooth="yes"/>
      <point x="1260" y="2653"/>
      <point x="1197" y="2590"/>
      <point x="1120" y="2590" type="curve" smooth="yes"/>
      <point x="965" y="2590"/>
      <point x="840" y="2465"/>
      <point x="840" y="2310" type="curve" smooth="yes"/>
    </contour>
  </outline>
</glyph>
<glyph name="bar" format="2">
  <advance width="910"/>
  <unicode hex="007C"/>
  <outline>
    <contour>
      <point x="140" y="-420" type="curve" smooth="yes"/>
      <point x="140" y="2800" type="line" smooth="yes"/>
      <point x="140" y="2877"/>
      <point x="203" y="2940"/>
      <point x="280" y="2940" type="curve" smooth="yes"/>
      <point x="357" y="2940"/>
      <point x="420" y="2877"/>
      <point x="420" y="2800" type="curve" smooth="yes"/>
      <point x="420" y="-420" type="line" smooth="yes"/>
      <point x="420" y="-497"/>
      <point x="357" y="-560"/>
      <point x="280" y="-560" type="curve" smooth="yes"/>
      <point x="203" y="-560"/>
      <point x="140" y="-497"/>
    </contour>
  </outline>
</glyph>
<glyph name="braceright" format="2">
  <advance width="1750"/>
  <unicode hex="007D"/>
  <outline>
    <contour>
      <point x="980" y="1084" type="line" smooth="yes"/>
      <point x="906" y="1084"/>
      <point x="840" y="992"/>
      <point x="840" y="945" type="curve" smooth="yes"/>
      <point x="840" y="140" type="line" smooth="yes"/>
      <point x="840" y="-169"/>
      <point x="589" y="-420"/>
      <point x="280" y="-420" type="curve" smooth="yes"/>
      <point x="203" y="-420"/>
      <point x="140" y="-357"/>
      <point x="140" y="-280" type="curve" smooth="yes"/>
      <point x="140" y="-203"/>
      <point x="203" y="-140"/>
      <point x="280" y="-140" type="curve" smooth="yes"/>
      <point x="435" y="-140"/>
      <point x="560" y="-15"/>
      <point x="560" y="140" type="curve" smooth="yes"/>
      <point x="560" y="945" type="line" smooth="yes"/>
      <point x="560" y="989"/>
      <point x="571" y="1109"/>
      <point x="679" y="1225" type="curve"/>
      <point x="615" y="1295"/>
      <point x="560" y="1397"/>
      <point x="560" y="1505" type="curve" smooth="yes"/>
      <point x="560" y="2310" type="line" smooth="yes"/>
      <point x="560" y="2465"/>
      <point x="435" y="2590"/>
      <point x="280" y="2590" type="curve" smooth="yes"/>
      <point x="203" y="2590"/>
      <point x="140" y="2653"/>
      <point x="140" y="2730" type="curve" smooth="yes"/>
      <point x="140" y="2807"/>
      <point x="203" y="2870"/>
      <point x="280" y="2870" type="curve" smooth="yes"/>
      <point x="589" y="2870"/>
      <point x="840" y="2619"/>
      <point x="840" y="2310" type="curve" smooth="yes"/>
      <point x="840" y="1505" type="line" smooth="yes"/>
      <point x="840" y="1459"/>
      <point x="907" y="1365"/>
      <point x="980" y="1365" type="curve" smooth="yes"/>
      <point x="1120" y="1365" type="line" smooth="yes"/>
      <point x="1144" y="1365"/>
      <point x="1159" y="1339"/>
      <point x="1159" y="1293" type="curve" smooth="yes"/>
      <point x="1159" y="1274"/>
      <point x="1156" y="1215"/>
      <point x="1120" y="1137" type="curve"/>
      <point x="1120" y="1085" type="line"/>
      <point x="1092" y="1085" type="line"/>
      <point x="1064" y="1043"/>
      <point x="1033" y="1016"/>
      <point x="1009" y="1016" type="curve"/>
      <point x="981" y="1084" type="line" smooth="yes"/>
    </contour>
  </outline>
</glyph>
<glyph name="cent" format="2">
  <advance width="1918"/>
  <unicode hex="00A2"/>
  <outline>
    <contour>
      <point x="964" y="1660" type="curve"/>
      <point x="1318" y="1562"/>
      <point x="1389" y="1169"/>
      <point x="1389" y="1093" type="curve" smooth="yes"/>
      <point x="1389" y="1016"/>
      <point x="1326" y="953"/>
      <point x="1249" y="953" type="curve" smooth="yes"/>
      <point x="1178" y="953"/>
      <point x="1119" y="1007"/>
      <point x="1110" y="1076" type="curve" smooth="yes"/>
      <point x="1103" y="1136"/>
      <point x="1073" y="1282"/>
      <point x="961" y="1358" type="curve"/>
      <point x="949" y="145" type="line"/>
      <point x="982" y="161"/>
      <point x="1131" y="243"/>
      <point x="1149" y="459" type="curve" smooth="yes"/>
      <point x="1155" y="531"/>
      <point x="1215" y="588"/>
      <point x="1288" y="588" type="curve" smooth="yes"/>
      <point x="1365" y="588"/>
      <point x="1428" y="525"/>
      <point x="1428" y="448" type="curve" smooth="yes"/>
      <point x="1428" y="292"/>
      <point x="1306" y="-70"/>
      <point x="946" y="-150" type="curve"/>
      <point x="945" y="-235" type="line" smooth="yes"/>
      <point x="944" y="-312"/>
      <point x="882" y="-374"/>
      <point x="805" y="-374" type="curve" smooth="yes"/>
      <point x="728" y="-374"/>
      <point x="665" y="-311"/>
      <point x="665" y="-234" type="curve" smooth="yes"/>
      <point x="665" y="-233"/>
      <point x="665" y="-232"/>
      <point x="666" y="-142" type="curve"/>
      <point x="358" y="-48"/>
      <point x="140" y="322"/>
      <point x="140" y="758" type="curve" smooth="yes"/>
      <point x="140" y="1174"/>
      <point x="347" y="1573"/>
      <point x="684" y="1663" type="curve"/>
      <point x="685" y="1756" type="line" smooth="yes"/>
      <point x="686" y="1833"/>
      <point x="748" y="1895"/>
      <point x="825" y="1895" type="curve" smooth="yes"/>
      <point x="902" y="1895"/>
      <point x="965" y="1832"/>
      <point x="965" y="1755" type="curve" smooth="yes"/>
      <point x="965" y="1754"/>
      <point x="965" y="1754"/>
    </contour>
    <contour>
      <point x="420" y="758" type="curve" smooth="yes"/>
      <point x="420" y="490"/>
      <point x="527" y="261"/>
      <point x="669" y="164" type="curve"/>
      <point x="681" y="1359" type="line"/>
      <point x="534" y="1268"/>
      <point x="420" y="1035"/>
    </contour>
  </outline>
</glyph>
<glyph name="sterling" format="2">
  <advance width="2591"/>
  <unicode hex="00A3"/>
  <outline>
    <contour>
      <point x="140" y="1380" type="curve" smooth="yes"/>
      <point x="140" y="1457"/>
      <point x="202" y="1520"/>
      <point x="279" y="1520" type="curve" smooth="yes"/>
      <point x="560" y="1521" type="line"/>
      <point x="560" y="1890" type="line" smooth="yes"/>
      <point x="560" y="2316"/>
      <point x="906" y="2660"/>
      <point x="1331" y="2660" type="curve" smooth="yes"/>
      <point x="1756" y="2660"/>
      <point x="2101" y="2315"/>
      <point x="2101" y="1890" type="curve" smooth="yes"/>
      <point x="2101" y="1835" type="line" smooth="yes"/>
      <point x="2101" y="1758"/>
      <point x="2038" y="1695"/>
      <point x="1961" y="1695" type="curve" smooth="yes"/>
      <point x="1884" y="1695"/>
      <point x="1821" y="1758"/>
      <point x="1821" y="1835" type="curve" smooth="yes"/>
      <point x="1821" y="1890" type="line" smooth="yes"/>
      <point x="1821" y="2161"/>
      <point x="1602" y="2380"/>
      <point x="1331" y="2380" type="curve" smooth="yes"/>
      <point x="1060" y="2380"/>
      <point x="840" y="2160"/>
      <point x="840" y="1890" type="curve" smooth="yes"/>
      <point x="840" y="1521" type="line"/>
      <point x="1330" y="1520" type="line" smooth="yes"/>
      <point x="1407" y="1520"/>
      <point x="1470" y="1457"/>
      <point x="1470" y="1380" type="curve" smooth="yes"/>
      <point x="1470" y="1303"/>
      <point x="1407" y="1240"/>
      <point x="1330" y="1240" type="curve" smooth="yes"/>
      <point x="1330" y="1240"/>
      <point x="1090" y="1240"/>
      <point x="840" y="1240" type="curve"/>
      <point x="840" y="420" type="line" smooth="yes"/>
      <point x="840" y="318"/>
      <point x="813" y="222"/>
      <point x="765" y="140" type="curve"/>
      <point x="1961" y="140" type="line" smooth="yes"/>
      <point x="2038" y="140"/>
      <point x="2101" y="77"/>
      <point x="2101" y="0" type="curve" smooth="yes"/>
      <point x="2101" y="-77"/>
      <point x="2038" y="-140"/>
      <point x="1961" y="-140" type="curve" smooth="yes"/>
      <point x="280" y="-140" type="line" smooth="yes"/>
      <point x="203" y="-140"/>
      <point x="140" y="-78"/>
      <point x="140" y="0" type="curve" smooth="yes"/>
      <point x="140" y="1" type="line" smooth="yes"/>
      <point x="140" y="79"/>
      <point x="203" y="141"/>
      <point x="280" y="141" type="curve" smooth="yes"/>
      <point x="435" y="141"/>
      <point x="560" y="266"/>
      <point x="560" y="420" type="curve" smooth="yes"/>
      <point x="560" y="693"/>
      <point x="560" y="967"/>
      <point x="560" y="1240" type="curve"/>
      <point x="401" y="1240"/>
      <point x="280" y="1240"/>
      <point x="280" y="1240" type="curve" smooth="yes"/>
      <point x="203" y="1240"/>
      <point x="140" y="1303"/>
    </contour>
  </outline>
</glyph>
<glyph name="yen" format="2">
  <advance width="2564"/>
  <unicode hex="00A5"/>
  <outline>
    <contour>
      <point x="140" y="2520" type="curve" smooth="yes"/>
      <point x="140" y="2597"/>
      <point x="203" y="2660"/>
      <point x="280" y="2660" type="curve" smooth="yes"/>
      <point x="327" y="2660"/>
      <point x="370" y="2636"/>
      <point x="395" y="2600" type="curve" smooth="yes"/>
      <point x="1107" y="1583" type="line"/>
      <point x="1819" y="2600" type="line" smooth="yes"/>
      <point x="1844" y="2636"/>
      <point x="1887" y="2660"/>
      <point x="1934" y="2660" type="curve" smooth="yes"/>
      <point x="2011" y="2660"/>
      <point x="2074" y="2597"/>
      <point x="2074" y="2520" type="curve" smooth="yes"/>
      <point x="2074" y="2490"/>
      <point x="2065" y="2463"/>
      <point x="2049" y="2440" type="curve" smooth="yes"/>
      <point x="1303" y="1373" type="line"/>
      <point x="1934" y="1373" type="line" smooth="yes"/>
      <point x="2011" y="1373"/>
      <point x="2074" y="1310"/>
      <point x="2074" y="1233" type="curve" smooth="yes"/>
      <point x="2074" y="1156"/>
      <point x="2011" y="1093"/>
      <point x="1934" y="1093" type="curve" smooth="yes"/>
      <point x="1248" y="1093" type="line"/>
      <point x="1248" y="848" type="line"/>
      <point x="1934" y="848" type="line" smooth="yes"/>
      <point x="2011" y="848"/>
      <point x="2074" y="785"/>
      <point x="2074" y="708" type="curve" smooth="yes"/>
      <point x="2074" y="631"/>
      <point x="2011" y="568"/>
      <point x="1934" y="568" type="curve" smooth="yes"/>
      <point x="1248" y="568" type="line"/>
      <point x="1248" y="0" type="line" smooth="yes"/>
      <point x="1248" y="-78"/>
      <point x="1184" y="-140"/>
      <point x="1108" y="-140" type="curve"/>
      <point x="1107" y="-140" type="line"/>
      <point x="1030" y="-140"/>
      <point x="967" y="-77"/>
      <point x="967" y="0" type="curve" smooth="yes"/>
      <point x="967" y="568" type="line"/>
      <point x="280" y="568" type="line" smooth="yes"/>
      <point x="203" y="568"/>
      <point x="140" y="631"/>
      <point x="140" y="708" type="curve" smooth="yes"/>
      <point x="140" y="785"/>
      <point x="203" y="848"/>
      <point x="280" y="848" type="curve" smooth="yes"/>
      <point x="967" y="848" type="line"/>
      <point x="967" y="1093" type="line"/>
      <point x="280" y="1093" type="line" smooth="yes"/>
      <point x="203" y="1093"/>
      <point x="140" y="1156"/>
      <point x="140" y="1233" type="curve" smooth="yes"/>
      <point x="140" y="1310"/>
      <point x="203" y="1373"/>
      <point x="280" y="1373" type="curve" smooth="yes"/>
      <point x="912" y="1373" type="line"/>
      <point x="165" y="2440" type="line" smooth="yes"/>
      <point x="149" y="2463"/>
      <point x="140" y="2490"/>
    </contour>
  </outline>
</glyph>
<glyph name="brokenbar" format="2">
  <advance width="910"/>
  <unicode hex="00A6"/>
  <outline>
    <contour>
      <point x="140" y="-420" type="curve" smooth="yes"/>
      <point x="140" y="875" type="line" smooth="yes"/>
      <point x="140" y="952"/>
      <point x="203" y="1015"/>
      <point x="280" y="1015" type="curve" smooth="yes"/>
      <point x="357" y="1015"/>
      <point x="420" y="952"/>
      <point x="420" y="875" type="curve" smooth="yes"/>
      <point x="420" y="-420" type="line" smooth="yes"/>
      <point x="420" y="-497"/>
      <point x="357" y="-560"/>
      <point x="280" y="-560" type="curve" smooth="yes"/>
      <point x="203" y="-560"/>
      <point x="140" y="-497"/>
    </contour>
    <contour>
      <point x="140" y="1505" type="curve" smooth="yes"/>
      <point x="140" y="2800" type="line" smooth="yes"/>
      <point x="140" y="2877"/>
      <point x="203" y="2940"/>
      <point x="280" y="2940" type="curve" smooth="yes"/>
      <point x="357" y="2940"/>
      <point x="420" y="2877"/>
      <point x="420" y="2800" type="curve" smooth="yes"/>
      <point x="420" y="1505" type="line" smooth="yes"/>
      <point x="420" y="1428"/>
      <point x="357" y="1365"/>
      <point x="280" y="1365" type="curve" smooth="yes"/>
      <point x="203" y="1365"/>
      <point x="140" y="1428"/>
    </contour>
  </outline>
</glyph>
<glyph name="degree" format="2">
  <advance width="1854"/>
  <unicode hex="00B0"/>
  <outline>
    <contour>
      <point x="140" y="2048" type="curve" smooth="yes"/>
      <point x="140" y="2386"/>
      <point x="414" y="2660"/>
      <point x="752" y="2660" type="curve" smooth="yes"/>
      <point x="1090" y="2660"/>
      <point x="1364" y="2386"/>
      <point x="1364" y="2048" type="curve" smooth="yes"/>
      <point x="1364" y="1710"/>
      <point x="1090" y="1436"/>
      <point x="752" y="1436" type="curve" smooth="yes"/>
      <point x="414" y="1436"/>
      <point x="140" y="1710"/>
    </contour>
    <contour>
      <point x="420" y="2048" type="curve" smooth="yes"/>
      <point x="420" y="1864"/>
      <point x="568" y="1716"/>
      <point x="752" y="1716" type="curve" smooth="yes"/>
      <point x="936" y="1716"/>
      <point x="1084" y="1864"/>
      <point x="1084" y="2048" type="curve" smooth="yes"/>
      <point x="1084" y="2232"/>
      <point x="936" y="2380"/>
      <point x="752" y="2380" type="curve" smooth="yes"/>
      <point x="568" y="2380"/>
      <point x="420" y="2232"/>
    </contour>
  </outline>
</glyph>
<glyph name="plusminus" format="2">
  <advance width="2110"/>
  <unicode hex="00B1"/>
  <outline>
    <contour>
      <point x="140" y="528" type="curve" smooth="yes"/>
      <point x="140" y="605"/>
      <point x="203" y="668"/>
      <point x="280" y="668" type="curve" smooth="yes"/>
      <point x="759" y="668" type="line"/>
      <point x="747" y="689"/>
      <point x="740" y="713"/>
      <point x="740" y="738" type="curve" smooth="yes"/>
      <point x="740" y="1198" type="line"/>
      <point x="280" y="1198" type="line" smooth="yes"/>
      <point x="203" y="1198"/>
      <point x="140" y="1261"/>
      <point x="140" y="1338" type="curve" smooth="yes"/>
      <point x="140" y="1415"/>
      <point x="203" y="1478"/>
      <point x="280" y="1478" type="curve" smooth="yes"/>
      <point x="739" y="1478" type="line"/>
      <point x="740" y="1930" type="line" smooth="yes"/>
      <point x="740" y="2007"/>
      <point x="803" y="2070"/>
      <point x="880" y="2070" type="curve" smooth="yes"/>
      <point x="957" y="2070"/>
      <point x="1020" y="2007"/>
      <point x="1020" y="1930" type="curve" smooth="yes"/>
      <point x="1020" y="1478" type="line"/>
      <point x="1173" y="1478"/>
      <point x="1327" y="1478"/>
      <point x="1480" y="1478" type="curve" smooth="yes"/>
      <point x="1557" y="1478"/>
      <point x="1620" y="1415"/>
      <point x="1620" y="1338" type="curve" smooth="yes"/>
      <point x="1620" y="1261"/>
      <point x="1557" y="1198"/>
      <point x="1480" y="1198" type="curve" smooth="yes"/>
      <point x="1021" y="1198" type="line"/>
      <point x="1021" y="1021"/>
      <point x="1020" y="738"/>
      <point x="1020" y="738" type="curve" smooth="yes"/>
      <point x="1020" y="713"/>
      <point x="1013" y="689"/>
      <point x="1001" y="668" type="curve"/>
      <point x="1480" y="668" type="line" smooth="yes"/>
      <point x="1557" y="668"/>
      <point x="1620" y="605"/>
      <point x="1620" y="528" type="curve" smooth="yes"/>
      <point x="1620" y="451"/>
      <point x="1557" y="388"/>
      <point x="1480" y="388" type="curve" smooth="yes"/>
      <point x="280" y="388" type="line" smooth="yes"/>
      <point x="203" y="388"/>
      <point x="140" y="451"/>
    </contour>
  </outline>
</glyph>
<glyph name="mu" format="2">
  <advance width="2065"/>
  <unicode hex="00B5"/>
  <outline>
    <contour>
      <point x="1680" y="-12" type="curve" smooth="yes"/>
      <point x="1680" y="-146"/>
      <point x="1545" y="-164"/>
      <point x="1395" y="-164" type="curve" smooth="yes"/>
      <point x="1347" y="-164"/>
      <point x="1227" y="-150"/>
      <point x="1149" y="-18" type="curve"/>
      <point x="1042" y="-109"/>
      <point x="904" y="-164"/>
      <point x="752" y="-164" type="curve" smooth="yes"/>
      <point x="629" y="-164"/>
      <point x="515" y="-128"/>
      <point x="420" y="-66" type="curve"/>
      <point x="420" y="-1004" type="line" smooth="yes"/>
      <point x="420" y="-1081"/>
      <point x="357" y="-1144"/>
      <point x="280" y="-1144" type="curve" smooth="yes"/>
      <point x="203" y="-1144"/>
      <point x="140" y="-1081"/>
      <point x="140" y="-1004" type="curve" smooth="yes"/>
      <point x="140" y="1435" type="line" smooth="yes"/>
      <point x="140" y="1512"/>
      <point x="203" y="1575"/>
      <point x="280" y="1575" type="curve" smooth="yes"/>
      <point x="357" y="1575"/>
      <point x="420" y="1512"/>
      <point x="420" y="1435" type="curve" smooth="yes"/>
      <point x="421" y="448" type="line" smooth="yes"/>
      <point x="421" y="264"/>
      <point x="568" y="116"/>
      <point x="752" y="116" type="curve" smooth="yes"/>
      <point x="936" y="116"/>
      <point x="1083" y="264"/>
      <point x="1083" y="448" type="curve" smooth="yes"/>
      <point x="1084" y="1435" type="line" smooth="yes"/>
      <point x="1084" y="1512"/>
      <point x="1147" y="1575"/>
      <point x="1224" y="1575" type="curve" smooth="yes"/>
      <point x="1301" y="1575"/>
      <point x="1364" y="1512"/>
      <point x="1364" y="1435" type="curve" smooth="yes"/>
      <point x="1365" y="268" type="line" smooth="yes"/>
      <point x="1365" y="264"/>
      <point x="1365" y="146"/>
      <point x="1396" y="116" type="curve"/>
      <point x="1450" y="116"/>
      <point x="1519" y="126"/>
      <point x="1519" y="126" type="curve" smooth="yes"/>
      <point x="1524" y="127"/>
      <point x="1531" y="128"/>
      <point x="1540" y="128" type="curve" smooth="yes"/>
      <point x="1617" y="128"/>
      <point x="1680" y="65"/>
    </contour>
  </outline>
</glyph>
<glyph name="periodcentered" format="2">
  <advance width="1120"/>
  <unicode hex="00B7"/>
  <outline>
    <contour>
      <point x="140" y="1338" type="curve" smooth="yes"/>
      <point x="140" y="1473"/>
      <point x="250" y="1583"/>
      <point x="385" y="1583" type="curve" smooth="yes"/>
      <point x="520" y="1583"/>
      <point x="630" y="1473"/>
      <point x="630" y="1338" type="curve" smooth="yes"/>
      <point x="630" y="1203"/>
      <point x="520" y="1093"/>
      <point x="385" y="1093" type="curve" smooth="yes"/>
      <point x="250" y="1093"/>
      <point x="140" y="1203"/>
    </contour>
    <contour>
      <point x="350" y="1338" type="line"/>
      <point x="385" y="1303" type="line"/>
      <point x="420" y="1338" type="line"/>
      <point x="385" y="1373" type="line"/>
    </contour>
  </outline>
</glyph>
<glyph name="ordmasculine" format="2">
  <advance width="1872"/>
  <unicode hex="00BA"/>
  <outline>
    <contour>
      <point x="140" y="504" type="curve" smooth="yes"/>
      <point x="140" y="581"/>
      <point x="203" y="644"/>
      <point x="280" y="644" type="curve" smooth="yes"/>
      <point x="1242" y="644" type="line" smooth="yes"/>
      <point x="1319" y="644"/>
      <point x="1382" y="581"/>
      <point x="1382" y="504" type="curve" smooth="yes"/>
      <point x="1382" y="427"/>
      <point x="1319" y="364"/>
      <point x="1242" y="364" type="curve" smooth="yes"/>
      <point x="280" y="364" type="line" smooth="yes"/>
      <point x="203" y="364"/>
      <point x="140" y="427"/>
    </contour>
    <contour>
      <point x="140" y="1851" type="curve" smooth="yes"/>
      <point x="140" y="2301"/>
      <point x="417" y="2660"/>
      <point x="761" y="2660" type="curve" smooth="yes"/>
      <point x="1105" y="2660"/>
      <point x="1382" y="2301"/>
      <point x="1382" y="1851" type="curve" smooth="yes"/>
      <point x="1382" y="1401"/>
      <point x="1105" y="1042"/>
      <point x="761" y="1042" type="curve" smooth="yes"/>
      <point x="417" y="1042"/>
      <point x="140" y="1401"/>
    </contour>
    <contour>
      <point x="420" y="1851" type="curve" smooth="yes"/>
      <point x="420" y="1559"/>
      <point x="581" y="1322"/>
      <point x="761" y="1322" type="curve" smooth="yes"/>
      <point x="941" y="1322"/>
      <point x="1102" y="1559"/>
      <point x="1102" y="1851" type="curve" smooth="yes"/>
      <point x="1102" y="2143"/>
      <point x="941" y="2380"/>
      <point x="761" y="2380" type="curve" smooth="yes"/>
      <point x="581" y="2380"/>
      <point x="420" y="2143"/>
    </contour>
  </outline>
</glyph>
<glyph name="multiply" format="2">
  <advance width="2110"/>
  <unicode hex="00D7"/>
  <outline>
    <contour>
      <point x="140" y="1938" type="curve" smooth="yes"/>
      <point x="140" y="2015"/>
      <point x="203" y="2078"/>
      <point x="280" y="2078" type="curve" smooth="yes"/>
      <point x="319" y="2078"/>
      <point x="354" y="2062"/>
      <point x="379" y="2037" type="curve" smooth="yes"/>
      <point x="880" y="1536" type="line"/>
      <point x="1381" y="2037" type="line" smooth="yes"/>
      <point x="1406" y="2062"/>
      <point x="1441" y="2078"/>
      <point x="1480" y="2078" type="curve" smooth="yes"/>
      <point x="1557" y="2078"/>
      <point x="1620" y="2015"/>
      <point x="1620" y="1938" type="curve" smooth="yes"/>
      <point x="1620" y="1899"/>
      <point x="1604" y="1864"/>
      <point x="1579" y="1839" type="curve" smooth="yes"/>
      <point x="1079" y="1338" type="line"/>
      <point x="1579" y="837" type="line" smooth="yes"/>
      <point x="1604" y="812"/>
      <point x="1620" y="777"/>
      <point x="1620" y="738" type="curve" smooth="yes"/>
      <point x="1620" y="661"/>
      <point x="1557" y="598"/>
      <point x="1480" y="598" type="curve" smooth="yes"/>
      <point x="1441" y="598"/>
      <point x="1406" y="614"/>
      <point x="1381" y="639" type="curve" smooth="yes"/>
      <point x="880" y="1140" type="line"/>
      <point x="379" y="639" type="line" smooth="yes"/>
      <point x="354" y="614"/>
      <point x="319" y="598"/>
      <point x="280" y="598" type="curve" smooth="yes"/>
      <point x="203" y="598"/>
      <point x="140" y="661"/>
      <point x="140" y="738" type="curve" smooth="yes"/>
      <point x="140" y="777"/>
      <point x="156" y="812"/>
      <point x="181" y="837" type="curve" smooth="yes"/>
      <point x="682" y="1338" type="line"/>
      <point x="181" y="1839" type="line" smooth="yes"/>
      <point x="156" y="1864"/>
      <point x="140" y="1899"/>
    </contour>
  </outline>
</glyph>
<glyph name="divide" format="2">
  <advance width="2110"/>
  <unicode hex="00F7"/>
  <outline>
    <contour>
      <point x="140" y="1339" type="curve" smooth="yes"/>
      <point x="140" y="1416"/>
      <point x="203" y="1479"/>
      <point x="280" y="1479" type="curve" smooth="yes"/>
      <point x="1480" y="1479" type="line" smooth="yes"/>
      <point x="1557" y="1479"/>
      <point x="1620" y="1416"/>
      <point x="1620" y="1339" type="curve" smooth="yes"/>
      <point x="1620" y="1262"/>
      <point x="1557" y="1199"/>
      <point x="1480" y="1199" type="curve" smooth="yes"/>
      <point x="280" y="1199" type="line" smooth="yes"/>
      <point x="203" y="1199"/>
      <point x="140" y="1262"/>
    </contour>
    <contour>
      <point x="635" y="843" type="curve" smooth="yes"/>
      <point x="635" y="978"/>
      <point x="745" y="1088"/>
      <point x="880" y="1088" type="curve" smooth="yes"/>
      <point x="1015" y="1088"/>
      <point x="1125" y="978"/>
      <point x="1125" y="843" type="curve" smooth="yes"/>
      <point x="1125" y="708"/>
      <point x="1015" y="598"/>
      <point x="880" y="598" type="curve" smooth="yes"/>
      <point x="745" y="598"/>
      <point x="635" y="708"/>
    </contour>
    <contour>
      <point x="635" y="1833" type="curve" smooth="yes"/>
      <point x="635" y="1968"/>
      <point x="745" y="2078"/>
      <point x="880" y="2078" type="curve" smooth="yes"/>
      <point x="1015" y="2078"/>
      <point x="1125" y="1968"/>
      <point x="1125" y="1833" type="curve" smooth="yes"/>
      <point x="1125" y="1698"/>
      <point x="1015" y="1588"/>
      <point x="880" y="1588" type="curve" smooth="yes"/>
      <point x="745" y="1588"/>
      <point x="635" y="1698"/>
    </contour>
    <contour>
      <point x="845" y="843" type="line"/>
      <point x="880" y="808" type="line"/>
      <point x="915" y="843" type="line"/>
      <point x="880" y="878" type="line"/>
    </contour>
    <contour>
      <point x="845" y="1833" type="line"/>
      <point x="880" y="1798" type="line"/>
      <point x="915" y="1833" type="line"/>
      <point x="880" y="1868" type="line"/>
    </contour>
  </outline>
</glyph>
<glyph name="endash" format="2">
  <advance width="2540"/>
  <unicode hex="2013"/>
  <outline>
    <contour>
      <point x="140" y="1338" type="curve" smooth="yes"/>
      <point x="140" y="1415"/>
      <point x="203" y="1478"/>
      <point x="280" y="1478" type="curve" smooth="yes"/>
      <point x="1910" y="1478" type="line" smooth="yes"/>
      <point x="1987" y="1478"/>
      <point x="2050" y="1415"/>
      <point x="2050" y="1338" type="curve" smooth="yes"/>
      <point x="2050" y="1261"/>
      <point x="1987" y="1198"/>
      <point x="1910" y="1198" type="curve" smooth="yes"/>
      <point x="280" y="1198" type="line" smooth="yes"/>
      <point x="203" y="1198"/>
      <point x="140" y="1261"/>
    </contour>
  </outline>
</glyph>
<glyph name="emdash" format="2">
  <advance width="2871"/>
  <unicode hex="2014"/>
  <outline>
    <contour>
      <point x="140" y="1338" type="curve" smooth="yes"/>
      <point x="140" y="1415"/>
      <point x="203" y="1478"/>
      <point x="280" y="1478" type="curve" smooth="yes"/>
      <point x="2241" y="1478" type="line" smooth="yes"/>
      <point x="2318" y="1478"/>
      <point x="2381" y="1415"/>
      <point x="2381" y="1338" type="curve" smooth="yes"/>
      <point x="2381" y="1261"/>
      <point x="2318" y="1198"/>
      <point x="2241" y="1198" type="curve" smooth="yes"/>
      <point x="280" y="1198" type="line" smooth="yes"/>
      <point x="203" y="1198"/>
      <point x="140" y="1261"/>
    </contour>
  </outline>
</glyph>
<glyph name="quoteleft" format="2">
  <advance width="1120"/>
  <unicode hex="2018"/>
  <outline>
    <contour>
      <point x="140" y="2100" type="curve" smooth="yes"/>
      <point x="140" y="2340"/>
      <point x="377" y="2660"/>
      <point x="516" y="2660" type="curve" smooth="yes"/>
      <point x="593" y="2660"/>
      <point x="656" y="2597"/>
      <point x="656" y="2520" type="curve" smooth="yes"/>
      <point x="656" y="2476"/>
      <point x="636" y="2438"/>
      <point x="605" y="2412" type="curve" smooth="yes"/>
      <point x="603" y="2410"/>
      <point x="557" y="2371"/>
      <point x="510" y="2311" type="curve"/>
      <point x="582" y="2268"/>
      <point x="630" y="2190"/>
      <point x="630" y="2100" type="curve" smooth="yes"/>
      <point x="630" y="1965"/>
      <point x="520" y="1855"/>
      <point x="385" y="1855" type="curve" smooth="yes"/>
      <point x="250" y="1855"/>
      <point x="140" y="1965"/>
    </contour>
  </outline>
</glyph>
<glyph name="quoteright" format="2">
  <advance width="1120"/>
  <unicode hex="2019"/>
  <outline>
    <contour>
      <point x="114" y="1995" type="curve" smooth="yes"/>
      <point x="114" y="2037"/>
      <point x="132" y="2076"/>
      <point x="165" y="2103" type="curve" smooth="yes"/>
      <point x="167" y="2105"/>
      <point x="213" y="2144"/>
      <point x="260" y="2204" type="curve"/>
      <point x="188" y="2247"/>
      <point x="140" y="2325"/>
      <point x="140" y="2415" type="curve" smooth="yes"/>
      <point x="140" y="2550"/>
      <point x="250" y="2660"/>
      <point x="385" y="2660" type="curve" smooth="yes"/>
      <point x="520" y="2660"/>
      <point x="630" y="2550"/>
      <point x="630" y="2415" type="curve" smooth="yes"/>
      <point x="630" y="2174"/>
      <point x="392" y="1855"/>
      <point x="254" y="1855" type="curve" smooth="yes"/>
      <point x="177" y="1855"/>
      <point x="114" y="1918"/>
    </contour>
  </outline>
</glyph>
<glyph name="quotedblleft" format="2">
  <advance width="1960"/>
  <unicode hex="201C"/>
  <outline>
    <contour>
      <point x="140" y="2100" type="curve" smooth="yes"/>
      <point x="140" y="2340"/>
      <point x="377" y="2660"/>
      <point x="516" y="2660" type="curve" smooth="yes"/>
      <point x="593" y="2660"/>
      <point x="656" y="2597"/>
      <point x="656" y="2520" type="curve" smooth="yes"/>
      <point x="656" y="2476"/>
      <point x="636" y="2438"/>
      <point x="605" y="2412" type="curve" smooth="yes"/>
      <point x="603" y="2410"/>
      <point x="557" y="2371"/>
      <point x="510" y="2311" type="curve"/>
      <point x="582" y="2268"/>
      <point x="630" y="2190"/>
      <point x="630" y="2100" type="curve" smooth="yes"/>
      <point x="630" y="1965"/>
      <point x="520" y="1855"/>
      <point x="385" y="1855" type="curve" smooth="yes"/>
      <point x="250" y="1855"/>
      <point x="140" y="1965"/>
    </contour>
    <contour>
      <point x="980" y="2100" type="curve" smooth="yes"/>
      <point x="980" y="2340"/>
      <point x="1217" y="2660"/>
      <point x="1356" y="2660" type="curve" smooth="yes"/>
      <point x="1433" y="2660"/>
      <point x="1496" y="2597"/>
      <point x="1496" y="2520" type="curve" smooth="yes"/>
      <point x="1496" y="2476"/>
      <point x="1476" y="2438"/>
      <point x="1445" y="2412" type="curve" smooth="yes"/>
      <point x="1443" y="2410"/>
      <point x="1397" y="2371"/>
      <point x="1350" y="2311" type="curve"/>
      <point x="1422" y="2268"/>
      <point x="1470" y="2190"/>
      <point x="1470" y="2100" type="curve" smooth="yes"/>
      <point x="1470" y="1965"/>
      <point x="1360" y="1855"/>
      <point x="1225" y="1855" type="curve" smooth="yes"/>
      <point x="1090" y="1855"/>
      <point x="980" y="1965"/>
    </contour>
  </outline>
</glyph>
<glyph name="quotedblright" format="2">
  <advance width="1960"/>
  <unicode hex="201D"/>
  <outline>
    <contour>
      <point x="113" y="1995" type="curve" smooth="yes"/>
      <point x="113" y="2037"/>
      <point x="131" y="2076"/>
      <point x="164" y="2103" type="curve" smooth="yes"/>
      <point x="166" y="2105"/>
      <point x="212" y="2144"/>
      <point x="259" y="2204" type="curve"/>
      <point x="187" y="2247"/>
      <point x="139" y="2325"/>
      <point x="139" y="2415" type="curve" smooth="yes"/>
      <point x="139" y="2550"/>
      <point x="249" y="2660"/>
      <point x="384" y="2660" type="curve" smooth="yes"/>
      <point x="519" y="2660"/>
      <point x="629" y="2550"/>
      <point x="629" y="2415" type="curve" smooth="yes"/>
      <point x="629" y="2174"/>
      <point x="391" y="1855"/>
      <point x="253" y="1855" type="curve" smooth="yes"/>
      <point x="176" y="1855"/>
      <point x="113" y="1918"/>
    </contour>
    <contour>
      <point x="953" y="1995" type="curve" smooth="yes"/>
      <point x="953" y="2037"/>
      <point x="971" y="2076"/>
      <point x="1004" y="2103" type="curve" smooth="yes"/>
      <point x="1006" y="2105"/>
      <point x="1052" y="2144"/>
      <point x="1099" y="2204" type="curve"/>
      <point x="1027" y="2247"/>
      <point x="979" y="2325"/>
      <point x="979" y="2415" type="curve" smooth="yes"/>
      <point x="979" y="2550"/>
      <point x="1089" y="2660"/>
      <point x="1224" y="2660" type="curve" smooth="yes"/>
      <point x="1359" y="2660"/>
      <point x="1469" y="2550"/>
      <point x="1469" y="2415" type="curve" smooth="yes"/>
      <point x="1469" y="2174"/>
      <point x="1231" y="1855"/>
      <point x="1093" y="1855" type="curve" smooth="yes"/>
      <point x="1016" y="1855"/>
      <point x="953" y="1918"/>
    </contour>
  </outline>
</glyph>
<glyph name="quotedblbase" format="2">
  <advance width="1960"/>
  <unicode hex="201E"/>
  <outline>
    <contour>
      <point x="114" y="-315" type="curve" smooth="yes"/>
      <point x="114" y="-273"/>
      <point x="132" y="-234"/>
      <point x="165" y="-207" type="curve" smooth="yes"/>
      <point x="167" y="-205"/>
      <point x="213" y="-166"/>
      <point x="260" y="-106" type="curve"/>
      <point x="188" y="-63"/>
      <point x="140" y="15"/>
      <point x="140" y="105" type="curve" smooth="yes"/>
      <point x="140" y="240"/>
      <point x="250" y="350"/>
      <point x="385" y="350" type="curve" smooth="yes"/>
      <point x="520" y="350"/>
      <point x="630" y="240"/>
      <point x="630" y="105" type="curve" smooth="yes"/>
      <point x="630" y="-136"/>
      <point x="392" y="-455"/>
      <point x="254" y="-455" type="curve" smooth="yes"/>
      <point x="177" y="-455"/>
      <point x="114" y="-392"/>
    </contour>
    <contour>
      <point x="954" y="-315" type="curve" smooth="yes"/>
      <point x="954" y="-273"/>
      <point x="972" y="-234"/>
      <point x="1005" y="-207" type="curve" smooth="yes"/>
      <point x="1007" y="-205"/>
      <point x="1053" y="-166"/>
      <point x="1100" y="-106" type="curve"/>
      <point x="1028" y="-63"/>
      <point x="980" y="15"/>
      <point x="980" y="105" type="curve" smooth="yes"/>
      <point x="980" y="240"/>
      <point x="1090" y="350"/>
      <point x="1225" y="350" type="curve" smooth="yes"/>
      <point x="1360" y="350"/>
      <point x="1470" y="240"/>
      <point x="1470" y="105" type="curve" smooth="yes"/>
      <point x="1470" y="-136"/>
      <point x="1232" y="-455"/>
      <point x="1094" y="-455" type="curve" smooth="yes"/>
      <point x="1017" y="-455"/>
      <point x="954" y="-392"/>
    </contour>
  </outline>
</glyph>
<glyph name="bullet" format="2">
  <advance width="1226"/>
  <unicode hex="2022"/>
  <outline>
    <contour>
      <point x="140" y="1338" type="curve" smooth="yes"/>
      <point x="140" y="1504"/>
      <point x="291" y="1636"/>
      <point x="438" y="1636" type="curve" smooth="yes"/>
      <point x="602" y="1636"/>
      <point x="736" y="1502"/>
      <point x="736" y="1338" type="curve" smooth="yes"/>
      <point x="736" y="1173"/>
      <point x="593" y="1040"/>
      <point x="438" y="1040" type="curve" smooth="yes"/>
      <point x="283" y="1040"/>
      <point x="140" y="1173"/>
    </contour>
    <contour>
      <point x="420" y="1337" type="curve" smooth="yes"/>
      <point x="421" y="1331"/>
      <point x="430" y="1323"/>
      <point x="438" y="1320" type="curve"/>
      <point x="448" y="1324"/>
      <point x="455" y="1333"/>
      <point x="456" y="1338" type="curve" smooth="yes"/>
      <point x="456" y="1347"/>
      <point x="449" y="1355"/>
      <point x="441" y="1356" type="curve"/>
      <point x="427" y="1350"/>
      <point x="420" y="1337"/>
    </contour>
  </outline>
</glyph>
<glyph name="ellipsis" format="2">
  <advance width="2800"/>
  <unicode hex="2026"/>
  <outline>
    <contour>
      <point x="140" y="105" type="curve" smooth="yes"/>
      <point x="140" y="240"/>
      <point x="250" y="350"/>
      <point x="385" y="350" type="curve" smooth="yes"/>
      <point x="520" y="350"/>
      <point x="630" y="240"/>
      <point x="630" y="105" type="curve" smooth="yes"/>
      <point x="630" y="-30"/>
      <point x="520" y="-140"/>
      <point x="385" y="-140" type="curve" smooth="yes"/>
      <point x="250" y="-140"/>
      <point x="140" y="-30"/>
    </contour>
    <contour>
      <point x="350" y="105" type="line"/>
      <point x="385" y="70" type="line"/>
      <point x="420" y="105" type="line"/>
      <point x="385" y="140" type="line"/>
    </contour>
    <contour>
      <point x="980" y="105" type="curve" smooth="yes"/>
      <point x="980" y="240"/>
      <point x="1090" y="350"/>
      <point x="1225" y="350" type="curve" smooth="yes"/>
      <point x="1360" y="350"/>
      <point x="1470" y="240"/>
      <point x="1470" y="105" type="curve" smooth="yes"/>
      <point x="1470" y="-30"/>
      <point x="1360" y="-140"/>
      <point x="1225" y="-140" type="curve" smooth="yes"/>
      <point x="1090" y="-140"/>
      <point x="980" y="-30"/>
    </contour>
    <contour>
      <point x="1190" y="105" type="line"/>
      <point x="1225" y="70" type="line"/>
      <point x="1260" y="105" type="line"/>
      <point x="1225" y="140" type="line"/>
    </contour>
    <contour>
      <point x="1820" y="105" type="curve" smooth="yes"/>
      <point x="1820" y="240"/>
      <point x="1930" y="350"/>
      <point x="2065" y="350" type="curve" smooth="yes"/>
      <point x="2200" y="350"/>
      <point x="2310" y="240"/>
      <point x="2310" y="105" type="curve" smooth="yes"/>
      <point x="2310" y="-30"/>
      <point x="2200" y="-140"/>
      <point x="2065" y="-140" type="curve" smooth="yes"/>
      <point x="1930" y="-140"/>
      <point x="1820" y="-30"/>
    </contour>
    <contour>
      <point x="2030" y="105" type="line"/>
      <point x="2065" y="70" type="line"/>
      <point x="2100" y="105" type="line"/>
      <point x="2065" y="140" type="line"/>
    </contour>
  </outline>
</glyph>
